<?xml version="1.0" encoding="UTF-8" standalone="no"?>
<!DOCTYPE svg PUBLIC "-//W3C//DTD SVG 1.1//EN"
 "http://www.w3.org/Graphics/SVG/1.1/DTD/svg11.dtd">
<!-- Generated by graphviz version 2.43.0 (0)
 -->
<!-- Title: Tree Pages: 1 -->
<svg width="931pt" height="488pt"
 viewBox="0.00 0.00 931.00 488.00" xmlns="http://www.w3.org/2000/svg" xmlns:xlink="http://www.w3.org/1999/xlink">
<g id="graph0" class="graph" transform="scale(1 1) rotate(0) translate(4 484)">
<title>Tree</title>
<polygon fill="#0f0000" stroke="transparent" points="-4,4 -4,-484 927,-484 927,4 -4,4"/>
<!-- node0x60457a0b74f0 -->
<g id="node1" class="node">
<title>node0x60457a0b74f0</title>
<path fill="#ec9594" stroke="#fee8d6" d="M145,-387.5C145,-387.5 480,-387.5 480,-387.5 486,-387.5 492,-393.5 492,-399.5 492,-399.5 492,-467.5 492,-467.5 492,-473.5 486,-479.5 480,-479.5 480,-479.5 145,-479.5 145,-479.5 139,-479.5 133,-473.5 133,-467.5 133,-467.5 133,-399.5 133,-399.5 133,-393.5 139,-387.5 145,-387.5"/>
<text text-anchor="middle" x="312.5" y="-464.3" font-family="Times,serif" font-size="14.00">indx: 0x60457a0b74f0</text>
<polyline fill="none" stroke="#fee8d6" points="133,-456.5 492,-456.5 "/>
<text text-anchor="middle" x="312.5" y="-441.3" font-family="Times,serif" font-size="14.00">value: mipt</text>
<polyline fill="none" stroke="#fee8d6" points="133,-433.5 492,-433.5 "/>
<text text-anchor="middle" x="312.5" y="-418.3" font-family="Times,serif" font-size="14.00">parent: (nil)</text>
<polyline fill="none" stroke="#fee8d6" points="133,-410.5 492,-410.5 "/>
<text text-anchor="middle" x="220" y="-395.3" font-family="Times,serif" font-size="14.00">left: 0x60457a0b7520</text>
<polyline fill="none" stroke="#fee8d6" points="307,-387.5 307,-410.5 "/>
<text text-anchor="middle" x="399.5" y="-395.3" font-family="Times,serif" font-size="14.00">right: 0x60457a0b7550</text>
</g>
<!-- node0x60457a0b7520 -->
<g id="node2" class="node">
<title>node0x60457a0b7520</title>
<path fill="#ec9594" stroke="#fee8d6" d="M80.5,-258.5C80.5,-258.5 250.5,-258.5 250.5,-258.5 256.5,-258.5 262.5,-264.5 262.5,-270.5 262.5,-270.5 262.5,-338.5 262.5,-338.5 262.5,-344.5 256.5,-350.5 250.5,-350.5 250.5,-350.5 80.5,-350.5 80.5,-350.5 74.5,-350.5 68.5,-344.5 68.5,-338.5 68.5,-338.5 68.5,-270.5 68.5,-270.5 68.5,-264.5 74.5,-258.5 80.5,-258.5"/>
<text text-anchor="middle" x="165.5" y="-335.3" font-family="Times,serif" font-size="14.00">indx: 0x60457a0b7520</text>
<polyline fill="none" stroke="#fee8d6" points="68.5,-327.5 262.5,-327.5 "/>
<text text-anchor="middle" x="165.5" y="-312.3" font-family="Times,serif" font-size="14.00">value: university</text>
<polyline fill="none" stroke="#fee8d6" points="68.5,-304.5 262.5,-304.5 "/>
<text text-anchor="middle" x="165.5" y="-289.3" font-family="Times,serif" font-size="14.00">parent: 0x60457a0b74f0</text>
<polyline fill="none" stroke="#fee8d6" points="68.5,-281.5 262.5,-281.5 "/>
<text text-anchor="middle" x="114" y="-266.3" font-family="Times,serif" font-size="14.00">left: (nil)</text>
<polyline fill="none" stroke="#fee8d6" points="159.5,-258.5 159.5,-281.5 "/>
<text text-anchor="middle" x="211" y="-266.3" font-family="Times,serif" font-size="14.00">right: (nil)</text>
</g>
<!-- node0x60457a0b74f0&#45;&gt;node0x60457a0b7520 -->
<g id="edge1" class="edge">
<title>node0x60457a0b74f0&#45;&gt;node0x60457a0b7520</title>
<path fill="none" stroke="#fee8d6" d="M260.26,-387.37C249.13,-377.75 237.29,-367.52 225.88,-357.67"/>
<polygon fill="#fee8d6" stroke="#fee8d6" points="227.92,-354.8 218.07,-350.92 223.35,-360.1 227.92,-354.8"/>
</g>
<!-- node0x60457a0b7550 -->
<g id="node3" class="node">
<title>node0x60457a0b7550</title>
<path fill="#ec9594" stroke="#fee8d6" d="M293,-258.5C293,-258.5 628,-258.5 628,-258.5 634,-258.5 640,-264.5 640,-270.5 640,-270.5 640,-338.5 640,-338.5 640,-344.5 634,-350.5 628,-350.5 628,-350.5 293,-350.5 293,-350.5 287,-350.5 281,-344.5 281,-338.5 281,-338.5 281,-270.5 281,-270.5 281,-264.5 287,-258.5 293,-258.5"/>
<text text-anchor="middle" x="460.5" y="-335.3" font-family="Times,serif" font-size="14.00">indx: 0x60457a0b7550</text>
<polyline fill="none" stroke="#fee8d6" points="281,-327.5 640,-327.5 "/>
<text text-anchor="middle" x="460.5" y="-312.3" font-family="Times,serif" font-size="14.00">value: gavno</text>
<polyline fill="none" stroke="#fee8d6" points="281,-304.5 640,-304.5 "/>
<text text-anchor="middle" x="460.5" y="-289.3" font-family="Times,serif" font-size="14.00">parent: 0x60457a0b74f0</text>
<polyline fill="none" stroke="#fee8d6" points="281,-281.5 640,-281.5 "/>
<text text-anchor="middle" x="368" y="-266.3" font-family="Times,serif" font-size="14.00">left: 0x60457a0b7580</text>
<polyline fill="none" stroke="#fee8d6" points="455,-258.5 455,-281.5 "/>
<text text-anchor="middle" x="547.5" y="-266.3" font-family="Times,serif" font-size="14.00">right: 0x60457a0bab90</text>
</g>
<!-- node0x60457a0b74f0&#45;&gt;node0x60457a0b7550 -->
<g id="edge2" class="edge">
<title>node0x60457a0b74f0&#45;&gt;node0x60457a0b7550</title>
<path fill="none" stroke="#fee8d6" d="M365.1,-387.37C376.3,-377.75 388.22,-367.52 399.71,-357.67"/>
<polygon fill="#fee8d6" stroke="#fee8d6" points="402.27,-360.08 407.57,-350.92 397.71,-354.77 402.27,-360.08"/>
</g>
<!-- node0x60457a0b7580 -->
<g id="node4" class="node">
<title>node0x60457a0b7580</title>
<path fill="#ec9594" stroke="#fee8d6" d="M105,-129.5C105,-129.5 440,-129.5 440,-129.5 446,-129.5 452,-135.5 452,-141.5 452,-141.5 452,-209.5 452,-209.5 452,-215.5 446,-221.5 440,-221.5 440,-221.5 105,-221.5 105,-221.5 99,-221.5 93,-215.5 93,-209.5 93,-209.5 93,-141.5 93,-141.5 93,-135.5 99,-129.5 105,-129.5"/>
<text text-anchor="middle" x="272.5" y="-206.3" font-family="Times,serif" font-size="14.00">indx: 0x60457a0b7580</text>
<polyline fill="none" stroke="#fee8d6" points="93,-198.5 452,-198.5 "/>
<text text-anchor="middle" x="272.5" y="-183.3" font-family="Times,serif" font-size="14.00">value: idk</text>
<polyline fill="none" stroke="#fee8d6" points="93,-175.5 452,-175.5 "/>
<text text-anchor="middle" x="272.5" y="-160.3" font-family="Times,serif" font-size="14.00">parent: 0x60457a0b7550</text>
<polyline fill="none" stroke="#fee8d6" points="93,-152.5 452,-152.5 "/>
<text text-anchor="middle" x="180" y="-137.3" font-family="Times,serif" font-size="14.00">left: 0x60457a0b75b0</text>
<polyline fill="none" stroke="#fee8d6" points="267,-129.5 267,-152.5 "/>
<text text-anchor="middle" x="359.5" y="-137.3" font-family="Times,serif" font-size="14.00">right: 0x60457a0b75e0</text>
</g>
<!-- node0x60457a0b7550&#45;&gt;node0x60457a0b7580 -->
<g id="edge3" class="edge">
<title>node0x60457a0b7550&#45;&gt;node0x60457a0b7580</title>
<path fill="none" stroke="#fee8d6" d="M393.69,-258.37C378.82,-248.32 362.95,-237.6 347.77,-227.35"/>
<polygon fill="#fee8d6" stroke="#fee8d6" points="349.66,-224.4 339.41,-221.7 345.74,-230.2 349.66,-224.4"/>
</g>
<!-- node0x60457a0bab90 -->
<g id="node7" class="node">
<title>node0x60457a0bab90</title>
<path fill="#ec9594" stroke="#fee8d6" d="M482,-129.5C482,-129.5 817,-129.5 817,-129.5 823,-129.5 829,-135.5 829,-141.5 829,-141.5 829,-209.5 829,-209.5 829,-215.5 823,-221.5 817,-221.5 817,-221.5 482,-221.5 482,-221.5 476,-221.5 470,-215.5 470,-209.5 470,-209.5 470,-141.5 470,-141.5 470,-135.5 476,-129.5 482,-129.5"/>
<text text-anchor="middle" x="649.5" y="-206.3" font-family="Times,serif" font-size="14.00">indx: 0x60457a0bab90</text>
<polyline fill="none" stroke="#fee8d6" points="470,-198.5 829,-198.5 "/>
<text text-anchor="middle" x="649.5" y="-183.3" font-family="Times,serif" font-size="14.00">value: huinya</text>
<polyline fill="none" stroke="#fee8d6" points="470,-175.5 829,-175.5 "/>
<text text-anchor="middle" x="649.5" y="-160.3" font-family="Times,serif" font-size="14.00">parent: 0x60457a0b7550</text>
<polyline fill="none" stroke="#fee8d6" points="470,-152.5 829,-152.5 "/>
<text text-anchor="middle" x="557" y="-137.3" font-family="Times,serif" font-size="14.00">left: 0x60457a0b7610</text>
<polyline fill="none" stroke="#fee8d6" points="644,-129.5 644,-152.5 "/>
<text text-anchor="middle" x="736.5" y="-137.3" font-family="Times,serif" font-size="14.00">right: 0x60457a0bab60</text>
</g>
<!-- node0x60457a0b7550&#45;&gt;node0x60457a0bab90 -->
<g id="edge6" class="edge">
<title>node0x60457a0b7550&#45;&gt;node0x60457a0bab90</title>
<path fill="none" stroke="#fee8d6" d="M527.67,-258.37C542.62,-248.32 558.57,-237.6 573.83,-227.35"/>
<polygon fill="#fee8d6" stroke="#fee8d6" points="575.88,-230.18 582.23,-221.7 571.98,-224.37 575.88,-230.18"/>
</g>
<!-- node0x60457a0b75b0 -->
<g id="node5" class="node">
<title>node0x60457a0b75b0</title>
<path fill="#ec9594" stroke="#fee8d6" d="M12,-0.5C12,-0.5 185,-0.5 185,-0.5 191,-0.5 197,-6.5 197,-12.5 197,-12.5 197,-80.5 197,-80.5 197,-86.5 191,-92.5 185,-92.5 185,-92.5 12,-92.5 12,-92.5 6,-92.5 0,-86.5 0,-80.5 0,-80.5 0,-12.5 0,-12.5 0,-6.5 6,-0.5 12,-0.5"/>
<text text-anchor="middle" x="98.5" y="-77.3" font-family="Times,serif" font-size="14.00">indx: 0x60457a0b75b0</text>
<polyline fill="none" stroke="#fee8d6" points="0,-69.5 197,-69.5 "/>
<text text-anchor="middle" x="98.5" y="-54.3" font-family="Times,serif" font-size="14.00">value: rt</text>
<polyline fill="none" stroke="#fee8d6" points="0,-46.5 197,-46.5 "/>
<text text-anchor="middle" x="98.5" y="-31.3" font-family="Times,serif" font-size="14.00">parent: 0x60457a0b7580</text>
<polyline fill="none" stroke="#fee8d6" points="0,-23.5 197,-23.5 "/>
<text text-anchor="middle" x="46.5" y="-8.3" font-family="Times,serif" font-size="14.00">left: (nil)</text>
<polyline fill="none" stroke="#fee8d6" points="93,-0.5 93,-23.5 "/>
<text text-anchor="middle" x="145" y="-8.3" font-family="Times,serif" font-size="14.00">right: (nil)</text>
</g>
<!-- node0x60457a0b7580&#45;&gt;node0x60457a0b75b0 -->
<g id="edge4" class="edge">
<title>node0x60457a0b7580&#45;&gt;node0x60457a0b75b0</title>
<path fill="none" stroke="#fee8d6" d="M210.66,-129.37C197.03,-119.41 182.49,-108.8 168.55,-98.63"/>
<polygon fill="#fee8d6" stroke="#fee8d6" points="170.57,-95.77 160.43,-92.7 166.44,-101.42 170.57,-95.77"/>
</g>
<!-- node0x60457a0b75e0 -->
<g id="node6" class="node">
<title>node0x60457a0b75e0</title>
<path fill="#ec9594" stroke="#fee8d6" d="M227,-0.5C227,-0.5 400,-0.5 400,-0.5 406,-0.5 412,-6.5 412,-12.5 412,-12.5 412,-80.5 412,-80.5 412,-86.5 406,-92.5 400,-92.5 400,-92.5 227,-92.5 227,-92.5 221,-92.5 215,-86.5 215,-80.5 215,-80.5 215,-12.5 215,-12.5 215,-6.5 221,-0.5 227,-0.5"/>
<text text-anchor="middle" x="313.5" y="-77.3" font-family="Times,serif" font-size="14.00">indx: 0x60457a0b75e0</text>
<polyline fill="none" stroke="#fee8d6" points="215,-69.5 412,-69.5 "/>
<text text-anchor="middle" x="313.5" y="-54.3" font-family="Times,serif" font-size="14.00">value: hz</text>
<polyline fill="none" stroke="#fee8d6" points="215,-46.5 412,-46.5 "/>
<text text-anchor="middle" x="313.5" y="-31.3" font-family="Times,serif" font-size="14.00">parent: 0x60457a0b7580</text>
<polyline fill="none" stroke="#fee8d6" points="215,-23.5 412,-23.5 "/>
<text text-anchor="middle" x="261.5" y="-8.3" font-family="Times,serif" font-size="14.00">left: (nil)</text>
<polyline fill="none" stroke="#fee8d6" points="308,-0.5 308,-23.5 "/>
<text text-anchor="middle" x="360" y="-8.3" font-family="Times,serif" font-size="14.00">right: (nil)</text>
</g>
<!-- node0x60457a0b7580&#45;&gt;node0x60457a0b75e0 -->
<g id="edge5" class="edge">
<title>node0x60457a0b7580&#45;&gt;node0x60457a0b75e0</title>
<path fill="none" stroke="#fee8d6" d="M287.07,-129.37C289.88,-120.68 292.84,-111.48 295.74,-102.52"/>
<polygon fill="#fee8d6" stroke="#fee8d6" points="299.1,-103.51 298.84,-92.92 292.44,-101.36 299.1,-103.51"/>
</g>
<!-- node0x60457a0b7610 -->
<g id="node8" class="node">
<title>node0x60457a0b7610</title>
<path fill="#ec9594" stroke="#fee8d6" d="M523,-0.5C523,-0.5 696,-0.5 696,-0.5 702,-0.5 708,-6.5 708,-12.5 708,-12.5 708,-80.5 708,-80.5 708,-86.5 702,-92.5 696,-92.5 696,-92.5 523,-92.5 523,-92.5 517,-92.5 511,-86.5 511,-80.5 511,-80.5 511,-12.5 511,-12.5 511,-6.5 517,-0.5 523,-0.5"/>
<text text-anchor="middle" x="609.5" y="-77.3" font-family="Times,serif" font-size="14.00">indx: 0x60457a0b7610</text>
<polyline fill="none" stroke="#fee8d6" points="511,-69.5 708,-69.5 "/>
<text text-anchor="middle" x="609.5" y="-54.3" font-family="Times,serif" font-size="14.00">value: fivt</text>
<polyline fill="none" stroke="#fee8d6" points="511,-46.5 708,-46.5 "/>
<text text-anchor="middle" x="609.5" y="-31.3" font-family="Times,serif" font-size="14.00">parent: 0x60457a0bab90</text>
<polyline fill="none" stroke="#fee8d6" points="511,-23.5 708,-23.5 "/>
<text text-anchor="middle" x="557.5" y="-8.3" font-family="Times,serif" font-size="14.00">left: (nil)</text>
<polyline fill="none" stroke="#fee8d6" points="604,-0.5 604,-23.5 "/>
<text text-anchor="middle" x="656" y="-8.3" font-family="Times,serif" font-size="14.00">right: (nil)</text>
</g>
<!-- node0x60457a0bab90&#45;&gt;node0x60457a0b7610 -->
<g id="edge7" class="edge">
<title>node0x60457a0bab90&#45;&gt;node0x60457a0b7610</title>
<path fill="none" stroke="#fee8d6" d="M635.28,-129.37C632.55,-120.68 629.65,-111.48 626.83,-102.52"/>
<polygon fill="#fee8d6" stroke="#fee8d6" points="630.15,-101.4 623.8,-92.92 623.47,-103.51 630.15,-101.4"/>
</g>
<!-- node0x60457a0bab60 -->
<g id="node9" class="node">
<title>node0x60457a0bab60</title>
<path fill="#ec9594" stroke="#fee8d6" d="M738,-0.5C738,-0.5 911,-0.5 911,-0.5 917,-0.5 923,-6.5 923,-12.5 923,-12.5 923,-80.5 923,-80.5 923,-86.5 917,-92.5 911,-92.5 911,-92.5 738,-92.5 738,-92.5 732,-92.5 726,-86.5 726,-80.5 726,-80.5 726,-12.5 726,-12.5 726,-6.5 732,-0.5 738,-0.5"/>
<text text-anchor="middle" x="824.5" y="-77.3" font-family="Times,serif" font-size="14.00">indx: 0x60457a0bab60</text>
<polyline fill="none" stroke="#fee8d6" points="726,-69.5 923,-69.5 "/>
<text text-anchor="middle" x="824.5" y="-54.3" font-family="Times,serif" font-size="14.00">value: fopf</text>
<polyline fill="none" stroke="#fee8d6" points="726,-46.5 923,-46.5 "/>
<text text-anchor="middle" x="824.5" y="-31.3" font-family="Times,serif" font-size="14.00">parent: 0x60457a0bab90</text>
<polyline fill="none" stroke="#fee8d6" points="726,-23.5 923,-23.5 "/>
<text text-anchor="middle" x="772.5" y="-8.3" font-family="Times,serif" font-size="14.00">left: (nil)</text>
<polyline fill="none" stroke="#fee8d6" points="819,-0.5 819,-23.5 "/>
<text text-anchor="middle" x="871" y="-8.3" font-family="Times,serif" font-size="14.00">right: (nil)</text>
</g>
<!-- node0x60457a0bab90&#45;&gt;node0x60457a0bab60 -->
<g id="edge8" class="edge">
<title>node0x60457a0bab90&#45;&gt;node0x60457a0bab60</title>
<path fill="none" stroke="#fee8d6" d="M711.69,-129.37C725.41,-119.41 740.03,-108.8 754.04,-98.63"/>
<polygon fill="#fee8d6" stroke="#fee8d6" points="756.18,-101.41 762.21,-92.7 752.07,-95.74 756.18,-101.41"/>
</g>
</g>
</svg>
