<?xml version="1.0" encoding="UTF-8" standalone="no"?>
<!DOCTYPE svg PUBLIC "-//W3C//DTD SVG 1.1//EN"
 "http://www.w3.org/Graphics/SVG/1.1/DTD/svg11.dtd">
<!-- Generated by graphviz version 2.43.0 (0)
 -->
<!-- Title: Tree Pages: 1 -->
<svg width="2420pt" height="875pt"
 viewBox="0.00 0.00 2419.50 875.00" xmlns="http://www.w3.org/2000/svg" xmlns:xlink="http://www.w3.org/1999/xlink">
<g id="graph0" class="graph" transform="scale(1 1) rotate(0) translate(4 871)">
<title>Tree</title>
<polygon fill="#0f0000" stroke="transparent" points="-4,4 -4,-871 2415.5,-871 2415.5,4 -4,4"/>
<!-- node0x570d256c05f0 -->
<g id="node1" class="node">
<title>node0x570d256c05f0</title>
<path fill="#ec9594" stroke="#fee8d6" d="M1074.5,-774.5C1074.5,-774.5 1404.5,-774.5 1404.5,-774.5 1410.5,-774.5 1416.5,-780.5 1416.5,-786.5 1416.5,-786.5 1416.5,-854.5 1416.5,-854.5 1416.5,-860.5 1410.5,-866.5 1404.5,-866.5 1404.5,-866.5 1074.5,-866.5 1074.5,-866.5 1068.5,-866.5 1062.5,-860.5 1062.5,-854.5 1062.5,-854.5 1062.5,-786.5 1062.5,-786.5 1062.5,-780.5 1068.5,-774.5 1074.5,-774.5"/>
<text text-anchor="middle" x="1239.5" y="-851.3" font-family="Times,serif" font-size="14.00">indx: 0x570d256c05f0</text>
<polyline fill="none" stroke="#fee8d6" points="1062.5,-843.5 1416.5,-843.5 "/>
<text text-anchor="middle" x="1239.5" y="-828.3" font-family="Times,serif" font-size="14.00">value: mipt</text>
<polyline fill="none" stroke="#fee8d6" points="1062.5,-820.5 1416.5,-820.5 "/>
<text text-anchor="middle" x="1239.5" y="-805.3" font-family="Times,serif" font-size="14.00">parent: (nil)</text>
<polyline fill="none" stroke="#fee8d6" points="1062.5,-797.5 1416.5,-797.5 "/>
<text text-anchor="middle" x="1149" y="-782.3" font-family="Times,serif" font-size="14.00">left: 0x570d256c0620</text>
<polyline fill="none" stroke="#fee8d6" points="1235.5,-774.5 1235.5,-797.5 "/>
<text text-anchor="middle" x="1326" y="-782.3" font-family="Times,serif" font-size="14.00">right: 0x570d256c08f0</text>
</g>
<!-- node0x570d256c0620 -->
<g id="node2" class="node">
<title>node0x570d256c0620</title>
<path fill="#ec9594" stroke="#fee8d6" d="M816.5,-645.5C816.5,-645.5 1150.5,-645.5 1150.5,-645.5 1156.5,-645.5 1162.5,-651.5 1162.5,-657.5 1162.5,-657.5 1162.5,-725.5 1162.5,-725.5 1162.5,-731.5 1156.5,-737.5 1150.5,-737.5 1150.5,-737.5 816.5,-737.5 816.5,-737.5 810.5,-737.5 804.5,-731.5 804.5,-725.5 804.5,-725.5 804.5,-657.5 804.5,-657.5 804.5,-651.5 810.5,-645.5 816.5,-645.5"/>
<text text-anchor="middle" x="983.5" y="-722.3" font-family="Times,serif" font-size="14.00">indx: 0x570d256c0620</text>
<polyline fill="none" stroke="#fee8d6" points="804.5,-714.5 1162.5,-714.5 "/>
<text text-anchor="middle" x="983.5" y="-699.3" font-family="Times,serif" font-size="14.00">value: no</text>
<polyline fill="none" stroke="#fee8d6" points="804.5,-691.5 1162.5,-691.5 "/>
<text text-anchor="middle" x="983.5" y="-676.3" font-family="Times,serif" font-size="14.00">parent: 0x570d256c05f0</text>
<polyline fill="none" stroke="#fee8d6" points="804.5,-668.5 1162.5,-668.5 "/>
<text text-anchor="middle" x="891" y="-653.3" font-family="Times,serif" font-size="14.00">left: 0x570d256c0650</text>
<polyline fill="none" stroke="#fee8d6" points="977.5,-645.5 977.5,-668.5 "/>
<text text-anchor="middle" x="1070" y="-653.3" font-family="Times,serif" font-size="14.00">right: 0x570d256c0800</text>
</g>
<!-- node0x570d256c05f0&#45;&gt;node0x570d256c0620 -->
<g id="edge1" class="edge">
<title>node0x570d256c05f0&#45;&gt;node0x570d256c0620</title>
<path fill="none" stroke="#fee8d6" d="M1148.52,-774.37C1127.52,-763.95 1105.07,-752.81 1083.7,-742.21"/>
<polygon fill="#fee8d6" stroke="#fee8d6" points="1085.13,-739.01 1074.61,-737.7 1082.02,-745.28 1085.13,-739.01"/>
</g>
<!-- node0x570d256c08f0 -->
<g id="node17" class="node">
<title>node0x570d256c08f0</title>
<path fill="#ec9594" stroke="#fee8d6" d="M1370,-645.5C1370,-645.5 1703,-645.5 1703,-645.5 1709,-645.5 1715,-651.5 1715,-657.5 1715,-657.5 1715,-725.5 1715,-725.5 1715,-731.5 1709,-737.5 1703,-737.5 1703,-737.5 1370,-737.5 1370,-737.5 1364,-737.5 1358,-731.5 1358,-725.5 1358,-725.5 1358,-657.5 1358,-657.5 1358,-651.5 1364,-645.5 1370,-645.5"/>
<text text-anchor="middle" x="1536.5" y="-722.3" font-family="Times,serif" font-size="14.00">indx: 0x570d256c08f0</text>
<polyline fill="none" stroke="#fee8d6" points="1358,-714.5 1715,-714.5 "/>
<text text-anchor="middle" x="1536.5" y="-699.3" font-family="Times,serif" font-size="14.00">value: huinya</text>
<polyline fill="none" stroke="#fee8d6" points="1358,-691.5 1715,-691.5 "/>
<text text-anchor="middle" x="1536.5" y="-676.3" font-family="Times,serif" font-size="14.00">parent: 0x570d256c05f0</text>
<polyline fill="none" stroke="#fee8d6" points="1358,-668.5 1715,-668.5 "/>
<text text-anchor="middle" x="1444.5" y="-653.3" font-family="Times,serif" font-size="14.00">left: 0x570d256c0920</text>
<polyline fill="none" stroke="#fee8d6" points="1531,-645.5 1531,-668.5 "/>
<text text-anchor="middle" x="1623" y="-653.3" font-family="Times,serif" font-size="14.00">right: 0x570d256c0a10</text>
</g>
<!-- node0x570d256c05f0&#45;&gt;node0x570d256c08f0 -->
<g id="edge16" class="edge">
<title>node0x570d256c05f0&#45;&gt;node0x570d256c08f0</title>
<path fill="none" stroke="#fee8d6" d="M1345.05,-774.37C1369.92,-763.73 1396.55,-752.34 1421.81,-741.54"/>
<polygon fill="#fee8d6" stroke="#fee8d6" points="1423.22,-744.74 1431.04,-737.59 1420.47,-738.31 1423.22,-744.74"/>
</g>
<!-- node0x570d256c0650 -->
<g id="node3" class="node">
<title>node0x570d256c0650</title>
<path fill="#ec9594" stroke="#fee8d6" d="M373.5,-516.5C373.5,-516.5 707.5,-516.5 707.5,-516.5 713.5,-516.5 719.5,-522.5 719.5,-528.5 719.5,-528.5 719.5,-596.5 719.5,-596.5 719.5,-602.5 713.5,-608.5 707.5,-608.5 707.5,-608.5 373.5,-608.5 373.5,-608.5 367.5,-608.5 361.5,-602.5 361.5,-596.5 361.5,-596.5 361.5,-528.5 361.5,-528.5 361.5,-522.5 367.5,-516.5 373.5,-516.5"/>
<text text-anchor="middle" x="540.5" y="-593.3" font-family="Times,serif" font-size="14.00">indx: 0x570d256c0650</text>
<polyline fill="none" stroke="#fee8d6" points="361.5,-585.5 719.5,-585.5 "/>
<text text-anchor="middle" x="540.5" y="-570.3" font-family="Times,serif" font-size="14.00">value: ne</text>
<polyline fill="none" stroke="#fee8d6" points="361.5,-562.5 719.5,-562.5 "/>
<text text-anchor="middle" x="540.5" y="-547.3" font-family="Times,serif" font-size="14.00">parent: 0x570d256c0620</text>
<polyline fill="none" stroke="#fee8d6" points="361.5,-539.5 719.5,-539.5 "/>
<text text-anchor="middle" x="448" y="-524.3" font-family="Times,serif" font-size="14.00">left: 0x570d256c0680</text>
<polyline fill="none" stroke="#fee8d6" points="534.5,-516.5 534.5,-539.5 "/>
<text text-anchor="middle" x="627" y="-524.3" font-family="Times,serif" font-size="14.00">right: 0x570d256c07d0</text>
</g>
<!-- node0x570d256c0620&#45;&gt;node0x570d256c0650 -->
<g id="edge2" class="edge">
<title>node0x570d256c0620&#45;&gt;node0x570d256c0650</title>
<path fill="none" stroke="#fee8d6" d="M826.38,-645.46C787.85,-634.41 746.47,-622.55 707.49,-611.37"/>
<polygon fill="#fee8d6" stroke="#fee8d6" points="708.21,-607.94 697.64,-608.55 706.28,-614.67 708.21,-607.94"/>
</g>
<!-- node0x570d256c0800 -->
<g id="node12" class="node">
<title>node0x570d256c0800</title>
<path fill="#ec9594" stroke="#fee8d6" d="M817.5,-516.5C817.5,-516.5 1149.5,-516.5 1149.5,-516.5 1155.5,-516.5 1161.5,-522.5 1161.5,-528.5 1161.5,-528.5 1161.5,-596.5 1161.5,-596.5 1161.5,-602.5 1155.5,-608.5 1149.5,-608.5 1149.5,-608.5 817.5,-608.5 817.5,-608.5 811.5,-608.5 805.5,-602.5 805.5,-596.5 805.5,-596.5 805.5,-528.5 805.5,-528.5 805.5,-522.5 811.5,-516.5 817.5,-516.5"/>
<text text-anchor="middle" x="983.5" y="-593.3" font-family="Times,serif" font-size="14.00">indx: 0x570d256c0800</text>
<polyline fill="none" stroke="#fee8d6" points="805.5,-585.5 1161.5,-585.5 "/>
<text text-anchor="middle" x="983.5" y="-570.3" font-family="Times,serif" font-size="14.00">value: kk kk kk</text>
<polyline fill="none" stroke="#fee8d6" points="805.5,-562.5 1161.5,-562.5 "/>
<text text-anchor="middle" x="983.5" y="-547.3" font-family="Times,serif" font-size="14.00">parent: 0x570d256c0620</text>
<polyline fill="none" stroke="#fee8d6" points="805.5,-539.5 1161.5,-539.5 "/>
<text text-anchor="middle" x="892" y="-524.3" font-family="Times,serif" font-size="14.00">left: 0x570d256c0830</text>
<polyline fill="none" stroke="#fee8d6" points="978.5,-516.5 978.5,-539.5 "/>
<text text-anchor="middle" x="1070" y="-524.3" font-family="Times,serif" font-size="14.00">right: 0x570d256c08c0</text>
</g>
<!-- node0x570d256c0620&#45;&gt;node0x570d256c0800 -->
<g id="edge11" class="edge">
<title>node0x570d256c0620&#45;&gt;node0x570d256c0800</title>
<path fill="none" stroke="#fee8d6" d="M983.5,-645.37C983.5,-636.86 983.5,-627.87 983.5,-619.09"/>
<polygon fill="#fee8d6" stroke="#fee8d6" points="987,-618.92 983.5,-608.92 980,-618.92 987,-618.92"/>
</g>
<!-- node0x570d256c0680 -->
<g id="node4" class="node">
<title>node0x570d256c0680</title>
<path fill="#ec9594" stroke="#fee8d6" d="M79,-387.5C79,-387.5 412,-387.5 412,-387.5 418,-387.5 424,-393.5 424,-399.5 424,-399.5 424,-467.5 424,-467.5 424,-473.5 418,-479.5 412,-479.5 412,-479.5 79,-479.5 79,-479.5 73,-479.5 67,-473.5 67,-467.5 67,-467.5 67,-399.5 67,-399.5 67,-393.5 73,-387.5 79,-387.5"/>
<text text-anchor="middle" x="245.5" y="-464.3" font-family="Times,serif" font-size="14.00">indx: 0x570d256c0680</text>
<polyline fill="none" stroke="#fee8d6" points="67,-456.5 424,-456.5 "/>
<text text-anchor="middle" x="245.5" y="-441.3" font-family="Times,serif" font-size="14.00">value: black</text>
<polyline fill="none" stroke="#fee8d6" points="67,-433.5 424,-433.5 "/>
<text text-anchor="middle" x="245.5" y="-418.3" font-family="Times,serif" font-size="14.00">parent: 0x570d256c0650</text>
<polyline fill="none" stroke="#fee8d6" points="67,-410.5 424,-410.5 "/>
<text text-anchor="middle" x="153.5" y="-395.3" font-family="Times,serif" font-size="14.00">left: 0x570d256c06b0</text>
<polyline fill="none" stroke="#fee8d6" points="240,-387.5 240,-410.5 "/>
<text text-anchor="middle" x="332" y="-395.3" font-family="Times,serif" font-size="14.00">right: 0x570d256c06e0</text>
</g>
<!-- node0x570d256c0650&#45;&gt;node0x570d256c0680 -->
<g id="edge3" class="edge">
<title>node0x570d256c0650&#45;&gt;node0x570d256c0680</title>
<path fill="none" stroke="#fee8d6" d="M435.66,-516.37C411.14,-505.81 384.89,-494.51 359.98,-483.78"/>
<polygon fill="#fee8d6" stroke="#fee8d6" points="361.06,-480.44 350.5,-479.7 358.3,-486.87 361.06,-480.44"/>
</g>
<!-- node0x570d256c07d0 -->
<g id="node11" class="node">
<title>node0x570d256c07d0</title>
<path fill="#ec9594" stroke="#fee8d6" d="M454,-387.5C454,-387.5 627,-387.5 627,-387.5 633,-387.5 639,-393.5 639,-399.5 639,-399.5 639,-467.5 639,-467.5 639,-473.5 633,-479.5 627,-479.5 627,-479.5 454,-479.5 454,-479.5 448,-479.5 442,-473.5 442,-467.5 442,-467.5 442,-399.5 442,-399.5 442,-393.5 448,-387.5 454,-387.5"/>
<text text-anchor="middle" x="540.5" y="-464.3" font-family="Times,serif" font-size="14.00">indx: 0x570d256c07d0</text>
<polyline fill="none" stroke="#fee8d6" points="442,-456.5 639,-456.5 "/>
<text text-anchor="middle" x="540.5" y="-441.3" font-family="Times,serif" font-size="14.00">value: ksukha</text>
<polyline fill="none" stroke="#fee8d6" points="442,-433.5 639,-433.5 "/>
<text text-anchor="middle" x="540.5" y="-418.3" font-family="Times,serif" font-size="14.00">parent: 0x570d256c0650</text>
<polyline fill="none" stroke="#fee8d6" points="442,-410.5 639,-410.5 "/>
<text text-anchor="middle" x="488.5" y="-395.3" font-family="Times,serif" font-size="14.00">left: (nil)</text>
<polyline fill="none" stroke="#fee8d6" points="535,-387.5 535,-410.5 "/>
<text text-anchor="middle" x="587" y="-395.3" font-family="Times,serif" font-size="14.00">right: (nil)</text>
</g>
<!-- node0x570d256c0650&#45;&gt;node0x570d256c07d0 -->
<g id="edge10" class="edge">
<title>node0x570d256c0650&#45;&gt;node0x570d256c07d0</title>
<path fill="none" stroke="#fee8d6" d="M540.5,-516.37C540.5,-507.86 540.5,-498.87 540.5,-490.09"/>
<polygon fill="#fee8d6" stroke="#fee8d6" points="544,-489.92 540.5,-479.92 537,-489.92 544,-489.92"/>
</g>
<!-- node0x570d256c06b0 -->
<g id="node5" class="node">
<title>node0x570d256c06b0</title>
<path fill="#ec9594" stroke="#fee8d6" d="M12,-258.5C12,-258.5 185,-258.5 185,-258.5 191,-258.5 197,-264.5 197,-270.5 197,-270.5 197,-338.5 197,-338.5 197,-344.5 191,-350.5 185,-350.5 185,-350.5 12,-350.5 12,-350.5 6,-350.5 0,-344.5 0,-338.5 0,-338.5 0,-270.5 0,-270.5 0,-264.5 6,-258.5 12,-258.5"/>
<text text-anchor="middle" x="98.5" y="-335.3" font-family="Times,serif" font-size="14.00">indx: 0x570d256c06b0</text>
<polyline fill="none" stroke="#fee8d6" points="0,-327.5 197,-327.5 "/>
<text text-anchor="middle" x="98.5" y="-312.3" font-family="Times,serif" font-size="14.00">value: hz</text>
<polyline fill="none" stroke="#fee8d6" points="0,-304.5 197,-304.5 "/>
<text text-anchor="middle" x="98.5" y="-289.3" font-family="Times,serif" font-size="14.00">parent: 0x570d256c0680</text>
<polyline fill="none" stroke="#fee8d6" points="0,-281.5 197,-281.5 "/>
<text text-anchor="middle" x="46.5" y="-266.3" font-family="Times,serif" font-size="14.00">left: (nil)</text>
<polyline fill="none" stroke="#fee8d6" points="93,-258.5 93,-281.5 "/>
<text text-anchor="middle" x="145" y="-266.3" font-family="Times,serif" font-size="14.00">right: (nil)</text>
</g>
<!-- node0x570d256c0680&#45;&gt;node0x570d256c06b0 -->
<g id="edge4" class="edge">
<title>node0x570d256c0680&#45;&gt;node0x570d256c06b0</title>
<path fill="none" stroke="#fee8d6" d="M193.26,-387.37C182.13,-377.75 170.29,-367.52 158.88,-357.67"/>
<polygon fill="#fee8d6" stroke="#fee8d6" points="160.92,-354.8 151.07,-350.92 156.35,-360.1 160.92,-354.8"/>
</g>
<!-- node0x570d256c06e0 -->
<g id="node6" class="node">
<title>node0x570d256c06e0</title>
<path fill="#ec9594" stroke="#fee8d6" d="M227,-258.5C227,-258.5 560,-258.5 560,-258.5 566,-258.5 572,-264.5 572,-270.5 572,-270.5 572,-338.5 572,-338.5 572,-344.5 566,-350.5 560,-350.5 560,-350.5 227,-350.5 227,-350.5 221,-350.5 215,-344.5 215,-338.5 215,-338.5 215,-270.5 215,-270.5 215,-264.5 221,-258.5 227,-258.5"/>
<text text-anchor="middle" x="393.5" y="-335.3" font-family="Times,serif" font-size="14.00">indx: 0x570d256c06e0</text>
<polyline fill="none" stroke="#fee8d6" points="215,-327.5 572,-327.5 "/>
<text text-anchor="middle" x="393.5" y="-312.3" font-family="Times,serif" font-size="14.00">value: africa</text>
<polyline fill="none" stroke="#fee8d6" points="215,-304.5 572,-304.5 "/>
<text text-anchor="middle" x="393.5" y="-289.3" font-family="Times,serif" font-size="14.00">parent: 0x570d256c0680</text>
<polyline fill="none" stroke="#fee8d6" points="215,-281.5 572,-281.5 "/>
<text text-anchor="middle" x="301.5" y="-266.3" font-family="Times,serif" font-size="14.00">left: 0x570d256c0710</text>
<polyline fill="none" stroke="#fee8d6" points="388,-258.5 388,-281.5 "/>
<text text-anchor="middle" x="480" y="-266.3" font-family="Times,serif" font-size="14.00">right: 0x570d256c07a0</text>
</g>
<!-- node0x570d256c0680&#45;&gt;node0x570d256c06e0 -->
<g id="edge5" class="edge">
<title>node0x570d256c0680&#45;&gt;node0x570d256c06e0</title>
<path fill="none" stroke="#fee8d6" d="M298.1,-387.37C309.3,-377.75 321.22,-367.52 332.71,-357.67"/>
<polygon fill="#fee8d6" stroke="#fee8d6" points="335.27,-360.08 340.57,-350.92 330.71,-354.77 335.27,-360.08"/>
</g>
<!-- node0x570d256c0710 -->
<g id="node7" class="node">
<title>node0x570d256c0710</title>
<path fill="#ec9594" stroke="#fee8d6" d="M79.5,-129.5C79.5,-129.5 413.5,-129.5 413.5,-129.5 419.5,-129.5 425.5,-135.5 425.5,-141.5 425.5,-141.5 425.5,-209.5 425.5,-209.5 425.5,-215.5 419.5,-221.5 413.5,-221.5 413.5,-221.5 79.5,-221.5 79.5,-221.5 73.5,-221.5 67.5,-215.5 67.5,-209.5 67.5,-209.5 67.5,-141.5 67.5,-141.5 67.5,-135.5 73.5,-129.5 79.5,-129.5"/>
<text text-anchor="middle" x="246.5" y="-206.3" font-family="Times,serif" font-size="14.00">indx: 0x570d256c0710</text>
<polyline fill="none" stroke="#fee8d6" points="67.5,-198.5 425.5,-198.5 "/>
<text text-anchor="middle" x="246.5" y="-183.3" font-family="Times,serif" font-size="14.00">value: nechelovek</text>
<polyline fill="none" stroke="#fee8d6" points="67.5,-175.5 425.5,-175.5 "/>
<text text-anchor="middle" x="246.5" y="-160.3" font-family="Times,serif" font-size="14.00">parent: 0x570d256c06e0</text>
<polyline fill="none" stroke="#fee8d6" points="67.5,-152.5 425.5,-152.5 "/>
<text text-anchor="middle" x="154" y="-137.3" font-family="Times,serif" font-size="14.00">left: 0x570d256c0740</text>
<polyline fill="none" stroke="#fee8d6" points="240.5,-129.5 240.5,-152.5 "/>
<text text-anchor="middle" x="333" y="-137.3" font-family="Times,serif" font-size="14.00">right: 0x570d256c0770</text>
</g>
<!-- node0x570d256c06e0&#45;&gt;node0x570d256c0710 -->
<g id="edge6" class="edge">
<title>node0x570d256c06e0&#45;&gt;node0x570d256c0710</title>
<path fill="none" stroke="#fee8d6" d="M341.26,-258.37C330.13,-248.75 318.29,-238.52 306.88,-228.67"/>
<polygon fill="#fee8d6" stroke="#fee8d6" points="308.92,-225.8 299.07,-221.92 304.35,-231.1 308.92,-225.8"/>
</g>
<!-- node0x570d256c07a0 -->
<g id="node10" class="node">
<title>node0x570d256c07a0</title>
<path fill="#ec9594" stroke="#fee8d6" d="M455.5,-129.5C455.5,-129.5 627.5,-129.5 627.5,-129.5 633.5,-129.5 639.5,-135.5 639.5,-141.5 639.5,-141.5 639.5,-209.5 639.5,-209.5 639.5,-215.5 633.5,-221.5 627.5,-221.5 627.5,-221.5 455.5,-221.5 455.5,-221.5 449.5,-221.5 443.5,-215.5 443.5,-209.5 443.5,-209.5 443.5,-141.5 443.5,-141.5 443.5,-135.5 449.5,-129.5 455.5,-129.5"/>
<text text-anchor="middle" x="541.5" y="-206.3" font-family="Times,serif" font-size="14.00">indx: 0x570d256c07a0</text>
<polyline fill="none" stroke="#fee8d6" points="443.5,-198.5 639.5,-198.5 "/>
<text text-anchor="middle" x="541.5" y="-183.3" font-family="Times,serif" font-size="14.00">value: nigger</text>
<polyline fill="none" stroke="#fee8d6" points="443.5,-175.5 639.5,-175.5 "/>
<text text-anchor="middle" x="541.5" y="-160.3" font-family="Times,serif" font-size="14.00">parent: 0x570d256c06e0</text>
<polyline fill="none" stroke="#fee8d6" points="443.5,-152.5 639.5,-152.5 "/>
<text text-anchor="middle" x="489.5" y="-137.3" font-family="Times,serif" font-size="14.00">left: (nil)</text>
<polyline fill="none" stroke="#fee8d6" points="535.5,-129.5 535.5,-152.5 "/>
<text text-anchor="middle" x="587.5" y="-137.3" font-family="Times,serif" font-size="14.00">right: (nil)</text>
</g>
<!-- node0x570d256c06e0&#45;&gt;node0x570d256c07a0 -->
<g id="edge9" class="edge">
<title>node0x570d256c06e0&#45;&gt;node0x570d256c07a0</title>
<path fill="none" stroke="#fee8d6" d="M446.1,-258.37C457.3,-248.75 469.22,-238.52 480.71,-228.67"/>
<polygon fill="#fee8d6" stroke="#fee8d6" points="483.27,-231.08 488.57,-221.92 478.71,-225.77 483.27,-231.08"/>
</g>
<!-- node0x570d256c0740 -->
<g id="node8" class="node">
<title>node0x570d256c0740</title>
<path fill="#ec9594" stroke="#fee8d6" d="M53,-0.5C53,-0.5 226,-0.5 226,-0.5 232,-0.5 238,-6.5 238,-12.5 238,-12.5 238,-80.5 238,-80.5 238,-86.5 232,-92.5 226,-92.5 226,-92.5 53,-92.5 53,-92.5 47,-92.5 41,-86.5 41,-80.5 41,-80.5 41,-12.5 41,-12.5 41,-6.5 47,-0.5 53,-0.5"/>
<text text-anchor="middle" x="139.5" y="-77.3" font-family="Times,serif" font-size="14.00">indx: 0x570d256c0740</text>
<polyline fill="none" stroke="#fee8d6" points="41,-69.5 238,-69.5 "/>
<text text-anchor="middle" x="139.5" y="-54.3" font-family="Times,serif" font-size="14.00">value: rinat</text>
<polyline fill="none" stroke="#fee8d6" points="41,-46.5 238,-46.5 "/>
<text text-anchor="middle" x="139.5" y="-31.3" font-family="Times,serif" font-size="14.00">parent: 0x570d256c0710</text>
<polyline fill="none" stroke="#fee8d6" points="41,-23.5 238,-23.5 "/>
<text text-anchor="middle" x="87.5" y="-8.3" font-family="Times,serif" font-size="14.00">left: (nil)</text>
<polyline fill="none" stroke="#fee8d6" points="134,-0.5 134,-23.5 "/>
<text text-anchor="middle" x="186" y="-8.3" font-family="Times,serif" font-size="14.00">right: (nil)</text>
</g>
<!-- node0x570d256c0710&#45;&gt;node0x570d256c0740 -->
<g id="edge7" class="edge">
<title>node0x570d256c0710&#45;&gt;node0x570d256c0740</title>
<path fill="none" stroke="#fee8d6" d="M208.47,-129.37C200.68,-120.12 192.42,-110.31 184.41,-100.8"/>
<polygon fill="#fee8d6" stroke="#fee8d6" points="186.88,-98.31 177.76,-92.92 181.53,-102.82 186.88,-98.31"/>
</g>
<!-- node0x570d256c0770 -->
<g id="node9" class="node">
<title>node0x570d256c0770</title>
<path fill="#ec9594" stroke="#fee8d6" d="M268,-0.5C268,-0.5 441,-0.5 441,-0.5 447,-0.5 453,-6.5 453,-12.5 453,-12.5 453,-80.5 453,-80.5 453,-86.5 447,-92.5 441,-92.5 441,-92.5 268,-92.5 268,-92.5 262,-92.5 256,-86.5 256,-80.5 256,-80.5 256,-12.5 256,-12.5 256,-6.5 262,-0.5 268,-0.5"/>
<text text-anchor="middle" x="354.5" y="-77.3" font-family="Times,serif" font-size="14.00">indx: 0x570d256c0770</text>
<polyline fill="none" stroke="#fee8d6" points="256,-69.5 453,-69.5 "/>
<text text-anchor="middle" x="354.5" y="-54.3" font-family="Times,serif" font-size="14.00">value: night</text>
<polyline fill="none" stroke="#fee8d6" points="256,-46.5 453,-46.5 "/>
<text text-anchor="middle" x="354.5" y="-31.3" font-family="Times,serif" font-size="14.00">parent: 0x570d256c0710</text>
<polyline fill="none" stroke="#fee8d6" points="256,-23.5 453,-23.5 "/>
<text text-anchor="middle" x="302.5" y="-8.3" font-family="Times,serif" font-size="14.00">left: (nil)</text>
<polyline fill="none" stroke="#fee8d6" points="349,-0.5 349,-23.5 "/>
<text text-anchor="middle" x="401" y="-8.3" font-family="Times,serif" font-size="14.00">right: (nil)</text>
</g>
<!-- node0x570d256c0710&#45;&gt;node0x570d256c0770 -->
<g id="edge8" class="edge">
<title>node0x570d256c0710&#45;&gt;node0x570d256c0770</title>
<path fill="none" stroke="#fee8d6" d="M284.88,-129.37C292.74,-120.12 301.09,-110.31 309.17,-100.8"/>
<polygon fill="#fee8d6" stroke="#fee8d6" points="312.07,-102.8 315.88,-92.92 306.73,-98.27 312.07,-102.8"/>
</g>
<!-- node0x570d256c0830 -->
<g id="node13" class="node">
<title>node0x570d256c0830</title>
<path fill="#ec9594" stroke="#fee8d6" d="M669.5,-387.5C669.5,-387.5 1003.5,-387.5 1003.5,-387.5 1009.5,-387.5 1015.5,-393.5 1015.5,-399.5 1015.5,-399.5 1015.5,-467.5 1015.5,-467.5 1015.5,-473.5 1009.5,-479.5 1003.5,-479.5 1003.5,-479.5 669.5,-479.5 669.5,-479.5 663.5,-479.5 657.5,-473.5 657.5,-467.5 657.5,-467.5 657.5,-399.5 657.5,-399.5 657.5,-393.5 663.5,-387.5 669.5,-387.5"/>
<text text-anchor="middle" x="836.5" y="-464.3" font-family="Times,serif" font-size="14.00">indx: 0x570d256c0830</text>
<polyline fill="none" stroke="#fee8d6" points="657.5,-456.5 1015.5,-456.5 "/>
<text text-anchor="middle" x="836.5" y="-441.3" font-family="Times,serif" font-size="14.00">value: ppp</text>
<polyline fill="none" stroke="#fee8d6" points="657.5,-433.5 1015.5,-433.5 "/>
<text text-anchor="middle" x="836.5" y="-418.3" font-family="Times,serif" font-size="14.00">parent: 0x570d256c0800</text>
<polyline fill="none" stroke="#fee8d6" points="657.5,-410.5 1015.5,-410.5 "/>
<text text-anchor="middle" x="744" y="-395.3" font-family="Times,serif" font-size="14.00">left: 0x570d256c0860</text>
<polyline fill="none" stroke="#fee8d6" points="830.5,-387.5 830.5,-410.5 "/>
<text text-anchor="middle" x="923" y="-395.3" font-family="Times,serif" font-size="14.00">right: 0x570d256c0890</text>
</g>
<!-- node0x570d256c0800&#45;&gt;node0x570d256c0830 -->
<g id="edge12" class="edge">
<title>node0x570d256c0800&#45;&gt;node0x570d256c0830</title>
<path fill="none" stroke="#fee8d6" d="M931.26,-516.37C920.13,-506.75 908.29,-496.52 896.88,-486.67"/>
<polygon fill="#fee8d6" stroke="#fee8d6" points="898.92,-483.8 889.07,-479.92 894.35,-489.1 898.92,-483.8"/>
</g>
<!-- node0x570d256c08c0 -->
<g id="node16" class="node">
<title>node0x570d256c08c0</title>
<path fill="#ec9594" stroke="#fee8d6" d="M1046,-387.5C1046,-387.5 1219,-387.5 1219,-387.5 1225,-387.5 1231,-393.5 1231,-399.5 1231,-399.5 1231,-467.5 1231,-467.5 1231,-473.5 1225,-479.5 1219,-479.5 1219,-479.5 1046,-479.5 1046,-479.5 1040,-479.5 1034,-473.5 1034,-467.5 1034,-467.5 1034,-399.5 1034,-399.5 1034,-393.5 1040,-387.5 1046,-387.5"/>
<text text-anchor="middle" x="1132.5" y="-464.3" font-family="Times,serif" font-size="14.00">indx: 0x570d256c08c0</text>
<polyline fill="none" stroke="#fee8d6" points="1034,-456.5 1231,-456.5 "/>
<text text-anchor="middle" x="1132.5" y="-441.3" font-family="Times,serif" font-size="14.00">value: ya hz</text>
<polyline fill="none" stroke="#fee8d6" points="1034,-433.5 1231,-433.5 "/>
<text text-anchor="middle" x="1132.5" y="-418.3" font-family="Times,serif" font-size="14.00">parent: 0x570d256c0800</text>
<polyline fill="none" stroke="#fee8d6" points="1034,-410.5 1231,-410.5 "/>
<text text-anchor="middle" x="1080.5" y="-395.3" font-family="Times,serif" font-size="14.00">left: (nil)</text>
<polyline fill="none" stroke="#fee8d6" points="1127,-387.5 1127,-410.5 "/>
<text text-anchor="middle" x="1179" y="-395.3" font-family="Times,serif" font-size="14.00">right: (nil)</text>
</g>
<!-- node0x570d256c0800&#45;&gt;node0x570d256c08c0 -->
<g id="edge15" class="edge">
<title>node0x570d256c0800&#45;&gt;node0x570d256c08c0</title>
<path fill="none" stroke="#fee8d6" d="M1036.45,-516.37C1047.91,-506.6 1060.11,-496.2 1071.84,-486.2"/>
<polygon fill="#fee8d6" stroke="#fee8d6" points="1074.13,-488.85 1079.47,-479.7 1069.59,-483.52 1074.13,-488.85"/>
</g>
<!-- node0x570d256c0860 -->
<g id="node14" class="node">
<title>node0x570d256c0860</title>
<path fill="#ec9594" stroke="#fee8d6" d="M676,-258.5C676,-258.5 849,-258.5 849,-258.5 855,-258.5 861,-264.5 861,-270.5 861,-270.5 861,-338.5 861,-338.5 861,-344.5 855,-350.5 849,-350.5 849,-350.5 676,-350.5 676,-350.5 670,-350.5 664,-344.5 664,-338.5 664,-338.5 664,-270.5 664,-270.5 664,-264.5 670,-258.5 676,-258.5"/>
<text text-anchor="middle" x="762.5" y="-335.3" font-family="Times,serif" font-size="14.00">indx: 0x570d256c0860</text>
<polyline fill="none" stroke="#fee8d6" points="664,-327.5 861,-327.5 "/>
<text text-anchor="middle" x="762.5" y="-312.3" font-family="Times,serif" font-size="14.00">value: yes</text>
<polyline fill="none" stroke="#fee8d6" points="664,-304.5 861,-304.5 "/>
<text text-anchor="middle" x="762.5" y="-289.3" font-family="Times,serif" font-size="14.00">parent: 0x570d256c0830</text>
<polyline fill="none" stroke="#fee8d6" points="664,-281.5 861,-281.5 "/>
<text text-anchor="middle" x="710.5" y="-266.3" font-family="Times,serif" font-size="14.00">left: (nil)</text>
<polyline fill="none" stroke="#fee8d6" points="757,-258.5 757,-281.5 "/>
<text text-anchor="middle" x="809" y="-266.3" font-family="Times,serif" font-size="14.00">right: (nil)</text>
</g>
<!-- node0x570d256c0830&#45;&gt;node0x570d256c0860 -->
<g id="edge13" class="edge">
<title>node0x570d256c0830&#45;&gt;node0x570d256c0860</title>
<path fill="none" stroke="#fee8d6" d="M810.2,-387.37C804.98,-378.4 799.44,-368.89 794.06,-359.66"/>
<polygon fill="#fee8d6" stroke="#fee8d6" points="797.02,-357.79 788.96,-350.92 790.97,-361.32 797.02,-357.79"/>
</g>
<!-- node0x570d256c0890 -->
<g id="node15" class="node">
<title>node0x570d256c0890</title>
<path fill="#ec9594" stroke="#fee8d6" d="M891,-258.5C891,-258.5 1064,-258.5 1064,-258.5 1070,-258.5 1076,-264.5 1076,-270.5 1076,-270.5 1076,-338.5 1076,-338.5 1076,-344.5 1070,-350.5 1064,-350.5 1064,-350.5 891,-350.5 891,-350.5 885,-350.5 879,-344.5 879,-338.5 879,-338.5 879,-270.5 879,-270.5 879,-264.5 885,-258.5 891,-258.5"/>
<text text-anchor="middle" x="977.5" y="-335.3" font-family="Times,serif" font-size="14.00">indx: 0x570d256c0890</text>
<polyline fill="none" stroke="#fee8d6" points="879,-327.5 1076,-327.5 "/>
<text text-anchor="middle" x="977.5" y="-312.3" font-family="Times,serif" font-size="14.00">value: ll</text>
<polyline fill="none" stroke="#fee8d6" points="879,-304.5 1076,-304.5 "/>
<text text-anchor="middle" x="977.5" y="-289.3" font-family="Times,serif" font-size="14.00">parent: 0x570d256c0830</text>
<polyline fill="none" stroke="#fee8d6" points="879,-281.5 1076,-281.5 "/>
<text text-anchor="middle" x="925.5" y="-266.3" font-family="Times,serif" font-size="14.00">left: (nil)</text>
<polyline fill="none" stroke="#fee8d6" points="972,-258.5 972,-281.5 "/>
<text text-anchor="middle" x="1024" y="-266.3" font-family="Times,serif" font-size="14.00">right: (nil)</text>
</g>
<!-- node0x570d256c0830&#45;&gt;node0x570d256c0890 -->
<g id="edge14" class="edge">
<title>node0x570d256c0830&#45;&gt;node0x570d256c0890</title>
<path fill="none" stroke="#fee8d6" d="M886.61,-387.37C897.28,-377.75 908.64,-367.52 919.58,-357.67"/>
<polygon fill="#fee8d6" stroke="#fee8d6" points="921.99,-360.21 927.08,-350.92 917.31,-355.01 921.99,-360.21"/>
</g>
<!-- node0x570d256c0920 -->
<g id="node18" class="node">
<title>node0x570d256c0920</title>
<path fill="#ec9594" stroke="#fee8d6" d="M1370,-516.5C1370,-516.5 1703,-516.5 1703,-516.5 1709,-516.5 1715,-522.5 1715,-528.5 1715,-528.5 1715,-596.5 1715,-596.5 1715,-602.5 1709,-608.5 1703,-608.5 1703,-608.5 1370,-608.5 1370,-608.5 1364,-608.5 1358,-602.5 1358,-596.5 1358,-596.5 1358,-528.5 1358,-528.5 1358,-522.5 1364,-516.5 1370,-516.5"/>
<text text-anchor="middle" x="1536.5" y="-593.3" font-family="Times,serif" font-size="14.00">indx: 0x570d256c0920</text>
<polyline fill="none" stroke="#fee8d6" points="1358,-585.5 1715,-585.5 "/>
<text text-anchor="middle" x="1536.5" y="-570.3" font-family="Times,serif" font-size="14.00">value: no</text>
<polyline fill="none" stroke="#fee8d6" points="1358,-562.5 1715,-562.5 "/>
<text text-anchor="middle" x="1536.5" y="-547.3" font-family="Times,serif" font-size="14.00">parent: 0x570d256c08f0</text>
<polyline fill="none" stroke="#fee8d6" points="1358,-539.5 1715,-539.5 "/>
<text text-anchor="middle" x="1444.5" y="-524.3" font-family="Times,serif" font-size="14.00">left: 0x570d256c0950</text>
<polyline fill="none" stroke="#fee8d6" points="1531,-516.5 1531,-539.5 "/>
<text text-anchor="middle" x="1623" y="-524.3" font-family="Times,serif" font-size="14.00">right: 0x570d256c09e0</text>
</g>
<!-- node0x570d256c08f0&#45;&gt;node0x570d256c0920 -->
<g id="edge17" class="edge">
<title>node0x570d256c08f0&#45;&gt;node0x570d256c0920</title>
<path fill="none" stroke="#fee8d6" d="M1536.5,-645.37C1536.5,-636.86 1536.5,-627.87 1536.5,-619.09"/>
<polygon fill="#fee8d6" stroke="#fee8d6" points="1540,-618.92 1536.5,-608.92 1533,-618.92 1540,-618.92"/>
</g>
<!-- node0x570d256c0a10 -->
<g id="node23" class="node">
<title>node0x570d256c0a10</title>
<path fill="#ec9594" stroke="#fee8d6" d="M1853,-516.5C1853,-516.5 2186,-516.5 2186,-516.5 2192,-516.5 2198,-522.5 2198,-528.5 2198,-528.5 2198,-596.5 2198,-596.5 2198,-602.5 2192,-608.5 2186,-608.5 2186,-608.5 1853,-608.5 1853,-608.5 1847,-608.5 1841,-602.5 1841,-596.5 1841,-596.5 1841,-528.5 1841,-528.5 1841,-522.5 1847,-516.5 1853,-516.5"/>
<text text-anchor="middle" x="2019.5" y="-593.3" font-family="Times,serif" font-size="14.00">indx: 0x570d256c0a10</text>
<polyline fill="none" stroke="#fee8d6" points="1841,-585.5 2198,-585.5 "/>
<text text-anchor="middle" x="2019.5" y="-570.3" font-family="Times,serif" font-size="14.00">value: proga</text>
<polyline fill="none" stroke="#fee8d6" points="1841,-562.5 2198,-562.5 "/>
<text text-anchor="middle" x="2019.5" y="-547.3" font-family="Times,serif" font-size="14.00">parent: 0x570d256c08f0</text>
<polyline fill="none" stroke="#fee8d6" points="1841,-539.5 2198,-539.5 "/>
<text text-anchor="middle" x="1927.5" y="-524.3" font-family="Times,serif" font-size="14.00">left: 0x570d256c0a40</text>
<polyline fill="none" stroke="#fee8d6" points="2014,-516.5 2014,-539.5 "/>
<text text-anchor="middle" x="2106" y="-524.3" font-family="Times,serif" font-size="14.00">right: 0x570d256c0ad0</text>
</g>
<!-- node0x570d256c08f0&#45;&gt;node0x570d256c0a10 -->
<g id="edge22" class="edge">
<title>node0x570d256c08f0&#45;&gt;node0x570d256c0a10</title>
<path fill="none" stroke="#fee8d6" d="M1707.81,-645.46C1750.09,-634.34 1795.51,-622.4 1838.24,-611.16"/>
<polygon fill="#fee8d6" stroke="#fee8d6" points="1839.4,-614.48 1848.18,-608.55 1837.62,-607.71 1839.4,-614.48"/>
</g>
<!-- node0x570d256c0950 -->
<g id="node19" class="node">
<title>node0x570d256c0950</title>
<path fill="#ec9594" stroke="#fee8d6" d="M1261.5,-387.5C1261.5,-387.5 1595.5,-387.5 1595.5,-387.5 1601.5,-387.5 1607.5,-393.5 1607.5,-399.5 1607.5,-399.5 1607.5,-467.5 1607.5,-467.5 1607.5,-473.5 1601.5,-479.5 1595.5,-479.5 1595.5,-479.5 1261.5,-479.5 1261.5,-479.5 1255.5,-479.5 1249.5,-473.5 1249.5,-467.5 1249.5,-467.5 1249.5,-399.5 1249.5,-399.5 1249.5,-393.5 1255.5,-387.5 1261.5,-387.5"/>
<text text-anchor="middle" x="1428.5" y="-464.3" font-family="Times,serif" font-size="14.00">indx: 0x570d256c0950</text>
<polyline fill="none" stroke="#fee8d6" points="1249.5,-456.5 1607.5,-456.5 "/>
<text text-anchor="middle" x="1428.5" y="-441.3" font-family="Times,serif" font-size="14.00">value: lolol</text>
<polyline fill="none" stroke="#fee8d6" points="1249.5,-433.5 1607.5,-433.5 "/>
<text text-anchor="middle" x="1428.5" y="-418.3" font-family="Times,serif" font-size="14.00">parent: 0x570d256c0920</text>
<polyline fill="none" stroke="#fee8d6" points="1249.5,-410.5 1607.5,-410.5 "/>
<text text-anchor="middle" x="1336" y="-395.3" font-family="Times,serif" font-size="14.00">left: 0x570d256c0980</text>
<polyline fill="none" stroke="#fee8d6" points="1422.5,-387.5 1422.5,-410.5 "/>
<text text-anchor="middle" x="1515" y="-395.3" font-family="Times,serif" font-size="14.00">right: 0x570d256c09b0</text>
</g>
<!-- node0x570d256c0920&#45;&gt;node0x570d256c0950 -->
<g id="edge18" class="edge">
<title>node0x570d256c0920&#45;&gt;node0x570d256c0950</title>
<path fill="none" stroke="#fee8d6" d="M1498.12,-516.37C1490.26,-507.12 1481.91,-497.31 1473.83,-487.8"/>
<polygon fill="#fee8d6" stroke="#fee8d6" points="1476.27,-485.27 1467.12,-479.92 1470.93,-489.8 1476.27,-485.27"/>
</g>
<!-- node0x570d256c09e0 -->
<g id="node22" class="node">
<title>node0x570d256c09e0</title>
<path fill="#ec9594" stroke="#fee8d6" d="M1638,-387.5C1638,-387.5 1811,-387.5 1811,-387.5 1817,-387.5 1823,-393.5 1823,-399.5 1823,-399.5 1823,-467.5 1823,-467.5 1823,-473.5 1817,-479.5 1811,-479.5 1811,-479.5 1638,-479.5 1638,-479.5 1632,-479.5 1626,-473.5 1626,-467.5 1626,-467.5 1626,-399.5 1626,-399.5 1626,-393.5 1632,-387.5 1638,-387.5"/>
<text text-anchor="middle" x="1724.5" y="-464.3" font-family="Times,serif" font-size="14.00">indx: 0x570d256c09e0</text>
<polyline fill="none" stroke="#fee8d6" points="1626,-456.5 1823,-456.5 "/>
<text text-anchor="middle" x="1724.5" y="-441.3" font-family="Times,serif" font-size="14.00">value: yes</text>
<polyline fill="none" stroke="#fee8d6" points="1626,-433.5 1823,-433.5 "/>
<text text-anchor="middle" x="1724.5" y="-418.3" font-family="Times,serif" font-size="14.00">parent: 0x570d256c0920</text>
<polyline fill="none" stroke="#fee8d6" points="1626,-410.5 1823,-410.5 "/>
<text text-anchor="middle" x="1672.5" y="-395.3" font-family="Times,serif" font-size="14.00">left: (nil)</text>
<polyline fill="none" stroke="#fee8d6" points="1719,-387.5 1719,-410.5 "/>
<text text-anchor="middle" x="1771" y="-395.3" font-family="Times,serif" font-size="14.00">right: (nil)</text>
</g>
<!-- node0x570d256c0920&#45;&gt;node0x570d256c09e0 -->
<g id="edge21" class="edge">
<title>node0x570d256c0920&#45;&gt;node0x570d256c09e0</title>
<path fill="none" stroke="#fee8d6" d="M1603.31,-516.37C1618.18,-506.32 1634.05,-495.6 1649.23,-485.35"/>
<polygon fill="#fee8d6" stroke="#fee8d6" points="1651.26,-488.2 1657.59,-479.7 1647.34,-482.4 1651.26,-488.2"/>
</g>
<!-- node0x570d256c0980 -->
<g id="node20" class="node">
<title>node0x570d256c0980</title>
<path fill="#ec9594" stroke="#fee8d6" d="M1275,-258.5C1275,-258.5 1448,-258.5 1448,-258.5 1454,-258.5 1460,-264.5 1460,-270.5 1460,-270.5 1460,-338.5 1460,-338.5 1460,-344.5 1454,-350.5 1448,-350.5 1448,-350.5 1275,-350.5 1275,-350.5 1269,-350.5 1263,-344.5 1263,-338.5 1263,-338.5 1263,-270.5 1263,-270.5 1263,-264.5 1269,-258.5 1275,-258.5"/>
<text text-anchor="middle" x="1361.5" y="-335.3" font-family="Times,serif" font-size="14.00">indx: 0x570d256c0980</text>
<polyline fill="none" stroke="#fee8d6" points="1263,-327.5 1460,-327.5 "/>
<text text-anchor="middle" x="1361.5" y="-312.3" font-family="Times,serif" font-size="14.00">value: rt</text>
<polyline fill="none" stroke="#fee8d6" points="1263,-304.5 1460,-304.5 "/>
<text text-anchor="middle" x="1361.5" y="-289.3" font-family="Times,serif" font-size="14.00">parent: 0x570d256c0950</text>
<polyline fill="none" stroke="#fee8d6" points="1263,-281.5 1460,-281.5 "/>
<text text-anchor="middle" x="1309.5" y="-266.3" font-family="Times,serif" font-size="14.00">left: (nil)</text>
<polyline fill="none" stroke="#fee8d6" points="1356,-258.5 1356,-281.5 "/>
<text text-anchor="middle" x="1408" y="-266.3" font-family="Times,serif" font-size="14.00">right: (nil)</text>
</g>
<!-- node0x570d256c0950&#45;&gt;node0x570d256c0980 -->
<g id="edge19" class="edge">
<title>node0x570d256c0950&#45;&gt;node0x570d256c0980</title>
<path fill="none" stroke="#fee8d6" d="M1404.69,-387.37C1400.01,-378.49 1395.05,-369.09 1390.22,-359.95"/>
<polygon fill="#fee8d6" stroke="#fee8d6" points="1393.22,-358.13 1385.46,-350.92 1387.03,-361.39 1393.22,-358.13"/>
</g>
<!-- node0x570d256c09b0 -->
<g id="node21" class="node">
<title>node0x570d256c09b0</title>
<path fill="#ec9594" stroke="#fee8d6" d="M1490,-258.5C1490,-258.5 1663,-258.5 1663,-258.5 1669,-258.5 1675,-264.5 1675,-270.5 1675,-270.5 1675,-338.5 1675,-338.5 1675,-344.5 1669,-350.5 1663,-350.5 1663,-350.5 1490,-350.5 1490,-350.5 1484,-350.5 1478,-344.5 1478,-338.5 1478,-338.5 1478,-270.5 1478,-270.5 1478,-264.5 1484,-258.5 1490,-258.5"/>
<text text-anchor="middle" x="1576.5" y="-335.3" font-family="Times,serif" font-size="14.00">indx: 0x570d256c09b0</text>
<polyline fill="none" stroke="#fee8d6" points="1478,-327.5 1675,-327.5 "/>
<text text-anchor="middle" x="1576.5" y="-312.3" font-family="Times,serif" font-size="14.00">value: lol</text>
<polyline fill="none" stroke="#fee8d6" points="1478,-304.5 1675,-304.5 "/>
<text text-anchor="middle" x="1576.5" y="-289.3" font-family="Times,serif" font-size="14.00">parent: 0x570d256c0950</text>
<polyline fill="none" stroke="#fee8d6" points="1478,-281.5 1675,-281.5 "/>
<text text-anchor="middle" x="1524.5" y="-266.3" font-family="Times,serif" font-size="14.00">left: (nil)</text>
<polyline fill="none" stroke="#fee8d6" points="1571,-258.5 1571,-281.5 "/>
<text text-anchor="middle" x="1623" y="-266.3" font-family="Times,serif" font-size="14.00">right: (nil)</text>
</g>
<!-- node0x570d256c0950&#45;&gt;node0x570d256c09b0 -->
<g id="edge20" class="edge">
<title>node0x570d256c0950&#45;&gt;node0x570d256c09b0</title>
<path fill="none" stroke="#fee8d6" d="M1481.1,-387.37C1492.3,-377.75 1504.22,-367.52 1515.71,-357.67"/>
<polygon fill="#fee8d6" stroke="#fee8d6" points="1518.27,-360.08 1523.57,-350.92 1513.71,-354.77 1518.27,-360.08"/>
</g>
<!-- node0x570d256c0a40 -->
<g id="node24" class="node">
<title>node0x570d256c0a40</title>
<path fill="#ec9594" stroke="#fee8d6" d="M1853.5,-387.5C1853.5,-387.5 2185.5,-387.5 2185.5,-387.5 2191.5,-387.5 2197.5,-393.5 2197.5,-399.5 2197.5,-399.5 2197.5,-467.5 2197.5,-467.5 2197.5,-473.5 2191.5,-479.5 2185.5,-479.5 2185.5,-479.5 1853.5,-479.5 1853.5,-479.5 1847.5,-479.5 1841.5,-473.5 1841.5,-467.5 1841.5,-467.5 1841.5,-399.5 1841.5,-399.5 1841.5,-393.5 1847.5,-387.5 1853.5,-387.5"/>
<text text-anchor="middle" x="2019.5" y="-464.3" font-family="Times,serif" font-size="14.00">indx: 0x570d256c0a40</text>
<polyline fill="none" stroke="#fee8d6" points="1841.5,-456.5 2197.5,-456.5 "/>
<text text-anchor="middle" x="2019.5" y="-441.3" font-family="Times,serif" font-size="14.00">value: j</text>
<polyline fill="none" stroke="#fee8d6" points="1841.5,-433.5 2197.5,-433.5 "/>
<text text-anchor="middle" x="2019.5" y="-418.3" font-family="Times,serif" font-size="14.00">parent: 0x570d256c0a10</text>
<polyline fill="none" stroke="#fee8d6" points="1841.5,-410.5 2197.5,-410.5 "/>
<text text-anchor="middle" x="1928" y="-395.3" font-family="Times,serif" font-size="14.00">left: 0x570d256c0a70</text>
<polyline fill="none" stroke="#fee8d6" points="2014.5,-387.5 2014.5,-410.5 "/>
<text text-anchor="middle" x="2106" y="-395.3" font-family="Times,serif" font-size="14.00">right: 0x570d256c0aa0</text>
</g>
<!-- node0x570d256c0a10&#45;&gt;node0x570d256c0a40 -->
<g id="edge23" class="edge">
<title>node0x570d256c0a10&#45;&gt;node0x570d256c0a40</title>
<path fill="none" stroke="#fee8d6" d="M2019.5,-516.37C2019.5,-507.86 2019.5,-498.87 2019.5,-490.09"/>
<polygon fill="#fee8d6" stroke="#fee8d6" points="2023,-489.92 2019.5,-479.92 2016,-489.92 2023,-489.92"/>
</g>
<!-- node0x570d256c0ad0 -->
<g id="node27" class="node">
<title>node0x570d256c0ad0</title>
<path fill="#ec9594" stroke="#fee8d6" d="M2227.5,-387.5C2227.5,-387.5 2399.5,-387.5 2399.5,-387.5 2405.5,-387.5 2411.5,-393.5 2411.5,-399.5 2411.5,-399.5 2411.5,-467.5 2411.5,-467.5 2411.5,-473.5 2405.5,-479.5 2399.5,-479.5 2399.5,-479.5 2227.5,-479.5 2227.5,-479.5 2221.5,-479.5 2215.5,-473.5 2215.5,-467.5 2215.5,-467.5 2215.5,-399.5 2215.5,-399.5 2215.5,-393.5 2221.5,-387.5 2227.5,-387.5"/>
<text text-anchor="middle" x="2313.5" y="-464.3" font-family="Times,serif" font-size="14.00">indx: 0x570d256c0ad0</text>
<polyline fill="none" stroke="#fee8d6" points="2215.5,-456.5 2411.5,-456.5 "/>
<text text-anchor="middle" x="2313.5" y="-441.3" font-family="Times,serif" font-size="14.00">value: fupm</text>
<polyline fill="none" stroke="#fee8d6" points="2215.5,-433.5 2411.5,-433.5 "/>
<text text-anchor="middle" x="2313.5" y="-418.3" font-family="Times,serif" font-size="14.00">parent: 0x570d256c0a10</text>
<polyline fill="none" stroke="#fee8d6" points="2215.5,-410.5 2411.5,-410.5 "/>
<text text-anchor="middle" x="2261.5" y="-395.3" font-family="Times,serif" font-size="14.00">left: (nil)</text>
<polyline fill="none" stroke="#fee8d6" points="2307.5,-387.5 2307.5,-410.5 "/>
<text text-anchor="middle" x="2359.5" y="-395.3" font-family="Times,serif" font-size="14.00">right: (nil)</text>
</g>
<!-- node0x570d256c0a10&#45;&gt;node0x570d256c0ad0 -->
<g id="edge26" class="edge">
<title>node0x570d256c0a10&#45;&gt;node0x570d256c0ad0</title>
<path fill="none" stroke="#fee8d6" d="M2123.98,-516.37C2150.56,-504.89 2179.16,-492.53 2205.89,-480.99"/>
<polygon fill="#fee8d6" stroke="#fee8d6" points="2207.47,-484.12 2215.26,-476.94 2204.69,-477.69 2207.47,-484.12"/>
</g>
<!-- node0x570d256c0a70 -->
<g id="node25" class="node">
<title>node0x570d256c0a70</title>
<path fill="#ec9594" stroke="#fee8d6" d="M1786.5,-258.5C1786.5,-258.5 1958.5,-258.5 1958.5,-258.5 1964.5,-258.5 1970.5,-264.5 1970.5,-270.5 1970.5,-270.5 1970.5,-338.5 1970.5,-338.5 1970.5,-344.5 1964.5,-350.5 1958.5,-350.5 1958.5,-350.5 1786.5,-350.5 1786.5,-350.5 1780.5,-350.5 1774.5,-344.5 1774.5,-338.5 1774.5,-338.5 1774.5,-270.5 1774.5,-270.5 1774.5,-264.5 1780.5,-258.5 1786.5,-258.5"/>
<text text-anchor="middle" x="1872.5" y="-335.3" font-family="Times,serif" font-size="14.00">indx: 0x570d256c0a70</text>
<polyline fill="none" stroke="#fee8d6" points="1774.5,-327.5 1970.5,-327.5 "/>
<text text-anchor="middle" x="1872.5" y="-312.3" font-family="Times,serif" font-size="14.00">value: fopf</text>
<polyline fill="none" stroke="#fee8d6" points="1774.5,-304.5 1970.5,-304.5 "/>
<text text-anchor="middle" x="1872.5" y="-289.3" font-family="Times,serif" font-size="14.00">parent: 0x570d256c0a40</text>
<polyline fill="none" stroke="#fee8d6" points="1774.5,-281.5 1970.5,-281.5 "/>
<text text-anchor="middle" x="1820.5" y="-266.3" font-family="Times,serif" font-size="14.00">left: (nil)</text>
<polyline fill="none" stroke="#fee8d6" points="1866.5,-258.5 1866.5,-281.5 "/>
<text text-anchor="middle" x="1918.5" y="-266.3" font-family="Times,serif" font-size="14.00">right: (nil)</text>
</g>
<!-- node0x570d256c0a40&#45;&gt;node0x570d256c0a70 -->
<g id="edge24" class="edge">
<title>node0x570d256c0a40&#45;&gt;node0x570d256c0a70</title>
<path fill="none" stroke="#fee8d6" d="M1967.26,-387.37C1956.13,-377.75 1944.29,-367.52 1932.88,-357.67"/>
<polygon fill="#fee8d6" stroke="#fee8d6" points="1934.92,-354.8 1925.07,-350.92 1930.35,-360.1 1934.92,-354.8"/>
</g>
<!-- node0x570d256c0aa0 -->
<g id="node26" class="node">
<title>node0x570d256c0aa0</title>
<path fill="#ec9594" stroke="#fee8d6" d="M2000.5,-258.5C2000.5,-258.5 2172.5,-258.5 2172.5,-258.5 2178.5,-258.5 2184.5,-264.5 2184.5,-270.5 2184.5,-270.5 2184.5,-338.5 2184.5,-338.5 2184.5,-344.5 2178.5,-350.5 2172.5,-350.5 2172.5,-350.5 2000.5,-350.5 2000.5,-350.5 1994.5,-350.5 1988.5,-344.5 1988.5,-338.5 1988.5,-338.5 1988.5,-270.5 1988.5,-270.5 1988.5,-264.5 1994.5,-258.5 2000.5,-258.5"/>
<text text-anchor="middle" x="2086.5" y="-335.3" font-family="Times,serif" font-size="14.00">indx: 0x570d256c0aa0</text>
<polyline fill="none" stroke="#fee8d6" points="1988.5,-327.5 2184.5,-327.5 "/>
<text text-anchor="middle" x="2086.5" y="-312.3" font-family="Times,serif" font-size="14.00">value: q</text>
<polyline fill="none" stroke="#fee8d6" points="1988.5,-304.5 2184.5,-304.5 "/>
<text text-anchor="middle" x="2086.5" y="-289.3" font-family="Times,serif" font-size="14.00">parent: 0x570d256c0a40</text>
<polyline fill="none" stroke="#fee8d6" points="1988.5,-281.5 2184.5,-281.5 "/>
<text text-anchor="middle" x="2034.5" y="-266.3" font-family="Times,serif" font-size="14.00">left: (nil)</text>
<polyline fill="none" stroke="#fee8d6" points="2080.5,-258.5 2080.5,-281.5 "/>
<text text-anchor="middle" x="2132.5" y="-266.3" font-family="Times,serif" font-size="14.00">right: (nil)</text>
</g>
<!-- node0x570d256c0a40&#45;&gt;node0x570d256c0aa0 -->
<g id="edge25" class="edge">
<title>node0x570d256c0a40&#45;&gt;node0x570d256c0aa0</title>
<path fill="none" stroke="#fee8d6" d="M2043.31,-387.37C2047.99,-378.49 2052.95,-369.09 2057.78,-359.95"/>
<polygon fill="#fee8d6" stroke="#fee8d6" points="2060.97,-361.39 2062.54,-350.92 2054.78,-358.13 2060.97,-361.39"/>
</g>
</g>
</svg>
