<?xml version="1.0" encoding="UTF-8" standalone="no"?>
<!DOCTYPE svg PUBLIC "-//W3C//DTD SVG 1.1//EN"
 "http://www.w3.org/Graphics/SVG/1.1/DTD/svg11.dtd">
<!-- Generated by graphviz version 2.43.0 (0)
 -->
<!-- Title: Tree Pages: 1 -->
<svg width="2222pt" height="875pt"
 viewBox="0.00 0.00 2222.00 875.00" xmlns="http://www.w3.org/2000/svg" xmlns:xlink="http://www.w3.org/1999/xlink">
<g id="graph0" class="graph" transform="scale(1 1) rotate(0) translate(4 871)">
<title>Tree</title>
<polygon fill="#0f0000" stroke="transparent" points="-4,4 -4,-871 2218,-871 2218,4 -4,4"/>
<!-- node0x57e36f5405c0 -->
<g id="node1" class="node">
<title>node0x57e36f5405c0</title>
<path fill="#ec9594" stroke="#fee8d6" d="M1045.5,-774.5C1045.5,-774.5 1370.5,-774.5 1370.5,-774.5 1376.5,-774.5 1382.5,-780.5 1382.5,-786.5 1382.5,-786.5 1382.5,-854.5 1382.5,-854.5 1382.5,-860.5 1376.5,-866.5 1370.5,-866.5 1370.5,-866.5 1045.5,-866.5 1045.5,-866.5 1039.5,-866.5 1033.5,-860.5 1033.5,-854.5 1033.5,-854.5 1033.5,-786.5 1033.5,-786.5 1033.5,-780.5 1039.5,-774.5 1045.5,-774.5"/>
<text text-anchor="middle" x="1208" y="-851.3" font-family="Times,serif" font-size="14.00">indx: 0x57e36f5405c0</text>
<polyline fill="none" stroke="#fee8d6" points="1033.5,-843.5 1382.5,-843.5 "/>
<text text-anchor="middle" x="1208" y="-828.3" font-family="Times,serif" font-size="14.00">value: mipt</text>
<polyline fill="none" stroke="#fee8d6" points="1033.5,-820.5 1382.5,-820.5 "/>
<text text-anchor="middle" x="1208" y="-805.3" font-family="Times,serif" font-size="14.00">parent: (nil)</text>
<polyline fill="none" stroke="#fee8d6" points="1033.5,-797.5 1382.5,-797.5 "/>
<text text-anchor="middle" x="1117" y="-782.3" font-family="Times,serif" font-size="14.00">left: 0x57e36f5405f0</text>
<polyline fill="none" stroke="#fee8d6" points="1200.5,-774.5 1200.5,-797.5 "/>
<text text-anchor="middle" x="1291.5" y="-782.3" font-family="Times,serif" font-size="14.00">right: 0x57e36f540860</text>
</g>
<!-- node0x57e36f5405f0 -->
<g id="node2" class="node">
<title>node0x57e36f5405f0</title>
<path fill="#ec9594" stroke="#fee8d6" d="M766,-645.5C766,-645.5 1094,-645.5 1094,-645.5 1100,-645.5 1106,-651.5 1106,-657.5 1106,-657.5 1106,-725.5 1106,-725.5 1106,-731.5 1100,-737.5 1094,-737.5 1094,-737.5 766,-737.5 766,-737.5 760,-737.5 754,-731.5 754,-725.5 754,-725.5 754,-657.5 754,-657.5 754,-651.5 760,-645.5 766,-645.5"/>
<text text-anchor="middle" x="930" y="-722.3" font-family="Times,serif" font-size="14.00">indx: 0x57e36f5405f0</text>
<polyline fill="none" stroke="#fee8d6" points="754,-714.5 1106,-714.5 "/>
<text text-anchor="middle" x="930" y="-699.3" font-family="Times,serif" font-size="14.00">value: no</text>
<polyline fill="none" stroke="#fee8d6" points="754,-691.5 1106,-691.5 "/>
<text text-anchor="middle" x="930" y="-676.3" font-family="Times,serif" font-size="14.00">parent: 0x57e36f5405c0</text>
<polyline fill="none" stroke="#fee8d6" points="754,-668.5 1106,-668.5 "/>
<text text-anchor="middle" x="839" y="-653.3" font-family="Times,serif" font-size="14.00">left: 0x57e36f540620</text>
<polyline fill="none" stroke="#fee8d6" points="924,-645.5 924,-668.5 "/>
<text text-anchor="middle" x="1015" y="-653.3" font-family="Times,serif" font-size="14.00">right: 0x57e36f5407d0</text>
</g>
<!-- node0x57e36f5405c0&#45;&gt;node0x57e36f5405f0 -->
<g id="edge1" class="edge">
<title>node0x57e36f5405c0&#45;&gt;node0x57e36f5405f0</title>
<path fill="none" stroke="#fee8d6" d="M1109.2,-774.37C1086.2,-763.86 1061.58,-752.61 1038.19,-741.92"/>
<polygon fill="#fee8d6" stroke="#fee8d6" points="1039.5,-738.67 1028.95,-737.7 1036.59,-745.04 1039.5,-738.67"/>
</g>
<!-- node0x57e36f540860 -->
<g id="node15" class="node">
<title>node0x57e36f540860</title>
<path fill="#ec9594" stroke="#fee8d6" d="M1216,-645.5C1216,-645.5 1544,-645.5 1544,-645.5 1550,-645.5 1556,-651.5 1556,-657.5 1556,-657.5 1556,-725.5 1556,-725.5 1556,-731.5 1550,-737.5 1544,-737.5 1544,-737.5 1216,-737.5 1216,-737.5 1210,-737.5 1204,-731.5 1204,-725.5 1204,-725.5 1204,-657.5 1204,-657.5 1204,-651.5 1210,-645.5 1216,-645.5"/>
<text text-anchor="middle" x="1380" y="-722.3" font-family="Times,serif" font-size="14.00">indx: 0x57e36f540860</text>
<polyline fill="none" stroke="#fee8d6" points="1204,-714.5 1556,-714.5 "/>
<text text-anchor="middle" x="1380" y="-699.3" font-family="Times,serif" font-size="14.00">value: huinya</text>
<polyline fill="none" stroke="#fee8d6" points="1204,-691.5 1556,-691.5 "/>
<text text-anchor="middle" x="1380" y="-676.3" font-family="Times,serif" font-size="14.00">parent: 0x57e36f5405c0</text>
<polyline fill="none" stroke="#fee8d6" points="1204,-668.5 1556,-668.5 "/>
<text text-anchor="middle" x="1289" y="-653.3" font-family="Times,serif" font-size="14.00">left: 0x57e36f540890</text>
<polyline fill="none" stroke="#fee8d6" points="1374,-645.5 1374,-668.5 "/>
<text text-anchor="middle" x="1465" y="-653.3" font-family="Times,serif" font-size="14.00">right: 0x57e36f540920</text>
</g>
<!-- node0x57e36f5405c0&#45;&gt;node0x57e36f540860 -->
<g id="edge14" class="edge">
<title>node0x57e36f5405c0&#45;&gt;node0x57e36f540860</title>
<path fill="none" stroke="#fee8d6" d="M1269.13,-774.37C1282.48,-764.51 1296.71,-754 1310.37,-743.92"/>
<polygon fill="#fee8d6" stroke="#fee8d6" points="1312.82,-746.46 1318.78,-737.7 1308.66,-740.83 1312.82,-746.46"/>
</g>
<!-- node0x57e36f540620 -->
<g id="node3" class="node">
<title>node0x57e36f540620</title>
<path fill="#ec9594" stroke="#fee8d6" d="M369.5,-516.5C369.5,-516.5 696.5,-516.5 696.5,-516.5 702.5,-516.5 708.5,-522.5 708.5,-528.5 708.5,-528.5 708.5,-596.5 708.5,-596.5 708.5,-602.5 702.5,-608.5 696.5,-608.5 696.5,-608.5 369.5,-608.5 369.5,-608.5 363.5,-608.5 357.5,-602.5 357.5,-596.5 357.5,-596.5 357.5,-528.5 357.5,-528.5 357.5,-522.5 363.5,-516.5 369.5,-516.5"/>
<text text-anchor="middle" x="533" y="-593.3" font-family="Times,serif" font-size="14.00">indx: 0x57e36f540620</text>
<polyline fill="none" stroke="#fee8d6" points="357.5,-585.5 708.5,-585.5 "/>
<text text-anchor="middle" x="533" y="-570.3" font-family="Times,serif" font-size="14.00">value: ne</text>
<polyline fill="none" stroke="#fee8d6" points="357.5,-562.5 708.5,-562.5 "/>
<text text-anchor="middle" x="533" y="-547.3" font-family="Times,serif" font-size="14.00">parent: 0x57e36f5405f0</text>
<polyline fill="none" stroke="#fee8d6" points="357.5,-539.5 708.5,-539.5 "/>
<text text-anchor="middle" x="442.5" y="-524.3" font-family="Times,serif" font-size="14.00">left: 0x57e36f540650</text>
<polyline fill="none" stroke="#fee8d6" points="527.5,-516.5 527.5,-539.5 "/>
<text text-anchor="middle" x="618" y="-524.3" font-family="Times,serif" font-size="14.00">right: 0x57e36f5407a0</text>
</g>
<!-- node0x57e36f5405f0&#45;&gt;node0x57e36f540620 -->
<g id="edge2" class="edge">
<title>node0x57e36f5405f0&#45;&gt;node0x57e36f540620</title>
<path fill="none" stroke="#fee8d6" d="M789.19,-645.46C754.96,-634.5 718.21,-622.75 683.54,-611.66"/>
<polygon fill="#fee8d6" stroke="#fee8d6" points="684.41,-608.26 673.82,-608.55 682.28,-614.93 684.41,-608.26"/>
</g>
<!-- node0x57e36f5407d0 -->
<g id="node12" class="node">
<title>node0x57e36f5407d0</title>
<path fill="#ec9594" stroke="#fee8d6" d="M766,-516.5C766,-516.5 1094,-516.5 1094,-516.5 1100,-516.5 1106,-522.5 1106,-528.5 1106,-528.5 1106,-596.5 1106,-596.5 1106,-602.5 1100,-608.5 1094,-608.5 1094,-608.5 766,-608.5 766,-608.5 760,-608.5 754,-602.5 754,-596.5 754,-596.5 754,-528.5 754,-528.5 754,-522.5 760,-516.5 766,-516.5"/>
<text text-anchor="middle" x="930" y="-593.3" font-family="Times,serif" font-size="14.00">indx: 0x57e36f5407d0</text>
<polyline fill="none" stroke="#fee8d6" points="754,-585.5 1106,-585.5 "/>
<text text-anchor="middle" x="930" y="-570.3" font-family="Times,serif" font-size="14.00">value: kk kk kk</text>
<polyline fill="none" stroke="#fee8d6" points="754,-562.5 1106,-562.5 "/>
<text text-anchor="middle" x="930" y="-547.3" font-family="Times,serif" font-size="14.00">parent: 0x57e36f5405f0</text>
<polyline fill="none" stroke="#fee8d6" points="754,-539.5 1106,-539.5 "/>
<text text-anchor="middle" x="839" y="-524.3" font-family="Times,serif" font-size="14.00">left: 0x57e36f540800</text>
<polyline fill="none" stroke="#fee8d6" points="924,-516.5 924,-539.5 "/>
<text text-anchor="middle" x="1015" y="-524.3" font-family="Times,serif" font-size="14.00">right: 0x57e36f540830</text>
</g>
<!-- node0x57e36f5405f0&#45;&gt;node0x57e36f5407d0 -->
<g id="edge11" class="edge">
<title>node0x57e36f5405f0&#45;&gt;node0x57e36f5407d0</title>
<path fill="none" stroke="#fee8d6" d="M930,-645.37C930,-636.86 930,-627.87 930,-619.09"/>
<polygon fill="#fee8d6" stroke="#fee8d6" points="933.5,-618.92 930,-608.92 926.5,-618.92 933.5,-618.92"/>
</g>
<!-- node0x57e36f540650 -->
<g id="node4" class="node">
<title>node0x57e36f540650</title>
<path fill="#ec9594" stroke="#fee8d6" d="M78,-387.5C78,-387.5 406,-387.5 406,-387.5 412,-387.5 418,-393.5 418,-399.5 418,-399.5 418,-467.5 418,-467.5 418,-473.5 412,-479.5 406,-479.5 406,-479.5 78,-479.5 78,-479.5 72,-479.5 66,-473.5 66,-467.5 66,-467.5 66,-399.5 66,-399.5 66,-393.5 72,-387.5 78,-387.5"/>
<text text-anchor="middle" x="242" y="-464.3" font-family="Times,serif" font-size="14.00">indx: 0x57e36f540650</text>
<polyline fill="none" stroke="#fee8d6" points="66,-456.5 418,-456.5 "/>
<text text-anchor="middle" x="242" y="-441.3" font-family="Times,serif" font-size="14.00">value: black</text>
<polyline fill="none" stroke="#fee8d6" points="66,-433.5 418,-433.5 "/>
<text text-anchor="middle" x="242" y="-418.3" font-family="Times,serif" font-size="14.00">parent: 0x57e36f540620</text>
<polyline fill="none" stroke="#fee8d6" points="66,-410.5 418,-410.5 "/>
<text text-anchor="middle" x="151" y="-395.3" font-family="Times,serif" font-size="14.00">left: 0x57e36f540680</text>
<polyline fill="none" stroke="#fee8d6" points="236,-387.5 236,-410.5 "/>
<text text-anchor="middle" x="327" y="-395.3" font-family="Times,serif" font-size="14.00">right: 0x57e36f5406b0</text>
</g>
<!-- node0x57e36f540620&#45;&gt;node0x57e36f540650 -->
<g id="edge3" class="edge">
<title>node0x57e36f540620&#45;&gt;node0x57e36f540650</title>
<path fill="none" stroke="#fee8d6" d="M429.58,-516.37C405.39,-505.81 379.5,-494.51 354.92,-483.78"/>
<polygon fill="#fee8d6" stroke="#fee8d6" points="356.14,-480.49 345.57,-479.7 353.34,-486.91 356.14,-480.49"/>
</g>
<!-- node0x57e36f5407a0 -->
<g id="node11" class="node">
<title>node0x57e36f5407a0</title>
<path fill="#ec9594" stroke="#fee8d6" d="M448,-387.5C448,-387.5 618,-387.5 618,-387.5 624,-387.5 630,-393.5 630,-399.5 630,-399.5 630,-467.5 630,-467.5 630,-473.5 624,-479.5 618,-479.5 618,-479.5 448,-479.5 448,-479.5 442,-479.5 436,-473.5 436,-467.5 436,-467.5 436,-399.5 436,-399.5 436,-393.5 442,-387.5 448,-387.5"/>
<text text-anchor="middle" x="533" y="-464.3" font-family="Times,serif" font-size="14.00">indx: 0x57e36f5407a0</text>
<polyline fill="none" stroke="#fee8d6" points="436,-456.5 630,-456.5 "/>
<text text-anchor="middle" x="533" y="-441.3" font-family="Times,serif" font-size="14.00">value: ksukha</text>
<polyline fill="none" stroke="#fee8d6" points="436,-433.5 630,-433.5 "/>
<text text-anchor="middle" x="533" y="-418.3" font-family="Times,serif" font-size="14.00">parent: 0x57e36f540620</text>
<polyline fill="none" stroke="#fee8d6" points="436,-410.5 630,-410.5 "/>
<text text-anchor="middle" x="481.5" y="-395.3" font-family="Times,serif" font-size="14.00">left: (nil)</text>
<polyline fill="none" stroke="#fee8d6" points="527,-387.5 527,-410.5 "/>
<text text-anchor="middle" x="578.5" y="-395.3" font-family="Times,serif" font-size="14.00">right: (nil)</text>
</g>
<!-- node0x57e36f540620&#45;&gt;node0x57e36f5407a0 -->
<g id="edge10" class="edge">
<title>node0x57e36f540620&#45;&gt;node0x57e36f5407a0</title>
<path fill="none" stroke="#fee8d6" d="M533,-516.37C533,-507.86 533,-498.87 533,-490.09"/>
<polygon fill="#fee8d6" stroke="#fee8d6" points="536.5,-489.92 533,-479.92 529.5,-489.92 536.5,-489.92"/>
</g>
<!-- node0x57e36f540680 -->
<g id="node5" class="node">
<title>node0x57e36f540680</title>
<path fill="#ec9594" stroke="#fee8d6" d="M12,-258.5C12,-258.5 182,-258.5 182,-258.5 188,-258.5 194,-264.5 194,-270.5 194,-270.5 194,-338.5 194,-338.5 194,-344.5 188,-350.5 182,-350.5 182,-350.5 12,-350.5 12,-350.5 6,-350.5 0,-344.5 0,-338.5 0,-338.5 0,-270.5 0,-270.5 0,-264.5 6,-258.5 12,-258.5"/>
<text text-anchor="middle" x="97" y="-335.3" font-family="Times,serif" font-size="14.00">indx: 0x57e36f540680</text>
<polyline fill="none" stroke="#fee8d6" points="0,-327.5 194,-327.5 "/>
<text text-anchor="middle" x="97" y="-312.3" font-family="Times,serif" font-size="14.00">value: hz</text>
<polyline fill="none" stroke="#fee8d6" points="0,-304.5 194,-304.5 "/>
<text text-anchor="middle" x="97" y="-289.3" font-family="Times,serif" font-size="14.00">parent: 0x57e36f540650</text>
<polyline fill="none" stroke="#fee8d6" points="0,-281.5 194,-281.5 "/>
<text text-anchor="middle" x="45.5" y="-266.3" font-family="Times,serif" font-size="14.00">left: (nil)</text>
<polyline fill="none" stroke="#fee8d6" points="91,-258.5 91,-281.5 "/>
<text text-anchor="middle" x="142.5" y="-266.3" font-family="Times,serif" font-size="14.00">right: (nil)</text>
</g>
<!-- node0x57e36f540650&#45;&gt;node0x57e36f540680 -->
<g id="edge4" class="edge">
<title>node0x57e36f540650&#45;&gt;node0x57e36f540680</title>
<path fill="none" stroke="#fee8d6" d="M190.47,-387.37C179.49,-377.75 167.81,-367.52 156.56,-357.67"/>
<polygon fill="#fee8d6" stroke="#fee8d6" points="158.68,-354.87 148.85,-350.92 154.07,-360.14 158.68,-354.87"/>
</g>
<!-- node0x57e36f5406b0 -->
<g id="node6" class="node">
<title>node0x57e36f5406b0</title>
<path fill="#ec9594" stroke="#fee8d6" d="M224,-258.5C224,-258.5 552,-258.5 552,-258.5 558,-258.5 564,-264.5 564,-270.5 564,-270.5 564,-338.5 564,-338.5 564,-344.5 558,-350.5 552,-350.5 552,-350.5 224,-350.5 224,-350.5 218,-350.5 212,-344.5 212,-338.5 212,-338.5 212,-270.5 212,-270.5 212,-264.5 218,-258.5 224,-258.5"/>
<text text-anchor="middle" x="388" y="-335.3" font-family="Times,serif" font-size="14.00">indx: 0x57e36f5406b0</text>
<polyline fill="none" stroke="#fee8d6" points="212,-327.5 564,-327.5 "/>
<text text-anchor="middle" x="388" y="-312.3" font-family="Times,serif" font-size="14.00">value: africa</text>
<polyline fill="none" stroke="#fee8d6" points="212,-304.5 564,-304.5 "/>
<text text-anchor="middle" x="388" y="-289.3" font-family="Times,serif" font-size="14.00">parent: 0x57e36f540650</text>
<polyline fill="none" stroke="#fee8d6" points="212,-281.5 564,-281.5 "/>
<text text-anchor="middle" x="297" y="-266.3" font-family="Times,serif" font-size="14.00">left: 0x57e36f5406e0</text>
<polyline fill="none" stroke="#fee8d6" points="382,-258.5 382,-281.5 "/>
<text text-anchor="middle" x="473" y="-266.3" font-family="Times,serif" font-size="14.00">right: 0x57e36f540770</text>
</g>
<!-- node0x57e36f540650&#45;&gt;node0x57e36f5406b0 -->
<g id="edge5" class="edge">
<title>node0x57e36f540650&#45;&gt;node0x57e36f5406b0</title>
<path fill="none" stroke="#fee8d6" d="M293.89,-387.37C304.94,-377.75 316.7,-367.52 328.03,-357.67"/>
<polygon fill="#fee8d6" stroke="#fee8d6" points="330.54,-360.12 335.79,-350.92 325.95,-354.84 330.54,-360.12"/>
</g>
<!-- node0x57e36f5406e0 -->
<g id="node7" class="node">
<title>node0x57e36f5406e0</title>
<path fill="#ec9594" stroke="#fee8d6" d="M79,-129.5C79,-129.5 407,-129.5 407,-129.5 413,-129.5 419,-135.5 419,-141.5 419,-141.5 419,-209.5 419,-209.5 419,-215.5 413,-221.5 407,-221.5 407,-221.5 79,-221.5 79,-221.5 73,-221.5 67,-215.5 67,-209.5 67,-209.5 67,-141.5 67,-141.5 67,-135.5 73,-129.5 79,-129.5"/>
<text text-anchor="middle" x="243" y="-206.3" font-family="Times,serif" font-size="14.00">indx: 0x57e36f5406e0</text>
<polyline fill="none" stroke="#fee8d6" points="67,-198.5 419,-198.5 "/>
<text text-anchor="middle" x="243" y="-183.3" font-family="Times,serif" font-size="14.00">value: nechelovek</text>
<polyline fill="none" stroke="#fee8d6" points="67,-175.5 419,-175.5 "/>
<text text-anchor="middle" x="243" y="-160.3" font-family="Times,serif" font-size="14.00">parent: 0x57e36f5406b0</text>
<polyline fill="none" stroke="#fee8d6" points="67,-152.5 419,-152.5 "/>
<text text-anchor="middle" x="152" y="-137.3" font-family="Times,serif" font-size="14.00">left: 0x57e36f540710</text>
<polyline fill="none" stroke="#fee8d6" points="237,-129.5 237,-152.5 "/>
<text text-anchor="middle" x="328" y="-137.3" font-family="Times,serif" font-size="14.00">right: 0x57e36f540740</text>
</g>
<!-- node0x57e36f5406b0&#45;&gt;node0x57e36f5406e0 -->
<g id="edge6" class="edge">
<title>node0x57e36f5406b0&#45;&gt;node0x57e36f5406e0</title>
<path fill="none" stroke="#fee8d6" d="M336.47,-258.37C325.49,-248.75 313.81,-238.52 302.56,-228.67"/>
<polygon fill="#fee8d6" stroke="#fee8d6" points="304.68,-225.87 294.85,-221.92 300.07,-231.14 304.68,-225.87"/>
</g>
<!-- node0x57e36f540770 -->
<g id="node10" class="node">
<title>node0x57e36f540770</title>
<path fill="#ec9594" stroke="#fee8d6" d="M449,-129.5C449,-129.5 619,-129.5 619,-129.5 625,-129.5 631,-135.5 631,-141.5 631,-141.5 631,-209.5 631,-209.5 631,-215.5 625,-221.5 619,-221.5 619,-221.5 449,-221.5 449,-221.5 443,-221.5 437,-215.5 437,-209.5 437,-209.5 437,-141.5 437,-141.5 437,-135.5 443,-129.5 449,-129.5"/>
<text text-anchor="middle" x="534" y="-206.3" font-family="Times,serif" font-size="14.00">indx: 0x57e36f540770</text>
<polyline fill="none" stroke="#fee8d6" points="437,-198.5 631,-198.5 "/>
<text text-anchor="middle" x="534" y="-183.3" font-family="Times,serif" font-size="14.00">value: nigger</text>
<polyline fill="none" stroke="#fee8d6" points="437,-175.5 631,-175.5 "/>
<text text-anchor="middle" x="534" y="-160.3" font-family="Times,serif" font-size="14.00">parent: 0x57e36f5406b0</text>
<polyline fill="none" stroke="#fee8d6" points="437,-152.5 631,-152.5 "/>
<text text-anchor="middle" x="482.5" y="-137.3" font-family="Times,serif" font-size="14.00">left: (nil)</text>
<polyline fill="none" stroke="#fee8d6" points="528,-129.5 528,-152.5 "/>
<text text-anchor="middle" x="579.5" y="-137.3" font-family="Times,serif" font-size="14.00">right: (nil)</text>
</g>
<!-- node0x57e36f5406b0&#45;&gt;node0x57e36f540770 -->
<g id="edge9" class="edge">
<title>node0x57e36f5406b0&#45;&gt;node0x57e36f540770</title>
<path fill="none" stroke="#fee8d6" d="M439.89,-258.37C450.94,-248.75 462.7,-238.52 474.03,-228.67"/>
<polygon fill="#fee8d6" stroke="#fee8d6" points="476.54,-231.12 481.79,-221.92 471.95,-225.84 476.54,-231.12"/>
</g>
<!-- node0x57e36f540710 -->
<g id="node8" class="node">
<title>node0x57e36f540710</title>
<path fill="#ec9594" stroke="#fee8d6" d="M53.5,-0.5C53.5,-0.5 222.5,-0.5 222.5,-0.5 228.5,-0.5 234.5,-6.5 234.5,-12.5 234.5,-12.5 234.5,-80.5 234.5,-80.5 234.5,-86.5 228.5,-92.5 222.5,-92.5 222.5,-92.5 53.5,-92.5 53.5,-92.5 47.5,-92.5 41.5,-86.5 41.5,-80.5 41.5,-80.5 41.5,-12.5 41.5,-12.5 41.5,-6.5 47.5,-0.5 53.5,-0.5"/>
<text text-anchor="middle" x="138" y="-77.3" font-family="Times,serif" font-size="14.00">indx: 0x57e36f540710</text>
<polyline fill="none" stroke="#fee8d6" points="41.5,-69.5 234.5,-69.5 "/>
<text text-anchor="middle" x="138" y="-54.3" font-family="Times,serif" font-size="14.00">value: rinat</text>
<polyline fill="none" stroke="#fee8d6" points="41.5,-46.5 234.5,-46.5 "/>
<text text-anchor="middle" x="138" y="-31.3" font-family="Times,serif" font-size="14.00">parent: 0x57e36f5406e0</text>
<polyline fill="none" stroke="#fee8d6" points="41.5,-23.5 234.5,-23.5 "/>
<text text-anchor="middle" x="87" y="-8.3" font-family="Times,serif" font-size="14.00">left: (nil)</text>
<polyline fill="none" stroke="#fee8d6" points="132.5,-0.5 132.5,-23.5 "/>
<text text-anchor="middle" x="183.5" y="-8.3" font-family="Times,serif" font-size="14.00">right: (nil)</text>
</g>
<!-- node0x57e36f5406e0&#45;&gt;node0x57e36f540710 -->
<g id="edge7" class="edge">
<title>node0x57e36f5406e0&#45;&gt;node0x57e36f540710</title>
<path fill="none" stroke="#fee8d6" d="M205.69,-129.37C198.04,-120.12 189.93,-110.31 182.07,-100.8"/>
<polygon fill="#fee8d6" stroke="#fee8d6" points="184.62,-98.39 175.55,-92.92 179.22,-102.85 184.62,-98.39"/>
</g>
<!-- node0x57e36f540740 -->
<g id="node9" class="node">
<title>node0x57e36f540740</title>
<path fill="#ec9594" stroke="#fee8d6" d="M264.5,-0.5C264.5,-0.5 433.5,-0.5 433.5,-0.5 439.5,-0.5 445.5,-6.5 445.5,-12.5 445.5,-12.5 445.5,-80.5 445.5,-80.5 445.5,-86.5 439.5,-92.5 433.5,-92.5 433.5,-92.5 264.5,-92.5 264.5,-92.5 258.5,-92.5 252.5,-86.5 252.5,-80.5 252.5,-80.5 252.5,-12.5 252.5,-12.5 252.5,-6.5 258.5,-0.5 264.5,-0.5"/>
<text text-anchor="middle" x="349" y="-77.3" font-family="Times,serif" font-size="14.00">indx: 0x57e36f540740</text>
<polyline fill="none" stroke="#fee8d6" points="252.5,-69.5 445.5,-69.5 "/>
<text text-anchor="middle" x="349" y="-54.3" font-family="Times,serif" font-size="14.00">value: night</text>
<polyline fill="none" stroke="#fee8d6" points="252.5,-46.5 445.5,-46.5 "/>
<text text-anchor="middle" x="349" y="-31.3" font-family="Times,serif" font-size="14.00">parent: 0x57e36f5406e0</text>
<polyline fill="none" stroke="#fee8d6" points="252.5,-23.5 445.5,-23.5 "/>
<text text-anchor="middle" x="298" y="-8.3" font-family="Times,serif" font-size="14.00">left: (nil)</text>
<polyline fill="none" stroke="#fee8d6" points="343.5,-0.5 343.5,-23.5 "/>
<text text-anchor="middle" x="394.5" y="-8.3" font-family="Times,serif" font-size="14.00">right: (nil)</text>
</g>
<!-- node0x57e36f5406e0&#45;&gt;node0x57e36f540740 -->
<g id="edge8" class="edge">
<title>node0x57e36f5406e0&#45;&gt;node0x57e36f540740</title>
<path fill="none" stroke="#fee8d6" d="M280.67,-129.37C288.39,-120.12 296.58,-110.31 304.51,-100.8"/>
<polygon fill="#fee8d6" stroke="#fee8d6" points="307.37,-102.84 311.09,-92.92 302,-98.35 307.37,-102.84"/>
</g>
<!-- node0x57e36f540800 -->
<g id="node13" class="node">
<title>node0x57e36f540800</title>
<path fill="#ec9594" stroke="#fee8d6" d="M660,-387.5C660,-387.5 830,-387.5 830,-387.5 836,-387.5 842,-393.5 842,-399.5 842,-399.5 842,-467.5 842,-467.5 842,-473.5 836,-479.5 830,-479.5 830,-479.5 660,-479.5 660,-479.5 654,-479.5 648,-473.5 648,-467.5 648,-467.5 648,-399.5 648,-399.5 648,-393.5 654,-387.5 660,-387.5"/>
<text text-anchor="middle" x="745" y="-464.3" font-family="Times,serif" font-size="14.00">indx: 0x57e36f540800</text>
<polyline fill="none" stroke="#fee8d6" points="648,-456.5 842,-456.5 "/>
<text text-anchor="middle" x="745" y="-441.3" font-family="Times,serif" font-size="14.00">value: yes</text>
<polyline fill="none" stroke="#fee8d6" points="648,-433.5 842,-433.5 "/>
<text text-anchor="middle" x="745" y="-418.3" font-family="Times,serif" font-size="14.00">parent: 0x57e36f5407d0</text>
<polyline fill="none" stroke="#fee8d6" points="648,-410.5 842,-410.5 "/>
<text text-anchor="middle" x="693.5" y="-395.3" font-family="Times,serif" font-size="14.00">left: (nil)</text>
<polyline fill="none" stroke="#fee8d6" points="739,-387.5 739,-410.5 "/>
<text text-anchor="middle" x="790.5" y="-395.3" font-family="Times,serif" font-size="14.00">right: (nil)</text>
</g>
<!-- node0x57e36f5407d0&#45;&gt;node0x57e36f540800 -->
<g id="edge12" class="edge">
<title>node0x57e36f5407d0&#45;&gt;node0x57e36f540800</title>
<path fill="none" stroke="#fee8d6" d="M864.26,-516.37C849.76,-506.41 834.3,-495.8 819.48,-485.63"/>
<polygon fill="#fee8d6" stroke="#fee8d6" points="821.07,-482.48 810.84,-479.7 817.11,-488.25 821.07,-482.48"/>
</g>
<!-- node0x57e36f540830 -->
<g id="node14" class="node">
<title>node0x57e36f540830</title>
<path fill="#ec9594" stroke="#fee8d6" d="M872,-387.5C872,-387.5 1042,-387.5 1042,-387.5 1048,-387.5 1054,-393.5 1054,-399.5 1054,-399.5 1054,-467.5 1054,-467.5 1054,-473.5 1048,-479.5 1042,-479.5 1042,-479.5 872,-479.5 872,-479.5 866,-479.5 860,-473.5 860,-467.5 860,-467.5 860,-399.5 860,-399.5 860,-393.5 866,-387.5 872,-387.5"/>
<text text-anchor="middle" x="957" y="-464.3" font-family="Times,serif" font-size="14.00">indx: 0x57e36f540830</text>
<polyline fill="none" stroke="#fee8d6" points="860,-456.5 1054,-456.5 "/>
<text text-anchor="middle" x="957" y="-441.3" font-family="Times,serif" font-size="14.00">value: ya hz</text>
<polyline fill="none" stroke="#fee8d6" points="860,-433.5 1054,-433.5 "/>
<text text-anchor="middle" x="957" y="-418.3" font-family="Times,serif" font-size="14.00">parent: 0x57e36f5407d0</text>
<polyline fill="none" stroke="#fee8d6" points="860,-410.5 1054,-410.5 "/>
<text text-anchor="middle" x="905.5" y="-395.3" font-family="Times,serif" font-size="14.00">left: (nil)</text>
<polyline fill="none" stroke="#fee8d6" points="951,-387.5 951,-410.5 "/>
<text text-anchor="middle" x="1002.5" y="-395.3" font-family="Times,serif" font-size="14.00">right: (nil)</text>
</g>
<!-- node0x57e36f5407d0&#45;&gt;node0x57e36f540830 -->
<g id="edge13" class="edge">
<title>node0x57e36f5407d0&#45;&gt;node0x57e36f540830</title>
<path fill="none" stroke="#fee8d6" d="M939.6,-516.37C941.42,-507.77 943.36,-498.68 945.24,-489.8"/>
<polygon fill="#fee8d6" stroke="#fee8d6" points="948.69,-490.42 947.34,-479.92 941.84,-488.97 948.69,-490.42"/>
</g>
<!-- node0x57e36f540890 -->
<g id="node16" class="node">
<title>node0x57e36f540890</title>
<path fill="#ec9594" stroke="#fee8d6" d="M1219.5,-516.5C1219.5,-516.5 1540.5,-516.5 1540.5,-516.5 1546.5,-516.5 1552.5,-522.5 1552.5,-528.5 1552.5,-528.5 1552.5,-596.5 1552.5,-596.5 1552.5,-602.5 1546.5,-608.5 1540.5,-608.5 1540.5,-608.5 1219.5,-608.5 1219.5,-608.5 1213.5,-608.5 1207.5,-602.5 1207.5,-596.5 1207.5,-596.5 1207.5,-528.5 1207.5,-528.5 1207.5,-522.5 1213.5,-516.5 1219.5,-516.5"/>
<text text-anchor="middle" x="1380" y="-593.3" font-family="Times,serif" font-size="14.00">indx: 0x57e36f540890</text>
<polyline fill="none" stroke="#fee8d6" points="1207.5,-585.5 1552.5,-585.5 "/>
<text text-anchor="middle" x="1380" y="-570.3" font-family="Times,serif" font-size="14.00">value: no</text>
<polyline fill="none" stroke="#fee8d6" points="1207.5,-562.5 1552.5,-562.5 "/>
<text text-anchor="middle" x="1380" y="-547.3" font-family="Times,serif" font-size="14.00">parent: 0x57e36f540860</text>
<polyline fill="none" stroke="#fee8d6" points="1207.5,-539.5 1552.5,-539.5 "/>
<text text-anchor="middle" x="1291" y="-524.3" font-family="Times,serif" font-size="14.00">left: 0x57e36f54aca0</text>
<polyline fill="none" stroke="#fee8d6" points="1374.5,-516.5 1374.5,-539.5 "/>
<text text-anchor="middle" x="1463.5" y="-524.3" font-family="Times,serif" font-size="14.00">right: 0x57e36f5408f0</text>
</g>
<!-- node0x57e36f540860&#45;&gt;node0x57e36f540890 -->
<g id="edge15" class="edge">
<title>node0x57e36f540860&#45;&gt;node0x57e36f540890</title>
<path fill="none" stroke="#fee8d6" d="M1380,-645.37C1380,-636.86 1380,-627.87 1380,-619.09"/>
<polygon fill="#fee8d6" stroke="#fee8d6" points="1383.5,-618.92 1380,-608.92 1376.5,-618.92 1383.5,-618.92"/>
</g>
<!-- node0x57e36f540920 -->
<g id="node21" class="node">
<title>node0x57e36f540920</title>
<path fill="#ec9594" stroke="#fee8d6" d="M1662.5,-516.5C1662.5,-516.5 1989.5,-516.5 1989.5,-516.5 1995.5,-516.5 2001.5,-522.5 2001.5,-528.5 2001.5,-528.5 2001.5,-596.5 2001.5,-596.5 2001.5,-602.5 1995.5,-608.5 1989.5,-608.5 1989.5,-608.5 1662.5,-608.5 1662.5,-608.5 1656.5,-608.5 1650.5,-602.5 1650.5,-596.5 1650.5,-596.5 1650.5,-528.5 1650.5,-528.5 1650.5,-522.5 1656.5,-516.5 1662.5,-516.5"/>
<text text-anchor="middle" x="1826" y="-593.3" font-family="Times,serif" font-size="14.00">indx: 0x57e36f540920</text>
<polyline fill="none" stroke="#fee8d6" points="1650.5,-585.5 2001.5,-585.5 "/>
<text text-anchor="middle" x="1826" y="-570.3" font-family="Times,serif" font-size="14.00">value: proga</text>
<polyline fill="none" stroke="#fee8d6" points="1650.5,-562.5 2001.5,-562.5 "/>
<text text-anchor="middle" x="1826" y="-547.3" font-family="Times,serif" font-size="14.00">parent: 0x57e36f540860</text>
<polyline fill="none" stroke="#fee8d6" points="1650.5,-539.5 2001.5,-539.5 "/>
<text text-anchor="middle" x="1735.5" y="-524.3" font-family="Times,serif" font-size="14.00">left: 0x57e36f540950</text>
<polyline fill="none" stroke="#fee8d6" points="1820.5,-516.5 1820.5,-539.5 "/>
<text text-anchor="middle" x="1911" y="-524.3" font-family="Times,serif" font-size="14.00">right: 0x57e36f5409e0</text>
</g>
<!-- node0x57e36f540860&#45;&gt;node0x57e36f540920 -->
<g id="edge20" class="edge">
<title>node0x57e36f540860&#45;&gt;node0x57e36f540920</title>
<path fill="none" stroke="#fee8d6" d="M1538.18,-645.46C1576.98,-634.41 1618.64,-622.55 1657.88,-611.37"/>
<polygon fill="#fee8d6" stroke="#fee8d6" points="1659.14,-614.65 1667.8,-608.55 1657.22,-607.92 1659.14,-614.65"/>
</g>
<!-- node0x57e36f54aca0 -->
<g id="node17" class="node">
<title>node0x57e36f54aca0</title>
<path fill="#ec9594" stroke="#fee8d6" d="M1084,-387.5C1084,-387.5 1408,-387.5 1408,-387.5 1414,-387.5 1420,-393.5 1420,-399.5 1420,-399.5 1420,-467.5 1420,-467.5 1420,-473.5 1414,-479.5 1408,-479.5 1408,-479.5 1084,-479.5 1084,-479.5 1078,-479.5 1072,-473.5 1072,-467.5 1072,-467.5 1072,-399.5 1072,-399.5 1072,-393.5 1078,-387.5 1084,-387.5"/>
<text text-anchor="middle" x="1246" y="-464.3" font-family="Times,serif" font-size="14.00">indx: 0x57e36f54aca0</text>
<polyline fill="none" stroke="#fee8d6" points="1072,-456.5 1420,-456.5 "/>
<text text-anchor="middle" x="1246" y="-441.3" font-family="Times,serif" font-size="14.00">value: lolol</text>
<polyline fill="none" stroke="#fee8d6" points="1072,-433.5 1420,-433.5 "/>
<text text-anchor="middle" x="1246" y="-418.3" font-family="Times,serif" font-size="14.00">parent: 0x57e36f540890</text>
<polyline fill="none" stroke="#fee8d6" points="1072,-410.5 1420,-410.5 "/>
<text text-anchor="middle" x="1156.5" y="-395.3" font-family="Times,serif" font-size="14.00">left: 0x57e36f5408c0</text>
<polyline fill="none" stroke="#fee8d6" points="1241,-387.5 1241,-410.5 "/>
<text text-anchor="middle" x="1330.5" y="-395.3" font-family="Times,serif" font-size="14.00">right: 0x57e36f54ac70</text>
</g>
<!-- node0x57e36f540890&#45;&gt;node0x57e36f54aca0 -->
<g id="edge16" class="edge">
<title>node0x57e36f540890&#45;&gt;node0x57e36f54aca0</title>
<path fill="none" stroke="#fee8d6" d="M1332.38,-516.37C1322.33,-506.84 1311.65,-496.72 1301.34,-486.95"/>
<polygon fill="#fee8d6" stroke="#fee8d6" points="1303.58,-484.25 1293.92,-479.92 1298.77,-489.33 1303.58,-484.25"/>
</g>
<!-- node0x57e36f5408f0 -->
<g id="node20" class="node">
<title>node0x57e36f5408f0</title>
<path fill="#ec9594" stroke="#fee8d6" d="M1450,-387.5C1450,-387.5 1620,-387.5 1620,-387.5 1626,-387.5 1632,-393.5 1632,-399.5 1632,-399.5 1632,-467.5 1632,-467.5 1632,-473.5 1626,-479.5 1620,-479.5 1620,-479.5 1450,-479.5 1450,-479.5 1444,-479.5 1438,-473.5 1438,-467.5 1438,-467.5 1438,-399.5 1438,-399.5 1438,-393.5 1444,-387.5 1450,-387.5"/>
<text text-anchor="middle" x="1535" y="-464.3" font-family="Times,serif" font-size="14.00">indx: 0x57e36f5408f0</text>
<polyline fill="none" stroke="#fee8d6" points="1438,-456.5 1632,-456.5 "/>
<text text-anchor="middle" x="1535" y="-441.3" font-family="Times,serif" font-size="14.00">value: yes</text>
<polyline fill="none" stroke="#fee8d6" points="1438,-433.5 1632,-433.5 "/>
<text text-anchor="middle" x="1535" y="-418.3" font-family="Times,serif" font-size="14.00">parent: 0x57e36f540890</text>
<polyline fill="none" stroke="#fee8d6" points="1438,-410.5 1632,-410.5 "/>
<text text-anchor="middle" x="1483.5" y="-395.3" font-family="Times,serif" font-size="14.00">left: (nil)</text>
<polyline fill="none" stroke="#fee8d6" points="1529,-387.5 1529,-410.5 "/>
<text text-anchor="middle" x="1580.5" y="-395.3" font-family="Times,serif" font-size="14.00">right: (nil)</text>
</g>
<!-- node0x57e36f540890&#45;&gt;node0x57e36f5408f0 -->
<g id="edge19" class="edge">
<title>node0x57e36f540890&#45;&gt;node0x57e36f5408f0</title>
<path fill="none" stroke="#fee8d6" d="M1435.08,-516.37C1447,-506.6 1459.7,-496.2 1471.9,-486.2"/>
<polygon fill="#fee8d6" stroke="#fee8d6" points="1474.32,-488.75 1479.83,-479.7 1469.88,-483.33 1474.32,-488.75"/>
</g>
<!-- node0x57e36f5408c0 -->
<g id="node18" class="node">
<title>node0x57e36f5408c0</title>
<path fill="#ec9594" stroke="#fee8d6" d="M1057.5,-258.5C1057.5,-258.5 1224.5,-258.5 1224.5,-258.5 1230.5,-258.5 1236.5,-264.5 1236.5,-270.5 1236.5,-270.5 1236.5,-338.5 1236.5,-338.5 1236.5,-344.5 1230.5,-350.5 1224.5,-350.5 1224.5,-350.5 1057.5,-350.5 1057.5,-350.5 1051.5,-350.5 1045.5,-344.5 1045.5,-338.5 1045.5,-338.5 1045.5,-270.5 1045.5,-270.5 1045.5,-264.5 1051.5,-258.5 1057.5,-258.5"/>
<text text-anchor="middle" x="1141" y="-335.3" font-family="Times,serif" font-size="14.00">indx: 0x57e36f5408c0</text>
<polyline fill="none" stroke="#fee8d6" points="1045.5,-327.5 1236.5,-327.5 "/>
<text text-anchor="middle" x="1141" y="-312.3" font-family="Times,serif" font-size="14.00">value: rt</text>
<polyline fill="none" stroke="#fee8d6" points="1045.5,-304.5 1236.5,-304.5 "/>
<text text-anchor="middle" x="1141" y="-289.3" font-family="Times,serif" font-size="14.00">parent: 0x57e36f54aca0</text>
<polyline fill="none" stroke="#fee8d6" points="1045.5,-281.5 1236.5,-281.5 "/>
<text text-anchor="middle" x="1090.5" y="-266.3" font-family="Times,serif" font-size="14.00">left: (nil)</text>
<polyline fill="none" stroke="#fee8d6" points="1135.5,-258.5 1135.5,-281.5 "/>
<text text-anchor="middle" x="1186" y="-266.3" font-family="Times,serif" font-size="14.00">right: (nil)</text>
</g>
<!-- node0x57e36f54aca0&#45;&gt;node0x57e36f5408c0 -->
<g id="edge17" class="edge">
<title>node0x57e36f54aca0&#45;&gt;node0x57e36f5408c0</title>
<path fill="none" stroke="#fee8d6" d="M1208.69,-387.37C1201.04,-378.12 1192.93,-368.31 1185.07,-358.8"/>
<polygon fill="#fee8d6" stroke="#fee8d6" points="1187.62,-356.39 1178.55,-350.92 1182.22,-360.85 1187.62,-356.39"/>
</g>
<!-- node0x57e36f54ac70 -->
<g id="node19" class="node">
<title>node0x57e36f54ac70</title>
<path fill="#ec9594" stroke="#fee8d6" d="M1266.5,-258.5C1266.5,-258.5 1433.5,-258.5 1433.5,-258.5 1439.5,-258.5 1445.5,-264.5 1445.5,-270.5 1445.5,-270.5 1445.5,-338.5 1445.5,-338.5 1445.5,-344.5 1439.5,-350.5 1433.5,-350.5 1433.5,-350.5 1266.5,-350.5 1266.5,-350.5 1260.5,-350.5 1254.5,-344.5 1254.5,-338.5 1254.5,-338.5 1254.5,-270.5 1254.5,-270.5 1254.5,-264.5 1260.5,-258.5 1266.5,-258.5"/>
<text text-anchor="middle" x="1350" y="-335.3" font-family="Times,serif" font-size="14.00">indx: 0x57e36f54ac70</text>
<polyline fill="none" stroke="#fee8d6" points="1254.5,-327.5 1445.5,-327.5 "/>
<text text-anchor="middle" x="1350" y="-312.3" font-family="Times,serif" font-size="14.00">value: lol</text>
<polyline fill="none" stroke="#fee8d6" points="1254.5,-304.5 1445.5,-304.5 "/>
<text text-anchor="middle" x="1350" y="-289.3" font-family="Times,serif" font-size="14.00">parent: 0x57e36f54aca0</text>
<polyline fill="none" stroke="#fee8d6" points="1254.5,-281.5 1445.5,-281.5 "/>
<text text-anchor="middle" x="1299.5" y="-266.3" font-family="Times,serif" font-size="14.00">left: (nil)</text>
<polyline fill="none" stroke="#fee8d6" points="1344.5,-258.5 1344.5,-281.5 "/>
<text text-anchor="middle" x="1395" y="-266.3" font-family="Times,serif" font-size="14.00">right: (nil)</text>
</g>
<!-- node0x57e36f54aca0&#45;&gt;node0x57e36f54ac70 -->
<g id="edge18" class="edge">
<title>node0x57e36f54aca0&#45;&gt;node0x57e36f54ac70</title>
<path fill="none" stroke="#fee8d6" d="M1282.96,-387.37C1290.53,-378.12 1298.57,-368.31 1306.35,-358.8"/>
<polygon fill="#fee8d6" stroke="#fee8d6" points="1309.18,-360.87 1312.81,-350.92 1303.77,-356.43 1309.18,-360.87"/>
</g>
<!-- node0x57e36f540950 -->
<g id="node22" class="node">
<title>node0x57e36f540950</title>
<path fill="#ec9594" stroke="#fee8d6" d="M1662,-387.5C1662,-387.5 1990,-387.5 1990,-387.5 1996,-387.5 2002,-393.5 2002,-399.5 2002,-399.5 2002,-467.5 2002,-467.5 2002,-473.5 1996,-479.5 1990,-479.5 1990,-479.5 1662,-479.5 1662,-479.5 1656,-479.5 1650,-473.5 1650,-467.5 1650,-467.5 1650,-399.5 1650,-399.5 1650,-393.5 1656,-387.5 1662,-387.5"/>
<text text-anchor="middle" x="1826" y="-464.3" font-family="Times,serif" font-size="14.00">indx: 0x57e36f540950</text>
<polyline fill="none" stroke="#fee8d6" points="1650,-456.5 2002,-456.5 "/>
<text text-anchor="middle" x="1826" y="-441.3" font-family="Times,serif" font-size="14.00">value: j</text>
<polyline fill="none" stroke="#fee8d6" points="1650,-433.5 2002,-433.5 "/>
<text text-anchor="middle" x="1826" y="-418.3" font-family="Times,serif" font-size="14.00">parent: 0x57e36f540920</text>
<polyline fill="none" stroke="#fee8d6" points="1650,-410.5 2002,-410.5 "/>
<text text-anchor="middle" x="1735" y="-395.3" font-family="Times,serif" font-size="14.00">left: 0x57e36f540980</text>
<polyline fill="none" stroke="#fee8d6" points="1820,-387.5 1820,-410.5 "/>
<text text-anchor="middle" x="1911" y="-395.3" font-family="Times,serif" font-size="14.00">right: 0x57e36f5409b0</text>
</g>
<!-- node0x57e36f540920&#45;&gt;node0x57e36f540950 -->
<g id="edge21" class="edge">
<title>node0x57e36f540920&#45;&gt;node0x57e36f540950</title>
<path fill="none" stroke="#fee8d6" d="M1826,-516.37C1826,-507.86 1826,-498.87 1826,-490.09"/>
<polygon fill="#fee8d6" stroke="#fee8d6" points="1829.5,-489.92 1826,-479.92 1822.5,-489.92 1829.5,-489.92"/>
</g>
<!-- node0x57e36f5409e0 -->
<g id="node25" class="node">
<title>node0x57e36f5409e0</title>
<path fill="#ec9594" stroke="#fee8d6" d="M2032,-387.5C2032,-387.5 2202,-387.5 2202,-387.5 2208,-387.5 2214,-393.5 2214,-399.5 2214,-399.5 2214,-467.5 2214,-467.5 2214,-473.5 2208,-479.5 2202,-479.5 2202,-479.5 2032,-479.5 2032,-479.5 2026,-479.5 2020,-473.5 2020,-467.5 2020,-467.5 2020,-399.5 2020,-399.5 2020,-393.5 2026,-387.5 2032,-387.5"/>
<text text-anchor="middle" x="2117" y="-464.3" font-family="Times,serif" font-size="14.00">indx: 0x57e36f5409e0</text>
<polyline fill="none" stroke="#fee8d6" points="2020,-456.5 2214,-456.5 "/>
<text text-anchor="middle" x="2117" y="-441.3" font-family="Times,serif" font-size="14.00">value: fupm</text>
<polyline fill="none" stroke="#fee8d6" points="2020,-433.5 2214,-433.5 "/>
<text text-anchor="middle" x="2117" y="-418.3" font-family="Times,serif" font-size="14.00">parent: 0x57e36f540920</text>
<polyline fill="none" stroke="#fee8d6" points="2020,-410.5 2214,-410.5 "/>
<text text-anchor="middle" x="2065.5" y="-395.3" font-family="Times,serif" font-size="14.00">left: (nil)</text>
<polyline fill="none" stroke="#fee8d6" points="2111,-387.5 2111,-410.5 "/>
<text text-anchor="middle" x="2162.5" y="-395.3" font-family="Times,serif" font-size="14.00">right: (nil)</text>
</g>
<!-- node0x57e36f540920&#45;&gt;node0x57e36f5409e0 -->
<g id="edge24" class="edge">
<title>node0x57e36f540920&#45;&gt;node0x57e36f5409e0</title>
<path fill="none" stroke="#fee8d6" d="M1929.42,-516.37C1955.72,-504.89 1984.03,-492.53 2010.49,-480.99"/>
<polygon fill="#fee8d6" stroke="#fee8d6" points="2011.99,-484.15 2019.76,-476.94 2009.19,-477.73 2011.99,-484.15"/>
</g>
<!-- node0x57e36f540980 -->
<g id="node23" class="node">
<title>node0x57e36f540980</title>
<path fill="#ec9594" stroke="#fee8d6" d="M1635,-258.5C1635,-258.5 1805,-258.5 1805,-258.5 1811,-258.5 1817,-264.5 1817,-270.5 1817,-270.5 1817,-338.5 1817,-338.5 1817,-344.5 1811,-350.5 1805,-350.5 1805,-350.5 1635,-350.5 1635,-350.5 1629,-350.5 1623,-344.5 1623,-338.5 1623,-338.5 1623,-270.5 1623,-270.5 1623,-264.5 1629,-258.5 1635,-258.5"/>
<text text-anchor="middle" x="1720" y="-335.3" font-family="Times,serif" font-size="14.00">indx: 0x57e36f540980</text>
<polyline fill="none" stroke="#fee8d6" points="1623,-327.5 1817,-327.5 "/>
<text text-anchor="middle" x="1720" y="-312.3" font-family="Times,serif" font-size="14.00">value: fopf</text>
<polyline fill="none" stroke="#fee8d6" points="1623,-304.5 1817,-304.5 "/>
<text text-anchor="middle" x="1720" y="-289.3" font-family="Times,serif" font-size="14.00">parent: 0x57e36f540950</text>
<polyline fill="none" stroke="#fee8d6" points="1623,-281.5 1817,-281.5 "/>
<text text-anchor="middle" x="1668.5" y="-266.3" font-family="Times,serif" font-size="14.00">left: (nil)</text>
<polyline fill="none" stroke="#fee8d6" points="1714,-258.5 1714,-281.5 "/>
<text text-anchor="middle" x="1765.5" y="-266.3" font-family="Times,serif" font-size="14.00">right: (nil)</text>
</g>
<!-- node0x57e36f540950&#45;&gt;node0x57e36f540980 -->
<g id="edge22" class="edge">
<title>node0x57e36f540950&#45;&gt;node0x57e36f540980</title>
<path fill="none" stroke="#fee8d6" d="M1788.33,-387.37C1780.61,-378.12 1772.42,-368.31 1764.49,-358.8"/>
<polygon fill="#fee8d6" stroke="#fee8d6" points="1767,-356.35 1757.91,-350.92 1761.63,-360.84 1767,-356.35"/>
</g>
<!-- node0x57e36f5409b0 -->
<g id="node24" class="node">
<title>node0x57e36f5409b0</title>
<path fill="#ec9594" stroke="#fee8d6" d="M1847,-258.5C1847,-258.5 2017,-258.5 2017,-258.5 2023,-258.5 2029,-264.5 2029,-270.5 2029,-270.5 2029,-338.5 2029,-338.5 2029,-344.5 2023,-350.5 2017,-350.5 2017,-350.5 1847,-350.5 1847,-350.5 1841,-350.5 1835,-344.5 1835,-338.5 1835,-338.5 1835,-270.5 1835,-270.5 1835,-264.5 1841,-258.5 1847,-258.5"/>
<text text-anchor="middle" x="1932" y="-335.3" font-family="Times,serif" font-size="14.00">indx: 0x57e36f5409b0</text>
<polyline fill="none" stroke="#fee8d6" points="1835,-327.5 2029,-327.5 "/>
<text text-anchor="middle" x="1932" y="-312.3" font-family="Times,serif" font-size="14.00">value: q</text>
<polyline fill="none" stroke="#fee8d6" points="1835,-304.5 2029,-304.5 "/>
<text text-anchor="middle" x="1932" y="-289.3" font-family="Times,serif" font-size="14.00">parent: 0x57e36f540950</text>
<polyline fill="none" stroke="#fee8d6" points="1835,-281.5 2029,-281.5 "/>
<text text-anchor="middle" x="1880.5" y="-266.3" font-family="Times,serif" font-size="14.00">left: (nil)</text>
<polyline fill="none" stroke="#fee8d6" points="1926,-258.5 1926,-281.5 "/>
<text text-anchor="middle" x="1977.5" y="-266.3" font-family="Times,serif" font-size="14.00">right: (nil)</text>
</g>
<!-- node0x57e36f540950&#45;&gt;node0x57e36f5409b0 -->
<g id="edge23" class="edge">
<title>node0x57e36f540950&#45;&gt;node0x57e36f5409b0</title>
<path fill="none" stroke="#fee8d6" d="M1863.67,-387.37C1871.39,-378.12 1879.58,-368.31 1887.51,-358.8"/>
<polygon fill="#fee8d6" stroke="#fee8d6" points="1890.37,-360.84 1894.09,-350.92 1885,-356.35 1890.37,-360.84"/>
</g>
</g>
</svg>
