<?xml version="1.0" encoding="UTF-8" standalone="no"?>
<!DOCTYPE svg PUBLIC "-//W3C//DTD SVG 1.1//EN"
 "http://www.w3.org/Graphics/SVG/1.1/DTD/svg11.dtd">
<!-- Generated by graphviz version 2.43.0 (0)
 -->
<!-- Title: Tree Pages: 1 -->
<svg width="1305pt" height="617pt"
 viewBox="0.00 0.00 1304.50 617.00" xmlns="http://www.w3.org/2000/svg" xmlns:xlink="http://www.w3.org/1999/xlink">
<g id="graph0" class="graph" transform="scale(1 1) rotate(0) translate(4 613)">
<title>Tree</title>
<polygon fill="#4984f9" stroke="transparent" points="-4,4 -4,-613 1300.5,-613 1300.5,4 -4,4"/>
<!-- node0x58de42b2b560 -->
<g id="node1" class="node">
<title>node0x58de42b2b560</title>
<path fill="#c0261c" stroke="#ffbe20" d="M646.5,-516.5C646.5,-516.5 981.5,-516.5 981.5,-516.5 987.5,-516.5 993.5,-522.5 993.5,-528.5 993.5,-528.5 993.5,-596.5 993.5,-596.5 993.5,-602.5 987.5,-608.5 981.5,-608.5 981.5,-608.5 646.5,-608.5 646.5,-608.5 640.5,-608.5 634.5,-602.5 634.5,-596.5 634.5,-596.5 634.5,-528.5 634.5,-528.5 634.5,-522.5 640.5,-516.5 646.5,-516.5"/>
<text text-anchor="middle" x="814" y="-593.3" font-family="Times,serif" font-size="14.00">indx: 0x58de42b2b560</text>
<polyline fill="none" stroke="#ffbe20" points="634.5,-585.5 993.5,-585.5 "/>
<text text-anchor="middle" x="814" y="-570.3" font-family="Times,serif" font-size="14.00">value: lega</text>
<polyline fill="none" stroke="#ffbe20" points="634.5,-562.5 993.5,-562.5 "/>
<text text-anchor="middle" x="814" y="-547.3" font-family="Times,serif" font-size="14.00">parent: (nil)</text>
<polyline fill="none" stroke="#ffbe20" points="634.5,-539.5 993.5,-539.5 "/>
<text text-anchor="middle" x="721.5" y="-524.3" font-family="Times,serif" font-size="14.00">left: 0x58de42b2b590</text>
<polyline fill="none" stroke="#ffbe20" points="808.5,-516.5 808.5,-539.5 "/>
<text text-anchor="middle" x="901" y="-524.3" font-family="Times,serif" font-size="14.00">right: 0x58de42b2b740</text>
</g>
<!-- node0x58de42b2b590 -->
<g id="node2" class="node">
<title>node0x58de42b2b590</title>
<path fill="#c0261c" stroke="#ffbe20" d="M459,-387.5C459,-387.5 793,-387.5 793,-387.5 799,-387.5 805,-393.5 805,-399.5 805,-399.5 805,-467.5 805,-467.5 805,-473.5 799,-479.5 793,-479.5 793,-479.5 459,-479.5 459,-479.5 453,-479.5 447,-473.5 447,-467.5 447,-467.5 447,-399.5 447,-399.5 447,-393.5 453,-387.5 459,-387.5"/>
<text text-anchor="middle" x="626" y="-464.3" font-family="Times,serif" font-size="14.00">indx: 0x58de42b2b590</text>
<polyline fill="none" stroke="#ffbe20" points="447,-456.5 805,-456.5 "/>
<text text-anchor="middle" x="626" y="-441.3" font-family="Times,serif" font-size="14.00">value: dal&#39;nik</text>
<polyline fill="none" stroke="#ffbe20" points="447,-433.5 805,-433.5 "/>
<text text-anchor="middle" x="626" y="-418.3" font-family="Times,serif" font-size="14.00">parent: 0x58de42b2b560</text>
<polyline fill="none" stroke="#ffbe20" points="447,-410.5 805,-410.5 "/>
<text text-anchor="middle" x="533.5" y="-395.3" font-family="Times,serif" font-size="14.00">left: 0x58de42b2b5c0</text>
<polyline fill="none" stroke="#ffbe20" points="620,-387.5 620,-410.5 "/>
<text text-anchor="middle" x="712.5" y="-395.3" font-family="Times,serif" font-size="14.00">right: 0x58de42b2b650</text>
</g>
<!-- node0x58de42b2b560&#45;&gt;node0x58de42b2b590 -->
<g id="edge1" class="edge">
<title>node0x58de42b2b560&#45;&gt;node0x58de42b2b590</title>
<path fill="none" stroke="#ffbe20" d="M747.19,-516.37C732.32,-506.32 716.45,-495.6 701.27,-485.35"/>
<polygon fill="#ffbe20" stroke="#ffbe20" points="703.16,-482.4 692.91,-479.7 699.24,-488.2 703.16,-482.4"/>
</g>
<!-- node0x58de42b2b740 -->
<g id="node11" class="node">
<title>node0x58de42b2b740</title>
<path fill="#c0261c" stroke="#ffbe20" d="M835.5,-387.5C835.5,-387.5 1170.5,-387.5 1170.5,-387.5 1176.5,-387.5 1182.5,-393.5 1182.5,-399.5 1182.5,-399.5 1182.5,-467.5 1182.5,-467.5 1182.5,-473.5 1176.5,-479.5 1170.5,-479.5 1170.5,-479.5 835.5,-479.5 835.5,-479.5 829.5,-479.5 823.5,-473.5 823.5,-467.5 823.5,-467.5 823.5,-399.5 823.5,-399.5 823.5,-393.5 829.5,-387.5 835.5,-387.5"/>
<text text-anchor="middle" x="1003" y="-464.3" font-family="Times,serif" font-size="14.00">indx: 0x58de42b2b740</text>
<polyline fill="none" stroke="#ffbe20" points="823.5,-456.5 1182.5,-456.5 "/>
<text text-anchor="middle" x="1003" y="-441.3" font-family="Times,serif" font-size="14.00">value: cactus</text>
<polyline fill="none" stroke="#ffbe20" points="823.5,-433.5 1182.5,-433.5 "/>
<text text-anchor="middle" x="1003" y="-418.3" font-family="Times,serif" font-size="14.00">parent: 0x58de42b2b560</text>
<polyline fill="none" stroke="#ffbe20" points="823.5,-410.5 1182.5,-410.5 "/>
<text text-anchor="middle" x="910.5" y="-395.3" font-family="Times,serif" font-size="14.00">left: 0x58de42b2b770</text>
<polyline fill="none" stroke="#ffbe20" points="997.5,-387.5 997.5,-410.5 "/>
<text text-anchor="middle" x="1090" y="-395.3" font-family="Times,serif" font-size="14.00">right: 0x58de42b2b7a0</text>
</g>
<!-- node0x58de42b2b560&#45;&gt;node0x58de42b2b740 -->
<g id="edge10" class="edge">
<title>node0x58de42b2b560&#45;&gt;node0x58de42b2b740</title>
<path fill="none" stroke="#ffbe20" d="M881.17,-516.37C896.12,-506.32 912.07,-495.6 927.33,-485.35"/>
<polygon fill="#ffbe20" stroke="#ffbe20" points="929.38,-488.18 935.73,-479.7 925.48,-482.37 929.38,-488.18"/>
</g>
<!-- node0x58de42b2b5c0 -->
<g id="node3" class="node">
<title>node0x58de42b2b5c0</title>
<path fill="#c0261c" stroke="#ffbe20" d="M106.5,-258.5C106.5,-258.5 437.5,-258.5 437.5,-258.5 443.5,-258.5 449.5,-264.5 449.5,-270.5 449.5,-270.5 449.5,-338.5 449.5,-338.5 449.5,-344.5 443.5,-350.5 437.5,-350.5 437.5,-350.5 106.5,-350.5 106.5,-350.5 100.5,-350.5 94.5,-344.5 94.5,-338.5 94.5,-338.5 94.5,-270.5 94.5,-270.5 94.5,-264.5 100.5,-258.5 106.5,-258.5"/>
<text text-anchor="middle" x="272" y="-335.3" font-family="Times,serif" font-size="14.00">indx: 0x58de42b2b5c0</text>
<polyline fill="none" stroke="#ffbe20" points="94.5,-327.5 449.5,-327.5 "/>
<text text-anchor="middle" x="272" y="-312.3" font-family="Times,serif" font-size="14.00">value: ne znay, sam pridumai</text>
<polyline fill="none" stroke="#ffbe20" points="94.5,-304.5 449.5,-304.5 "/>
<text text-anchor="middle" x="272" y="-289.3" font-family="Times,serif" font-size="14.00">parent: 0x58de42b2b590</text>
<polyline fill="none" stroke="#ffbe20" points="94.5,-281.5 449.5,-281.5 "/>
<text text-anchor="middle" x="179.5" y="-266.3" font-family="Times,serif" font-size="14.00">left: 0x58de42b2b5f0</text>
<polyline fill="none" stroke="#ffbe20" points="264.5,-258.5 264.5,-281.5 "/>
<text text-anchor="middle" x="357" y="-266.3" font-family="Times,serif" font-size="14.00">right: 0x58de42b2b620</text>
</g>
<!-- node0x58de42b2b590&#45;&gt;node0x58de42b2b5c0 -->
<g id="edge2" class="edge">
<title>node0x58de42b2b590&#45;&gt;node0x58de42b2b5c0</title>
<path fill="none" stroke="#ffbe20" d="M500.2,-387.37C470.03,-376.54 437.69,-364.94 407.12,-353.98"/>
<polygon fill="#ffbe20" stroke="#ffbe20" points="408.29,-350.68 397.7,-350.59 405.93,-357.27 408.29,-350.68"/>
</g>
<!-- node0x58de42b2b650 -->
<g id="node6" class="node">
<title>node0x58de42b2b650</title>
<path fill="#c0261c" stroke="#ffbe20" d="M479.5,-258.5C479.5,-258.5 814.5,-258.5 814.5,-258.5 820.5,-258.5 826.5,-264.5 826.5,-270.5 826.5,-270.5 826.5,-338.5 826.5,-338.5 826.5,-344.5 820.5,-350.5 814.5,-350.5 814.5,-350.5 479.5,-350.5 479.5,-350.5 473.5,-350.5 467.5,-344.5 467.5,-338.5 467.5,-338.5 467.5,-270.5 467.5,-270.5 467.5,-264.5 473.5,-258.5 479.5,-258.5"/>
<text text-anchor="middle" x="647" y="-335.3" font-family="Times,serif" font-size="14.00">indx: 0x58de42b2b650</text>
<polyline fill="none" stroke="#ffbe20" points="467.5,-327.5 826.5,-327.5 "/>
<text text-anchor="middle" x="647" y="-312.3" font-family="Times,serif" font-size="14.00">value: woman</text>
<polyline fill="none" stroke="#ffbe20" points="467.5,-304.5 826.5,-304.5 "/>
<text text-anchor="middle" x="647" y="-289.3" font-family="Times,serif" font-size="14.00">parent: 0x58de42b2b590</text>
<polyline fill="none" stroke="#ffbe20" points="467.5,-281.5 826.5,-281.5 "/>
<text text-anchor="middle" x="554.5" y="-266.3" font-family="Times,serif" font-size="14.00">left: 0x58de42b2b680</text>
<polyline fill="none" stroke="#ffbe20" points="641.5,-258.5 641.5,-281.5 "/>
<text text-anchor="middle" x="734" y="-266.3" font-family="Times,serif" font-size="14.00">right: 0x58de42b2b6b0</text>
</g>
<!-- node0x58de42b2b590&#45;&gt;node0x58de42b2b650 -->
<g id="edge5" class="edge">
<title>node0x58de42b2b590&#45;&gt;node0x58de42b2b650</title>
<path fill="none" stroke="#ffbe20" d="M633.46,-387.37C634.88,-378.77 636.39,-369.68 637.86,-360.8"/>
<polygon fill="#ffbe20" stroke="#ffbe20" points="641.31,-361.35 639.49,-350.92 634.41,-360.21 641.31,-361.35"/>
</g>
<!-- node0x58de42b2b5f0 -->
<g id="node4" class="node">
<title>node0x58de42b2b5f0</title>
<path fill="#c0261c" stroke="#ffbe20" d="M12,-129.5C12,-129.5 184,-129.5 184,-129.5 190,-129.5 196,-135.5 196,-141.5 196,-141.5 196,-209.5 196,-209.5 196,-215.5 190,-221.5 184,-221.5 184,-221.5 12,-221.5 12,-221.5 6,-221.5 0,-215.5 0,-209.5 0,-209.5 0,-141.5 0,-141.5 0,-135.5 6,-129.5 12,-129.5"/>
<text text-anchor="middle" x="98" y="-206.3" font-family="Times,serif" font-size="14.00">indx: 0x58de42b2b5f0</text>
<polyline fill="none" stroke="#ffbe20" points="0,-198.5 196,-198.5 "/>
<text text-anchor="middle" x="98" y="-183.3" font-family="Times,serif" font-size="14.00">value: shelly</text>
<polyline fill="none" stroke="#ffbe20" points="0,-175.5 196,-175.5 "/>
<text text-anchor="middle" x="98" y="-160.3" font-family="Times,serif" font-size="14.00">parent: 0x58de42b2b5c0</text>
<polyline fill="none" stroke="#ffbe20" points="0,-152.5 196,-152.5 "/>
<text text-anchor="middle" x="46" y="-137.3" font-family="Times,serif" font-size="14.00">left: (nil)</text>
<polyline fill="none" stroke="#ffbe20" points="92,-129.5 92,-152.5 "/>
<text text-anchor="middle" x="144" y="-137.3" font-family="Times,serif" font-size="14.00">right: (nil)</text>
</g>
<!-- node0x58de42b2b5c0&#45;&gt;node0x58de42b2b5f0 -->
<g id="edge3" class="edge">
<title>node0x58de42b2b5c0&#45;&gt;node0x58de42b2b5f0</title>
<path fill="none" stroke="#ffbe20" d="M210.16,-258.37C196.53,-248.41 181.99,-237.8 168.05,-227.63"/>
<polygon fill="#ffbe20" stroke="#ffbe20" points="170.07,-224.77 159.93,-221.7 165.94,-230.42 170.07,-224.77"/>
</g>
<!-- node0x58de42b2b620 -->
<g id="node5" class="node">
<title>node0x58de42b2b620</title>
<path fill="#c0261c" stroke="#ffbe20" d="M226,-129.5C226,-129.5 398,-129.5 398,-129.5 404,-129.5 410,-135.5 410,-141.5 410,-141.5 410,-209.5 410,-209.5 410,-215.5 404,-221.5 398,-221.5 398,-221.5 226,-221.5 226,-221.5 220,-221.5 214,-215.5 214,-209.5 214,-209.5 214,-141.5 214,-141.5 214,-135.5 220,-129.5 226,-129.5"/>
<text text-anchor="middle" x="312" y="-206.3" font-family="Times,serif" font-size="14.00">indx: 0x58de42b2b620</text>
<polyline fill="none" stroke="#ffbe20" points="214,-198.5 410,-198.5 "/>
<text text-anchor="middle" x="312" y="-183.3" font-family="Times,serif" font-size="14.00">value: ksukha</text>
<polyline fill="none" stroke="#ffbe20" points="214,-175.5 410,-175.5 "/>
<text text-anchor="middle" x="312" y="-160.3" font-family="Times,serif" font-size="14.00">parent: 0x58de42b2b5c0</text>
<polyline fill="none" stroke="#ffbe20" points="214,-152.5 410,-152.5 "/>
<text text-anchor="middle" x="260" y="-137.3" font-family="Times,serif" font-size="14.00">left: (nil)</text>
<polyline fill="none" stroke="#ffbe20" points="306,-129.5 306,-152.5 "/>
<text text-anchor="middle" x="358" y="-137.3" font-family="Times,serif" font-size="14.00">right: (nil)</text>
</g>
<!-- node0x58de42b2b5c0&#45;&gt;node0x58de42b2b620 -->
<g id="edge4" class="edge">
<title>node0x58de42b2b5c0&#45;&gt;node0x58de42b2b620</title>
<path fill="none" stroke="#ffbe20" d="M286.22,-258.37C288.95,-249.68 291.85,-240.48 294.67,-231.52"/>
<polygon fill="#ffbe20" stroke="#ffbe20" points="298.03,-232.51 297.7,-221.92 291.35,-230.4 298.03,-232.51"/>
</g>
<!-- node0x58de42b2b680 -->
<g id="node7" class="node">
<title>node0x58de42b2b680</title>
<path fill="#c0261c" stroke="#ffbe20" d="M520.5,-129.5C520.5,-129.5 693.5,-129.5 693.5,-129.5 699.5,-129.5 705.5,-135.5 705.5,-141.5 705.5,-141.5 705.5,-209.5 705.5,-209.5 705.5,-215.5 699.5,-221.5 693.5,-221.5 693.5,-221.5 520.5,-221.5 520.5,-221.5 514.5,-221.5 508.5,-215.5 508.5,-209.5 508.5,-209.5 508.5,-141.5 508.5,-141.5 508.5,-135.5 514.5,-129.5 520.5,-129.5"/>
<text text-anchor="middle" x="607" y="-206.3" font-family="Times,serif" font-size="14.00">indx: 0x58de42b2b680</text>
<polyline fill="none" stroke="#ffbe20" points="508.5,-198.5 705.5,-198.5 "/>
<text text-anchor="middle" x="607" y="-183.3" font-family="Times,serif" font-size="14.00">value: kolt</text>
<polyline fill="none" stroke="#ffbe20" points="508.5,-175.5 705.5,-175.5 "/>
<text text-anchor="middle" x="607" y="-160.3" font-family="Times,serif" font-size="14.00">parent: 0x58de42b2b650</text>
<polyline fill="none" stroke="#ffbe20" points="508.5,-152.5 705.5,-152.5 "/>
<text text-anchor="middle" x="555" y="-137.3" font-family="Times,serif" font-size="14.00">left: (nil)</text>
<polyline fill="none" stroke="#ffbe20" points="601.5,-129.5 601.5,-152.5 "/>
<text text-anchor="middle" x="653.5" y="-137.3" font-family="Times,serif" font-size="14.00">right: (nil)</text>
</g>
<!-- node0x58de42b2b650&#45;&gt;node0x58de42b2b680 -->
<g id="edge6" class="edge">
<title>node0x58de42b2b650&#45;&gt;node0x58de42b2b680</title>
<path fill="none" stroke="#ffbe20" d="M632.78,-258.37C630.05,-249.68 627.15,-240.48 624.33,-231.52"/>
<polygon fill="#ffbe20" stroke="#ffbe20" points="627.65,-230.4 621.3,-221.92 620.97,-232.51 627.65,-230.4"/>
</g>
<!-- node0x58de42b2b6b0 -->
<g id="node8" class="node">
<title>node0x58de42b2b6b0</title>
<path fill="#c0261c" stroke="#ffbe20" d="M736,-129.5C736,-129.5 1070,-129.5 1070,-129.5 1076,-129.5 1082,-135.5 1082,-141.5 1082,-141.5 1082,-209.5 1082,-209.5 1082,-215.5 1076,-221.5 1070,-221.5 1070,-221.5 736,-221.5 736,-221.5 730,-221.5 724,-215.5 724,-209.5 724,-209.5 724,-141.5 724,-141.5 724,-135.5 730,-129.5 736,-129.5"/>
<text text-anchor="middle" x="903" y="-206.3" font-family="Times,serif" font-size="14.00">indx: 0x58de42b2b6b0</text>
<polyline fill="none" stroke="#ffbe20" points="724,-198.5 1082,-198.5 "/>
<text text-anchor="middle" x="903" y="-183.3" font-family="Times,serif" font-size="14.00">value: electricity</text>
<polyline fill="none" stroke="#ffbe20" points="724,-175.5 1082,-175.5 "/>
<text text-anchor="middle" x="903" y="-160.3" font-family="Times,serif" font-size="14.00">parent: 0x58de42b2b650</text>
<polyline fill="none" stroke="#ffbe20" points="724,-152.5 1082,-152.5 "/>
<text text-anchor="middle" x="810.5" y="-137.3" font-family="Times,serif" font-size="14.00">left: 0x58de42b2b6e0</text>
<polyline fill="none" stroke="#ffbe20" points="897,-129.5 897,-152.5 "/>
<text text-anchor="middle" x="989.5" y="-137.3" font-family="Times,serif" font-size="14.00">right: 0x58de42b2b710</text>
</g>
<!-- node0x58de42b2b650&#45;&gt;node0x58de42b2b6b0 -->
<g id="edge7" class="edge">
<title>node0x58de42b2b650&#45;&gt;node0x58de42b2b6b0</title>
<path fill="none" stroke="#ffbe20" d="M737.98,-258.37C758.98,-247.95 781.43,-236.81 802.8,-226.21"/>
<polygon fill="#ffbe20" stroke="#ffbe20" points="804.48,-229.28 811.89,-221.7 801.37,-223.01 804.48,-229.28"/>
</g>
<!-- node0x58de42b2b6e0 -->
<g id="node9" class="node">
<title>node0x58de42b2b6e0</title>
<path fill="#c0261c" stroke="#ffbe20" d="M708.5,-0.5C708.5,-0.5 881.5,-0.5 881.5,-0.5 887.5,-0.5 893.5,-6.5 893.5,-12.5 893.5,-12.5 893.5,-80.5 893.5,-80.5 893.5,-86.5 887.5,-92.5 881.5,-92.5 881.5,-92.5 708.5,-92.5 708.5,-92.5 702.5,-92.5 696.5,-86.5 696.5,-80.5 696.5,-80.5 696.5,-12.5 696.5,-12.5 696.5,-6.5 702.5,-0.5 708.5,-0.5"/>
<text text-anchor="middle" x="795" y="-77.3" font-family="Times,serif" font-size="14.00">indx: 0x58de42b2b6e0</text>
<polyline fill="none" stroke="#ffbe20" points="696.5,-69.5 893.5,-69.5 "/>
<text text-anchor="middle" x="795" y="-54.3" font-family="Times,serif" font-size="14.00">value: piper</text>
<polyline fill="none" stroke="#ffbe20" points="696.5,-46.5 893.5,-46.5 "/>
<text text-anchor="middle" x="795" y="-31.3" font-family="Times,serif" font-size="14.00">parent: 0x58de42b2b6b0</text>
<polyline fill="none" stroke="#ffbe20" points="696.5,-23.5 893.5,-23.5 "/>
<text text-anchor="middle" x="743" y="-8.3" font-family="Times,serif" font-size="14.00">left: (nil)</text>
<polyline fill="none" stroke="#ffbe20" points="789.5,-0.5 789.5,-23.5 "/>
<text text-anchor="middle" x="841.5" y="-8.3" font-family="Times,serif" font-size="14.00">right: (nil)</text>
</g>
<!-- node0x58de42b2b6b0&#45;&gt;node0x58de42b2b6e0 -->
<g id="edge8" class="edge">
<title>node0x58de42b2b6b0&#45;&gt;node0x58de42b2b6e0</title>
<path fill="none" stroke="#ffbe20" d="M864.62,-129.37C856.76,-120.12 848.41,-110.31 840.33,-100.8"/>
<polygon fill="#ffbe20" stroke="#ffbe20" points="842.77,-98.27 833.62,-92.92 837.43,-102.8 842.77,-98.27"/>
</g>
<!-- node0x58de42b2b710 -->
<g id="node10" class="node">
<title>node0x58de42b2b710</title>
<path fill="#c0261c" stroke="#ffbe20" d="M923.5,-0.5C923.5,-0.5 1096.5,-0.5 1096.5,-0.5 1102.5,-0.5 1108.5,-6.5 1108.5,-12.5 1108.5,-12.5 1108.5,-80.5 1108.5,-80.5 1108.5,-86.5 1102.5,-92.5 1096.5,-92.5 1096.5,-92.5 923.5,-92.5 923.5,-92.5 917.5,-92.5 911.5,-86.5 911.5,-80.5 911.5,-80.5 911.5,-12.5 911.5,-12.5 911.5,-6.5 917.5,-0.5 923.5,-0.5"/>
<text text-anchor="middle" x="1010" y="-77.3" font-family="Times,serif" font-size="14.00">indx: 0x58de42b2b710</text>
<polyline fill="none" stroke="#ffbe20" points="911.5,-69.5 1108.5,-69.5 "/>
<text text-anchor="middle" x="1010" y="-54.3" font-family="Times,serif" font-size="14.00">value: bell&#39;</text>
<polyline fill="none" stroke="#ffbe20" points="911.5,-46.5 1108.5,-46.5 "/>
<text text-anchor="middle" x="1010" y="-31.3" font-family="Times,serif" font-size="14.00">parent: 0x58de42b2b6b0</text>
<polyline fill="none" stroke="#ffbe20" points="911.5,-23.5 1108.5,-23.5 "/>
<text text-anchor="middle" x="958" y="-8.3" font-family="Times,serif" font-size="14.00">left: (nil)</text>
<polyline fill="none" stroke="#ffbe20" points="1004.5,-0.5 1004.5,-23.5 "/>
<text text-anchor="middle" x="1056.5" y="-8.3" font-family="Times,serif" font-size="14.00">right: (nil)</text>
</g>
<!-- node0x58de42b2b6b0&#45;&gt;node0x58de42b2b710 -->
<g id="edge9" class="edge">
<title>node0x58de42b2b6b0&#45;&gt;node0x58de42b2b710</title>
<path fill="none" stroke="#ffbe20" d="M941.03,-129.37C948.82,-120.12 957.08,-110.31 965.09,-100.8"/>
<polygon fill="#ffbe20" stroke="#ffbe20" points="967.97,-102.82 971.74,-92.92 962.62,-98.31 967.97,-102.82"/>
</g>
<!-- node0x58de42b2b770 -->
<g id="node12" class="node">
<title>node0x58de42b2b770</title>
<path fill="#c0261c" stroke="#ffbe20" d="M896.5,-258.5C896.5,-258.5 1069.5,-258.5 1069.5,-258.5 1075.5,-258.5 1081.5,-264.5 1081.5,-270.5 1081.5,-270.5 1081.5,-338.5 1081.5,-338.5 1081.5,-344.5 1075.5,-350.5 1069.5,-350.5 1069.5,-350.5 896.5,-350.5 896.5,-350.5 890.5,-350.5 884.5,-344.5 884.5,-338.5 884.5,-338.5 884.5,-270.5 884.5,-270.5 884.5,-264.5 890.5,-258.5 896.5,-258.5"/>
<text text-anchor="middle" x="983" y="-335.3" font-family="Times,serif" font-size="14.00">indx: 0x58de42b2b770</text>
<polyline fill="none" stroke="#ffbe20" points="884.5,-327.5 1081.5,-327.5 "/>
<text text-anchor="middle" x="983" y="-312.3" font-family="Times,serif" font-size="14.00">value: leon</text>
<polyline fill="none" stroke="#ffbe20" points="884.5,-304.5 1081.5,-304.5 "/>
<text text-anchor="middle" x="983" y="-289.3" font-family="Times,serif" font-size="14.00">parent: 0x58de42b2b740</text>
<polyline fill="none" stroke="#ffbe20" points="884.5,-281.5 1081.5,-281.5 "/>
<text text-anchor="middle" x="931" y="-266.3" font-family="Times,serif" font-size="14.00">left: (nil)</text>
<polyline fill="none" stroke="#ffbe20" points="977.5,-258.5 977.5,-281.5 "/>
<text text-anchor="middle" x="1029.5" y="-266.3" font-family="Times,serif" font-size="14.00">right: (nil)</text>
</g>
<!-- node0x58de42b2b740&#45;&gt;node0x58de42b2b770 -->
<g id="edge11" class="edge">
<title>node0x58de42b2b740&#45;&gt;node0x58de42b2b770</title>
<path fill="none" stroke="#ffbe20" d="M995.89,-387.37C994.54,-378.77 993.11,-369.68 991.71,-360.8"/>
<polygon fill="#ffbe20" stroke="#ffbe20" points="995.17,-360.25 990.15,-350.92 988.25,-361.34 995.17,-360.25"/>
</g>
<!-- node0x58de42b2b7a0 -->
<g id="node13" class="node">
<title>node0x58de42b2b7a0</title>
<path fill="#c0261c" stroke="#ffbe20" d="M1111.5,-258.5C1111.5,-258.5 1284.5,-258.5 1284.5,-258.5 1290.5,-258.5 1296.5,-264.5 1296.5,-270.5 1296.5,-270.5 1296.5,-338.5 1296.5,-338.5 1296.5,-344.5 1290.5,-350.5 1284.5,-350.5 1284.5,-350.5 1111.5,-350.5 1111.5,-350.5 1105.5,-350.5 1099.5,-344.5 1099.5,-338.5 1099.5,-338.5 1099.5,-270.5 1099.5,-270.5 1099.5,-264.5 1105.5,-258.5 1111.5,-258.5"/>
<text text-anchor="middle" x="1198" y="-335.3" font-family="Times,serif" font-size="14.00">indx: 0x58de42b2b7a0</text>
<polyline fill="none" stroke="#ffbe20" points="1099.5,-327.5 1296.5,-327.5 "/>
<text text-anchor="middle" x="1198" y="-312.3" font-family="Times,serif" font-size="14.00">value: spike</text>
<polyline fill="none" stroke="#ffbe20" points="1099.5,-304.5 1296.5,-304.5 "/>
<text text-anchor="middle" x="1198" y="-289.3" font-family="Times,serif" font-size="14.00">parent: 0x58de42b2b740</text>
<polyline fill="none" stroke="#ffbe20" points="1099.5,-281.5 1296.5,-281.5 "/>
<text text-anchor="middle" x="1146" y="-266.3" font-family="Times,serif" font-size="14.00">left: (nil)</text>
<polyline fill="none" stroke="#ffbe20" points="1192.5,-258.5 1192.5,-281.5 "/>
<text text-anchor="middle" x="1244.5" y="-266.3" font-family="Times,serif" font-size="14.00">right: (nil)</text>
</g>
<!-- node0x58de42b2b740&#45;&gt;node0x58de42b2b7a0 -->
<g id="edge12" class="edge">
<title>node0x58de42b2b740&#45;&gt;node0x58de42b2b7a0</title>
<path fill="none" stroke="#ffbe20" d="M1072.3,-387.37C1087.72,-377.32 1104.18,-366.6 1119.93,-356.35"/>
<polygon fill="#ffbe20" stroke="#ffbe20" points="1122.13,-359.09 1128.6,-350.7 1118.31,-353.23 1122.13,-359.09"/>
</g>
</g>
</svg>
