<?xml version="1.0" encoding="UTF-8" standalone="no"?>
<!DOCTYPE svg PUBLIC "-//W3C//DTD SVG 1.1//EN"
 "http://www.w3.org/Graphics/SVG/1.1/DTD/svg11.dtd">
<!-- Generated by graphviz version 2.43.0 (0)
 -->
<!-- Title: Tree Pages: 1 -->
<svg width="1037pt" height="488pt"
 viewBox="0.00 0.00 1037.00 488.00" xmlns="http://www.w3.org/2000/svg" xmlns:xlink="http://www.w3.org/1999/xlink">
<g id="graph0" class="graph" transform="scale(1 1) rotate(0) translate(4 484)">
<title>Tree</title>
<polygon fill="#4984f9" stroke="transparent" points="-4,4 -4,-484 1033,-484 1033,4 -4,4"/>
<!-- node0x61f6045b6510 -->
<g id="node1" class="node">
<title>node0x61f6045b6510</title>
<path fill="#c0261c" stroke="#ffbe20" d="M389.5,-387.5C389.5,-387.5 718.5,-387.5 718.5,-387.5 724.5,-387.5 730.5,-393.5 730.5,-399.5 730.5,-399.5 730.5,-467.5 730.5,-467.5 730.5,-473.5 724.5,-479.5 718.5,-479.5 718.5,-479.5 389.5,-479.5 389.5,-479.5 383.5,-479.5 377.5,-473.5 377.5,-467.5 377.5,-467.5 377.5,-399.5 377.5,-399.5 377.5,-393.5 383.5,-387.5 389.5,-387.5"/>
<text text-anchor="middle" x="554" y="-464.3" font-family="Times,serif" font-size="14.00">indx: 0x61f6045b6510</text>
<polyline fill="none" stroke="#ffbe20" points="377.5,-456.5 730.5,-456.5 "/>
<text text-anchor="middle" x="554" y="-441.3" font-family="Times,serif" font-size="14.00">value: lega</text>
<polyline fill="none" stroke="#ffbe20" points="377.5,-433.5 730.5,-433.5 "/>
<text text-anchor="middle" x="554" y="-418.3" font-family="Times,serif" font-size="14.00">parent: (nil)</text>
<polyline fill="none" stroke="#ffbe20" points="377.5,-410.5 730.5,-410.5 "/>
<text text-anchor="middle" x="463" y="-395.3" font-family="Times,serif" font-size="14.00">left: 0x61f6045b6540</text>
<polyline fill="none" stroke="#ffbe20" points="548.5,-387.5 548.5,-410.5 "/>
<text text-anchor="middle" x="639.5" y="-395.3" font-family="Times,serif" font-size="14.00">right: 0x61f6045b6630</text>
</g>
<!-- node0x61f6045b6540 -->
<g id="node2" class="node">
<title>node0x61f6045b6540</title>
<path fill="#c0261c" stroke="#ffbe20" d="M204.5,-258.5C204.5,-258.5 533.5,-258.5 533.5,-258.5 539.5,-258.5 545.5,-264.5 545.5,-270.5 545.5,-270.5 545.5,-338.5 545.5,-338.5 545.5,-344.5 539.5,-350.5 533.5,-350.5 533.5,-350.5 204.5,-350.5 204.5,-350.5 198.5,-350.5 192.5,-344.5 192.5,-338.5 192.5,-338.5 192.5,-270.5 192.5,-270.5 192.5,-264.5 198.5,-258.5 204.5,-258.5"/>
<text text-anchor="middle" x="369" y="-335.3" font-family="Times,serif" font-size="14.00">indx: 0x61f6045b6540</text>
<polyline fill="none" stroke="#ffbe20" points="192.5,-327.5 545.5,-327.5 "/>
<text text-anchor="middle" x="369" y="-312.3" font-family="Times,serif" font-size="14.00">value: dal&#39;nik</text>
<polyline fill="none" stroke="#ffbe20" points="192.5,-304.5 545.5,-304.5 "/>
<text text-anchor="middle" x="369" y="-289.3" font-family="Times,serif" font-size="14.00">parent: 0x61f6045b6510</text>
<polyline fill="none" stroke="#ffbe20" points="192.5,-281.5 545.5,-281.5 "/>
<text text-anchor="middle" x="278" y="-266.3" font-family="Times,serif" font-size="14.00">left: 0x61f6045b6570</text>
<polyline fill="none" stroke="#ffbe20" points="363.5,-258.5 363.5,-281.5 "/>
<text text-anchor="middle" x="454.5" y="-266.3" font-family="Times,serif" font-size="14.00">right: 0x61f6045b65a0</text>
</g>
<!-- node0x61f6045b6510&#45;&gt;node0x61f6045b6540 -->
<g id="edge1" class="edge">
<title>node0x61f6045b6510&#45;&gt;node0x61f6045b6540</title>
<path fill="none" stroke="#ffbe20" d="M488.26,-387.37C473.76,-377.41 458.3,-366.8 443.48,-356.63"/>
<polygon fill="#ffbe20" stroke="#ffbe20" points="445.07,-353.48 434.84,-350.7 441.11,-359.25 445.07,-353.48"/>
</g>
<!-- node0x61f6045b6630 -->
<g id="node7" class="node">
<title>node0x61f6045b6630</title>
<path fill="#c0261c" stroke="#ffbe20" d="M575.5,-258.5C575.5,-258.5 904.5,-258.5 904.5,-258.5 910.5,-258.5 916.5,-264.5 916.5,-270.5 916.5,-270.5 916.5,-338.5 916.5,-338.5 916.5,-344.5 910.5,-350.5 904.5,-350.5 904.5,-350.5 575.5,-350.5 575.5,-350.5 569.5,-350.5 563.5,-344.5 563.5,-338.5 563.5,-338.5 563.5,-270.5 563.5,-270.5 563.5,-264.5 569.5,-258.5 575.5,-258.5"/>
<text text-anchor="middle" x="740" y="-335.3" font-family="Times,serif" font-size="14.00">indx: 0x61f6045b6630</text>
<polyline fill="none" stroke="#ffbe20" points="563.5,-327.5 916.5,-327.5 "/>
<text text-anchor="middle" x="740" y="-312.3" font-family="Times,serif" font-size="14.00">value: cactus</text>
<polyline fill="none" stroke="#ffbe20" points="563.5,-304.5 916.5,-304.5 "/>
<text text-anchor="middle" x="740" y="-289.3" font-family="Times,serif" font-size="14.00">parent: 0x61f6045b6510</text>
<polyline fill="none" stroke="#ffbe20" points="563.5,-281.5 916.5,-281.5 "/>
<text text-anchor="middle" x="649" y="-266.3" font-family="Times,serif" font-size="14.00">left: 0x61f6045b6660</text>
<polyline fill="none" stroke="#ffbe20" points="734.5,-258.5 734.5,-281.5 "/>
<text text-anchor="middle" x="825.5" y="-266.3" font-family="Times,serif" font-size="14.00">right: 0x61f6045b6690</text>
</g>
<!-- node0x61f6045b6510&#45;&gt;node0x61f6045b6630 -->
<g id="edge6" class="edge">
<title>node0x61f6045b6510&#45;&gt;node0x61f6045b6630</title>
<path fill="none" stroke="#ffbe20" d="M620.1,-387.37C634.81,-377.32 650.51,-366.6 665.53,-356.35"/>
<polygon fill="#ffbe20" stroke="#ffbe20" points="667.51,-359.23 673.8,-350.7 663.57,-353.45 667.51,-359.23"/>
</g>
<!-- node0x61f6045b6570 -->
<g id="node3" class="node">
<title>node0x61f6045b6570</title>
<path fill="#c0261c" stroke="#ffbe20" d="M12,-129.5C12,-129.5 182,-129.5 182,-129.5 188,-129.5 194,-135.5 194,-141.5 194,-141.5 194,-209.5 194,-209.5 194,-215.5 188,-221.5 182,-221.5 182,-221.5 12,-221.5 12,-221.5 6,-221.5 0,-215.5 0,-209.5 0,-209.5 0,-141.5 0,-141.5 0,-135.5 6,-129.5 12,-129.5"/>
<text text-anchor="middle" x="97" y="-206.3" font-family="Times,serif" font-size="14.00">indx: 0x61f6045b6570</text>
<polyline fill="none" stroke="#ffbe20" points="0,-198.5 194,-198.5 "/>
<text text-anchor="middle" x="97" y="-183.3" font-family="Times,serif" font-size="14.00">value: shelly</text>
<polyline fill="none" stroke="#ffbe20" points="0,-175.5 194,-175.5 "/>
<text text-anchor="middle" x="97" y="-160.3" font-family="Times,serif" font-size="14.00">parent: 0x61f6045b6540</text>
<polyline fill="none" stroke="#ffbe20" points="0,-152.5 194,-152.5 "/>
<text text-anchor="middle" x="45.5" y="-137.3" font-family="Times,serif" font-size="14.00">left: (nil)</text>
<polyline fill="none" stroke="#ffbe20" points="91,-129.5 91,-152.5 "/>
<text text-anchor="middle" x="142.5" y="-137.3" font-family="Times,serif" font-size="14.00">right: (nil)</text>
</g>
<!-- node0x61f6045b6540&#45;&gt;node0x61f6045b6570 -->
<g id="edge2" class="edge">
<title>node0x61f6045b6540&#45;&gt;node0x61f6045b6570</title>
<path fill="none" stroke="#ffbe20" d="M272.34,-258.37C249.92,-247.9 225.95,-236.71 203.16,-226.07"/>
<polygon fill="#ffbe20" stroke="#ffbe20" points="204.35,-222.76 193.81,-221.7 201.39,-229.1 204.35,-222.76"/>
</g>
<!-- node0x61f6045b65a0 -->
<g id="node4" class="node">
<title>node0x61f6045b65a0</title>
<path fill="#c0261c" stroke="#ffbe20" d="M224.5,-129.5C224.5,-129.5 553.5,-129.5 553.5,-129.5 559.5,-129.5 565.5,-135.5 565.5,-141.5 565.5,-141.5 565.5,-209.5 565.5,-209.5 565.5,-215.5 559.5,-221.5 553.5,-221.5 553.5,-221.5 224.5,-221.5 224.5,-221.5 218.5,-221.5 212.5,-215.5 212.5,-209.5 212.5,-209.5 212.5,-141.5 212.5,-141.5 212.5,-135.5 218.5,-129.5 224.5,-129.5"/>
<text text-anchor="middle" x="389" y="-206.3" font-family="Times,serif" font-size="14.00">indx: 0x61f6045b65a0</text>
<polyline fill="none" stroke="#ffbe20" points="212.5,-198.5 565.5,-198.5 "/>
<text text-anchor="middle" x="389" y="-183.3" font-family="Times,serif" font-size="14.00">value: woman</text>
<polyline fill="none" stroke="#ffbe20" points="212.5,-175.5 565.5,-175.5 "/>
<text text-anchor="middle" x="389" y="-160.3" font-family="Times,serif" font-size="14.00">parent: 0x61f6045b6540</text>
<polyline fill="none" stroke="#ffbe20" points="212.5,-152.5 565.5,-152.5 "/>
<text text-anchor="middle" x="298" y="-137.3" font-family="Times,serif" font-size="14.00">left: 0x61f6045b65d0</text>
<polyline fill="none" stroke="#ffbe20" points="383.5,-129.5 383.5,-152.5 "/>
<text text-anchor="middle" x="474.5" y="-137.3" font-family="Times,serif" font-size="14.00">right: 0x61f6045b6600</text>
</g>
<!-- node0x61f6045b6540&#45;&gt;node0x61f6045b65a0 -->
<g id="edge3" class="edge">
<title>node0x61f6045b6540&#45;&gt;node0x61f6045b65a0</title>
<path fill="none" stroke="#ffbe20" d="M376.11,-258.37C377.46,-249.77 378.89,-240.68 380.29,-231.8"/>
<polygon fill="#ffbe20" stroke="#ffbe20" points="383.75,-232.34 381.85,-221.92 376.83,-231.25 383.75,-232.34"/>
</g>
<!-- node0x61f6045b65d0 -->
<g id="node5" class="node">
<title>node0x61f6045b65d0</title>
<path fill="#c0261c" stroke="#ffbe20" d="M198,-0.5C198,-0.5 368,-0.5 368,-0.5 374,-0.5 380,-6.5 380,-12.5 380,-12.5 380,-80.5 380,-80.5 380,-86.5 374,-92.5 368,-92.5 368,-92.5 198,-92.5 198,-92.5 192,-92.5 186,-86.5 186,-80.5 186,-80.5 186,-12.5 186,-12.5 186,-6.5 192,-0.5 198,-0.5"/>
<text text-anchor="middle" x="283" y="-77.3" font-family="Times,serif" font-size="14.00">indx: 0x61f6045b65d0</text>
<polyline fill="none" stroke="#ffbe20" points="186,-69.5 380,-69.5 "/>
<text text-anchor="middle" x="283" y="-54.3" font-family="Times,serif" font-size="14.00">value: kolt</text>
<polyline fill="none" stroke="#ffbe20" points="186,-46.5 380,-46.5 "/>
<text text-anchor="middle" x="283" y="-31.3" font-family="Times,serif" font-size="14.00">parent: 0x61f6045b65a0</text>
<polyline fill="none" stroke="#ffbe20" points="186,-23.5 380,-23.5 "/>
<text text-anchor="middle" x="231.5" y="-8.3" font-family="Times,serif" font-size="14.00">left: (nil)</text>
<polyline fill="none" stroke="#ffbe20" points="277,-0.5 277,-23.5 "/>
<text text-anchor="middle" x="328.5" y="-8.3" font-family="Times,serif" font-size="14.00">right: (nil)</text>
</g>
<!-- node0x61f6045b65a0&#45;&gt;node0x61f6045b65d0 -->
<g id="edge4" class="edge">
<title>node0x61f6045b65a0&#45;&gt;node0x61f6045b65d0</title>
<path fill="none" stroke="#ffbe20" d="M351.33,-129.37C343.61,-120.12 335.42,-110.31 327.49,-100.8"/>
<polygon fill="#ffbe20" stroke="#ffbe20" points="330,-98.35 320.91,-92.92 324.63,-102.84 330,-98.35"/>
</g>
<!-- node0x61f6045b6600 -->
<g id="node6" class="node">
<title>node0x61f6045b6600</title>
<path fill="#c0261c" stroke="#ffbe20" d="M410,-0.5C410,-0.5 580,-0.5 580,-0.5 586,-0.5 592,-6.5 592,-12.5 592,-12.5 592,-80.5 592,-80.5 592,-86.5 586,-92.5 580,-92.5 580,-92.5 410,-92.5 410,-92.5 404,-92.5 398,-86.5 398,-80.5 398,-80.5 398,-12.5 398,-12.5 398,-6.5 404,-0.5 410,-0.5"/>
<text text-anchor="middle" x="495" y="-77.3" font-family="Times,serif" font-size="14.00">indx: 0x61f6045b6600</text>
<polyline fill="none" stroke="#ffbe20" points="398,-69.5 592,-69.5 "/>
<text text-anchor="middle" x="495" y="-54.3" font-family="Times,serif" font-size="14.00">value: piper</text>
<polyline fill="none" stroke="#ffbe20" points="398,-46.5 592,-46.5 "/>
<text text-anchor="middle" x="495" y="-31.3" font-family="Times,serif" font-size="14.00">parent: 0x61f6045b65a0</text>
<polyline fill="none" stroke="#ffbe20" points="398,-23.5 592,-23.5 "/>
<text text-anchor="middle" x="443.5" y="-8.3" font-family="Times,serif" font-size="14.00">left: (nil)</text>
<polyline fill="none" stroke="#ffbe20" points="489,-0.5 489,-23.5 "/>
<text text-anchor="middle" x="540.5" y="-8.3" font-family="Times,serif" font-size="14.00">right: (nil)</text>
</g>
<!-- node0x61f6045b65a0&#45;&gt;node0x61f6045b6600 -->
<g id="edge5" class="edge">
<title>node0x61f6045b65a0&#45;&gt;node0x61f6045b6600</title>
<path fill="none" stroke="#ffbe20" d="M426.67,-129.37C434.39,-120.12 442.58,-110.31 450.51,-100.8"/>
<polygon fill="#ffbe20" stroke="#ffbe20" points="453.37,-102.84 457.09,-92.92 448,-98.35 453.37,-102.84"/>
</g>
<!-- node0x61f6045b6660 -->
<g id="node8" class="node">
<title>node0x61f6045b6660</title>
<path fill="#c0261c" stroke="#ffbe20" d="M635,-129.5C635,-129.5 805,-129.5 805,-129.5 811,-129.5 817,-135.5 817,-141.5 817,-141.5 817,-209.5 817,-209.5 817,-215.5 811,-221.5 805,-221.5 805,-221.5 635,-221.5 635,-221.5 629,-221.5 623,-215.5 623,-209.5 623,-209.5 623,-141.5 623,-141.5 623,-135.5 629,-129.5 635,-129.5"/>
<text text-anchor="middle" x="720" y="-206.3" font-family="Times,serif" font-size="14.00">indx: 0x61f6045b6660</text>
<polyline fill="none" stroke="#ffbe20" points="623,-198.5 817,-198.5 "/>
<text text-anchor="middle" x="720" y="-183.3" font-family="Times,serif" font-size="14.00">value: leon</text>
<polyline fill="none" stroke="#ffbe20" points="623,-175.5 817,-175.5 "/>
<text text-anchor="middle" x="720" y="-160.3" font-family="Times,serif" font-size="14.00">parent: 0x61f6045b6630</text>
<polyline fill="none" stroke="#ffbe20" points="623,-152.5 817,-152.5 "/>
<text text-anchor="middle" x="668.5" y="-137.3" font-family="Times,serif" font-size="14.00">left: (nil)</text>
<polyline fill="none" stroke="#ffbe20" points="714,-129.5 714,-152.5 "/>
<text text-anchor="middle" x="765.5" y="-137.3" font-family="Times,serif" font-size="14.00">right: (nil)</text>
</g>
<!-- node0x61f6045b6630&#45;&gt;node0x61f6045b6660 -->
<g id="edge7" class="edge">
<title>node0x61f6045b6630&#45;&gt;node0x61f6045b6660</title>
<path fill="none" stroke="#ffbe20" d="M732.89,-258.37C731.54,-249.77 730.11,-240.68 728.71,-231.8"/>
<polygon fill="#ffbe20" stroke="#ffbe20" points="732.17,-231.25 727.15,-221.92 725.25,-232.34 732.17,-231.25"/>
</g>
<!-- node0x61f6045b6690 -->
<g id="node9" class="node">
<title>node0x61f6045b6690</title>
<path fill="#c0261c" stroke="#ffbe20" d="M847,-129.5C847,-129.5 1017,-129.5 1017,-129.5 1023,-129.5 1029,-135.5 1029,-141.5 1029,-141.5 1029,-209.5 1029,-209.5 1029,-215.5 1023,-221.5 1017,-221.5 1017,-221.5 847,-221.5 847,-221.5 841,-221.5 835,-215.5 835,-209.5 835,-209.5 835,-141.5 835,-141.5 835,-135.5 841,-129.5 847,-129.5"/>
<text text-anchor="middle" x="932" y="-206.3" font-family="Times,serif" font-size="14.00">indx: 0x61f6045b6690</text>
<polyline fill="none" stroke="#ffbe20" points="835,-198.5 1029,-198.5 "/>
<text text-anchor="middle" x="932" y="-183.3" font-family="Times,serif" font-size="14.00">value: spike</text>
<polyline fill="none" stroke="#ffbe20" points="835,-175.5 1029,-175.5 "/>
<text text-anchor="middle" x="932" y="-160.3" font-family="Times,serif" font-size="14.00">parent: 0x61f6045b6630</text>
<polyline fill="none" stroke="#ffbe20" points="835,-152.5 1029,-152.5 "/>
<text text-anchor="middle" x="880.5" y="-137.3" font-family="Times,serif" font-size="14.00">left: (nil)</text>
<polyline fill="none" stroke="#ffbe20" points="926,-129.5 926,-152.5 "/>
<text text-anchor="middle" x="977.5" y="-137.3" font-family="Times,serif" font-size="14.00">right: (nil)</text>
</g>
<!-- node0x61f6045b6630&#45;&gt;node0x61f6045b6690 -->
<g id="edge8" class="edge">
<title>node0x61f6045b6630&#45;&gt;node0x61f6045b6690</title>
<path fill="none" stroke="#ffbe20" d="M808.23,-258.37C823.42,-248.32 839.62,-237.6 855.13,-227.35"/>
<polygon fill="#ffbe20" stroke="#ffbe20" points="857.25,-230.14 863.66,-221.7 853.39,-224.3 857.25,-230.14"/>
</g>
</g>
</svg>
