<?xml version="1.0" encoding="UTF-8" standalone="no"?>
<!DOCTYPE svg PUBLIC "-//W3C//DTD SVG 1.1//EN"
 "http://www.w3.org/Graphics/SVG/1.1/DTD/svg11.dtd">
<!-- Generated by graphviz version 2.43.0 (0)
 -->
<!-- Title: Tree Pages: 1 -->
<svg width="2396pt" height="875pt"
 viewBox="0.00 0.00 2395.50 875.00" xmlns="http://www.w3.org/2000/svg" xmlns:xlink="http://www.w3.org/1999/xlink">
<g id="graph0" class="graph" transform="scale(1 1) rotate(0) translate(4 871)">
<title>Tree</title>
<polygon fill="#0f0000" stroke="transparent" points="-4,4 -4,-871 2391.5,-871 2391.5,4 -4,4"/>
<!-- node0x5f26a8af45f0 -->
<g id="node1" class="node">
<title>node0x5f26a8af45f0</title>
<path fill="#ec9594" stroke="#fee8d6" d="M1105,-774.5C1105,-774.5 1420,-774.5 1420,-774.5 1426,-774.5 1432,-780.5 1432,-786.5 1432,-786.5 1432,-854.5 1432,-854.5 1432,-860.5 1426,-866.5 1420,-866.5 1420,-866.5 1105,-866.5 1105,-866.5 1099,-866.5 1093,-860.5 1093,-854.5 1093,-854.5 1093,-786.5 1093,-786.5 1093,-780.5 1099,-774.5 1105,-774.5"/>
<text text-anchor="middle" x="1262.5" y="-851.3" font-family="Times,serif" font-size="14.00">indx: 0x5f26a8af45f0</text>
<polyline fill="none" stroke="#fee8d6" points="1093,-843.5 1432,-843.5 "/>
<text text-anchor="middle" x="1262.5" y="-828.3" font-family="Times,serif" font-size="14.00">value: mipt</text>
<polyline fill="none" stroke="#fee8d6" points="1093,-820.5 1432,-820.5 "/>
<text text-anchor="middle" x="1262.5" y="-805.3" font-family="Times,serif" font-size="14.00">parent: (nil)</text>
<polyline fill="none" stroke="#fee8d6" points="1093,-797.5 1432,-797.5 "/>
<text text-anchor="middle" x="1176" y="-782.3" font-family="Times,serif" font-size="14.00">left: 0x5f26a8af4620</text>
<polyline fill="none" stroke="#fee8d6" points="1259,-774.5 1259,-797.5 "/>
<text text-anchor="middle" x="1345.5" y="-782.3" font-family="Times,serif" font-size="14.00">right: 0x5f26a8af48f0</text>
</g>
<!-- node0x5f26a8af4620 -->
<g id="node2" class="node">
<title>node0x5f26a8af4620</title>
<path fill="#ec9594" stroke="#fee8d6" d="M858,-645.5C858,-645.5 1177,-645.5 1177,-645.5 1183,-645.5 1189,-651.5 1189,-657.5 1189,-657.5 1189,-725.5 1189,-725.5 1189,-731.5 1183,-737.5 1177,-737.5 1177,-737.5 858,-737.5 858,-737.5 852,-737.5 846,-731.5 846,-725.5 846,-725.5 846,-657.5 846,-657.5 846,-651.5 852,-645.5 858,-645.5"/>
<text text-anchor="middle" x="1017.5" y="-722.3" font-family="Times,serif" font-size="14.00">indx: 0x5f26a8af4620</text>
<polyline fill="none" stroke="#fee8d6" points="846,-714.5 1189,-714.5 "/>
<text text-anchor="middle" x="1017.5" y="-699.3" font-family="Times,serif" font-size="14.00">value: no</text>
<polyline fill="none" stroke="#fee8d6" points="846,-691.5 1189,-691.5 "/>
<text text-anchor="middle" x="1017.5" y="-676.3" font-family="Times,serif" font-size="14.00">parent: 0x5f26a8af45f0</text>
<polyline fill="none" stroke="#fee8d6" points="846,-668.5 1189,-668.5 "/>
<text text-anchor="middle" x="929" y="-653.3" font-family="Times,serif" font-size="14.00">left: 0x5f26a8af4650</text>
<polyline fill="none" stroke="#fee8d6" points="1012,-645.5 1012,-668.5 "/>
<text text-anchor="middle" x="1100.5" y="-653.3" font-family="Times,serif" font-size="14.00">right: 0x5f26a8af4800</text>
</g>
<!-- node0x5f26a8af45f0&#45;&gt;node0x5f26a8af4620 -->
<g id="edge1" class="edge">
<title>node0x5f26a8af45f0&#45;&gt;node0x5f26a8af4620</title>
<path fill="none" stroke="#fee8d6" d="M1175.43,-774.37C1155.42,-764 1134.04,-752.91 1113.67,-742.35"/>
<polygon fill="#fee8d6" stroke="#fee8d6" points="1115.19,-739.2 1104.7,-737.7 1111.97,-745.41 1115.19,-739.2"/>
</g>
<!-- node0x5f26a8af48f0 -->
<g id="node17" class="node">
<title>node0x5f26a8af48f0</title>
<path fill="#ec9594" stroke="#fee8d6" d="M1387.5,-645.5C1387.5,-645.5 1705.5,-645.5 1705.5,-645.5 1711.5,-645.5 1717.5,-651.5 1717.5,-657.5 1717.5,-657.5 1717.5,-725.5 1717.5,-725.5 1717.5,-731.5 1711.5,-737.5 1705.5,-737.5 1705.5,-737.5 1387.5,-737.5 1387.5,-737.5 1381.5,-737.5 1375.5,-731.5 1375.5,-725.5 1375.5,-725.5 1375.5,-657.5 1375.5,-657.5 1375.5,-651.5 1381.5,-645.5 1387.5,-645.5"/>
<text text-anchor="middle" x="1546.5" y="-722.3" font-family="Times,serif" font-size="14.00">indx: 0x5f26a8af48f0</text>
<polyline fill="none" stroke="#fee8d6" points="1375.5,-714.5 1717.5,-714.5 "/>
<text text-anchor="middle" x="1546.5" y="-699.3" font-family="Times,serif" font-size="14.00">value: huinya</text>
<polyline fill="none" stroke="#fee8d6" points="1375.5,-691.5 1717.5,-691.5 "/>
<text text-anchor="middle" x="1546.5" y="-676.3" font-family="Times,serif" font-size="14.00">parent: 0x5f26a8af45f0</text>
<polyline fill="none" stroke="#fee8d6" points="1375.5,-668.5 1717.5,-668.5 "/>
<text text-anchor="middle" x="1458.5" y="-653.3" font-family="Times,serif" font-size="14.00">left: 0x5f26a8af4920</text>
<polyline fill="none" stroke="#fee8d6" points="1541.5,-645.5 1541.5,-668.5 "/>
<text text-anchor="middle" x="1629.5" y="-653.3" font-family="Times,serif" font-size="14.00">right: 0x5f26a8af4a10</text>
</g>
<!-- node0x5f26a8af45f0&#45;&gt;node0x5f26a8af48f0 -->
<g id="edge16" class="edge">
<title>node0x5f26a8af45f0&#45;&gt;node0x5f26a8af48f0</title>
<path fill="none" stroke="#fee8d6" d="M1363.43,-774.37C1386.93,-763.86 1412.08,-752.61 1435.98,-741.92"/>
<polygon fill="#fee8d6" stroke="#fee8d6" points="1437.72,-744.98 1445.42,-737.7 1434.86,-738.59 1437.72,-744.98"/>
</g>
<!-- node0x5f26a8af4650 -->
<g id="node3" class="node">
<title>node0x5f26a8af4650</title>
<path fill="#ec9594" stroke="#fee8d6" d="M432,-516.5C432,-516.5 751,-516.5 751,-516.5 757,-516.5 763,-522.5 763,-528.5 763,-528.5 763,-596.5 763,-596.5 763,-602.5 757,-608.5 751,-608.5 751,-608.5 432,-608.5 432,-608.5 426,-608.5 420,-602.5 420,-596.5 420,-596.5 420,-528.5 420,-528.5 420,-522.5 426,-516.5 432,-516.5"/>
<text text-anchor="middle" x="591.5" y="-593.3" font-family="Times,serif" font-size="14.00">indx: 0x5f26a8af4650</text>
<polyline fill="none" stroke="#fee8d6" points="420,-585.5 763,-585.5 "/>
<text text-anchor="middle" x="591.5" y="-570.3" font-family="Times,serif" font-size="14.00">value: ne</text>
<polyline fill="none" stroke="#fee8d6" points="420,-562.5 763,-562.5 "/>
<text text-anchor="middle" x="591.5" y="-547.3" font-family="Times,serif" font-size="14.00">parent: 0x5f26a8af4620</text>
<polyline fill="none" stroke="#fee8d6" points="420,-539.5 763,-539.5 "/>
<text text-anchor="middle" x="503" y="-524.3" font-family="Times,serif" font-size="14.00">left: 0x5f26a8af4680</text>
<polyline fill="none" stroke="#fee8d6" points="586,-516.5 586,-539.5 "/>
<text text-anchor="middle" x="674.5" y="-524.3" font-family="Times,serif" font-size="14.00">right: 0x5f26a8af47d0</text>
</g>
<!-- node0x5f26a8af4620&#45;&gt;node0x5f26a8af4650 -->
<g id="edge2" class="edge">
<title>node0x5f26a8af4620&#45;&gt;node0x5f26a8af4650</title>
<path fill="none" stroke="#fee8d6" d="M866.41,-645.46C829.51,-634.46 789.9,-622.65 752.56,-611.52"/>
<polygon fill="#fee8d6" stroke="#fee8d6" points="753.19,-608.05 742.61,-608.55 751.19,-614.76 753.19,-608.05"/>
</g>
<!-- node0x5f26a8af4800 -->
<g id="node12" class="node">
<title>node0x5f26a8af4800</title>
<path fill="#ec9594" stroke="#fee8d6" d="M858.5,-516.5C858.5,-516.5 1176.5,-516.5 1176.5,-516.5 1182.5,-516.5 1188.5,-522.5 1188.5,-528.5 1188.5,-528.5 1188.5,-596.5 1188.5,-596.5 1188.5,-602.5 1182.5,-608.5 1176.5,-608.5 1176.5,-608.5 858.5,-608.5 858.5,-608.5 852.5,-608.5 846.5,-602.5 846.5,-596.5 846.5,-596.5 846.5,-528.5 846.5,-528.5 846.5,-522.5 852.5,-516.5 858.5,-516.5"/>
<text text-anchor="middle" x="1017.5" y="-593.3" font-family="Times,serif" font-size="14.00">indx: 0x5f26a8af4800</text>
<polyline fill="none" stroke="#fee8d6" points="846.5,-585.5 1188.5,-585.5 "/>
<text text-anchor="middle" x="1017.5" y="-570.3" font-family="Times,serif" font-size="14.00">value: kk kk kk</text>
<polyline fill="none" stroke="#fee8d6" points="846.5,-562.5 1188.5,-562.5 "/>
<text text-anchor="middle" x="1017.5" y="-547.3" font-family="Times,serif" font-size="14.00">parent: 0x5f26a8af4620</text>
<polyline fill="none" stroke="#fee8d6" points="846.5,-539.5 1188.5,-539.5 "/>
<text text-anchor="middle" x="929.5" y="-524.3" font-family="Times,serif" font-size="14.00">left: 0x5f26a8af4830</text>
<polyline fill="none" stroke="#fee8d6" points="1012.5,-516.5 1012.5,-539.5 "/>
<text text-anchor="middle" x="1100.5" y="-524.3" font-family="Times,serif" font-size="14.00">right: 0x5f26a8af48c0</text>
</g>
<!-- node0x5f26a8af4620&#45;&gt;node0x5f26a8af4800 -->
<g id="edge11" class="edge">
<title>node0x5f26a8af4620&#45;&gt;node0x5f26a8af4800</title>
<path fill="none" stroke="#fee8d6" d="M1017.5,-645.37C1017.5,-636.86 1017.5,-627.87 1017.5,-619.09"/>
<polygon fill="#fee8d6" stroke="#fee8d6" points="1021,-618.92 1017.5,-608.92 1014,-618.92 1021,-618.92"/>
</g>
<!-- node0x5f26a8af4680 -->
<g id="node4" class="node">
<title>node0x5f26a8af4680</title>
<path fill="#ec9594" stroke="#fee8d6" d="M148.5,-387.5C148.5,-387.5 466.5,-387.5 466.5,-387.5 472.5,-387.5 478.5,-393.5 478.5,-399.5 478.5,-399.5 478.5,-467.5 478.5,-467.5 478.5,-473.5 472.5,-479.5 466.5,-479.5 466.5,-479.5 148.5,-479.5 148.5,-479.5 142.5,-479.5 136.5,-473.5 136.5,-467.5 136.5,-467.5 136.5,-399.5 136.5,-399.5 136.5,-393.5 142.5,-387.5 148.5,-387.5"/>
<text text-anchor="middle" x="307.5" y="-464.3" font-family="Times,serif" font-size="14.00">indx: 0x5f26a8af4680</text>
<polyline fill="none" stroke="#fee8d6" points="136.5,-456.5 478.5,-456.5 "/>
<text text-anchor="middle" x="307.5" y="-441.3" font-family="Times,serif" font-size="14.00">value: black</text>
<polyline fill="none" stroke="#fee8d6" points="136.5,-433.5 478.5,-433.5 "/>
<text text-anchor="middle" x="307.5" y="-418.3" font-family="Times,serif" font-size="14.00">parent: 0x5f26a8af4650</text>
<polyline fill="none" stroke="#fee8d6" points="136.5,-410.5 478.5,-410.5 "/>
<text text-anchor="middle" x="219.5" y="-395.3" font-family="Times,serif" font-size="14.00">left: 0x5f26a8af46b0</text>
<polyline fill="none" stroke="#fee8d6" points="302.5,-387.5 302.5,-410.5 "/>
<text text-anchor="middle" x="390.5" y="-395.3" font-family="Times,serif" font-size="14.00">right: 0x5f26a8af46e0</text>
</g>
<!-- node0x5f26a8af4650&#45;&gt;node0x5f26a8af4680 -->
<g id="edge3" class="edge">
<title>node0x5f26a8af4650&#45;&gt;node0x5f26a8af4680</title>
<path fill="none" stroke="#fee8d6" d="M490.57,-516.37C467.07,-505.86 441.92,-494.61 418.02,-483.92"/>
<polygon fill="#fee8d6" stroke="#fee8d6" points="419.14,-480.59 408.58,-479.7 416.28,-486.98 419.14,-480.59"/>
</g>
<!-- node0x5f26a8af47d0 -->
<g id="node11" class="node">
<title>node0x5f26a8af47d0</title>
<path fill="#ec9594" stroke="#fee8d6" d="M509,-387.5C509,-387.5 674,-387.5 674,-387.5 680,-387.5 686,-393.5 686,-399.5 686,-399.5 686,-467.5 686,-467.5 686,-473.5 680,-479.5 674,-479.5 674,-479.5 509,-479.5 509,-479.5 503,-479.5 497,-473.5 497,-467.5 497,-467.5 497,-399.5 497,-399.5 497,-393.5 503,-387.5 509,-387.5"/>
<text text-anchor="middle" x="591.5" y="-464.3" font-family="Times,serif" font-size="14.00">indx: 0x5f26a8af47d0</text>
<polyline fill="none" stroke="#fee8d6" points="497,-456.5 686,-456.5 "/>
<text text-anchor="middle" x="591.5" y="-441.3" font-family="Times,serif" font-size="14.00">value: ksukha</text>
<polyline fill="none" stroke="#fee8d6" points="497,-433.5 686,-433.5 "/>
<text text-anchor="middle" x="591.5" y="-418.3" font-family="Times,serif" font-size="14.00">parent: 0x5f26a8af4650</text>
<polyline fill="none" stroke="#fee8d6" points="497,-410.5 686,-410.5 "/>
<text text-anchor="middle" x="541.5" y="-395.3" font-family="Times,serif" font-size="14.00">left: (nil)</text>
<polyline fill="none" stroke="#fee8d6" points="586,-387.5 586,-410.5 "/>
<text text-anchor="middle" x="636" y="-395.3" font-family="Times,serif" font-size="14.00">right: (nil)</text>
</g>
<!-- node0x5f26a8af4650&#45;&gt;node0x5f26a8af47d0 -->
<g id="edge10" class="edge">
<title>node0x5f26a8af4650&#45;&gt;node0x5f26a8af47d0</title>
<path fill="none" stroke="#fee8d6" d="M591.5,-516.37C591.5,-507.86 591.5,-498.87 591.5,-490.09"/>
<polygon fill="#fee8d6" stroke="#fee8d6" points="595,-489.92 591.5,-479.92 588,-489.92 595,-489.92"/>
</g>
<!-- node0x5f26a8af46b0 -->
<g id="node5" class="node">
<title>node0x5f26a8af46b0</title>
<path fill="#ec9594" stroke="#fee8d6" d="M12,-258.5C12,-258.5 177,-258.5 177,-258.5 183,-258.5 189,-264.5 189,-270.5 189,-270.5 189,-338.5 189,-338.5 189,-344.5 183,-350.5 177,-350.5 177,-350.5 12,-350.5 12,-350.5 6,-350.5 0,-344.5 0,-338.5 0,-338.5 0,-270.5 0,-270.5 0,-264.5 6,-258.5 12,-258.5"/>
<text text-anchor="middle" x="94.5" y="-335.3" font-family="Times,serif" font-size="14.00">indx: 0x5f26a8af46b0</text>
<polyline fill="none" stroke="#fee8d6" points="0,-327.5 189,-327.5 "/>
<text text-anchor="middle" x="94.5" y="-312.3" font-family="Times,serif" font-size="14.00">value: hz</text>
<polyline fill="none" stroke="#fee8d6" points="0,-304.5 189,-304.5 "/>
<text text-anchor="middle" x="94.5" y="-289.3" font-family="Times,serif" font-size="14.00">parent: 0x5f26a8af4680</text>
<polyline fill="none" stroke="#fee8d6" points="0,-281.5 189,-281.5 "/>
<text text-anchor="middle" x="44.5" y="-266.3" font-family="Times,serif" font-size="14.00">left: (nil)</text>
<polyline fill="none" stroke="#fee8d6" points="89,-258.5 89,-281.5 "/>
<text text-anchor="middle" x="139" y="-266.3" font-family="Times,serif" font-size="14.00">right: (nil)</text>
</g>
<!-- node0x5f26a8af4680&#45;&gt;node0x5f26a8af46b0 -->
<g id="edge4" class="edge">
<title>node0x5f26a8af4680&#45;&gt;node0x5f26a8af46b0</title>
<path fill="none" stroke="#fee8d6" d="M231.8,-387.37C214.8,-377.23 196.65,-366.41 179.3,-356.06"/>
<polygon fill="#fee8d6" stroke="#fee8d6" points="180.69,-352.82 170.31,-350.7 177.11,-358.83 180.69,-352.82"/>
</g>
<!-- node0x5f26a8af46e0 -->
<g id="node6" class="node">
<title>node0x5f26a8af46e0</title>
<path fill="#ec9594" stroke="#fee8d6" d="M219.5,-258.5C219.5,-258.5 537.5,-258.5 537.5,-258.5 543.5,-258.5 549.5,-264.5 549.5,-270.5 549.5,-270.5 549.5,-338.5 549.5,-338.5 549.5,-344.5 543.5,-350.5 537.5,-350.5 537.5,-350.5 219.5,-350.5 219.5,-350.5 213.5,-350.5 207.5,-344.5 207.5,-338.5 207.5,-338.5 207.5,-270.5 207.5,-270.5 207.5,-264.5 213.5,-258.5 219.5,-258.5"/>
<text text-anchor="middle" x="378.5" y="-335.3" font-family="Times,serif" font-size="14.00">indx: 0x5f26a8af46e0</text>
<polyline fill="none" stroke="#fee8d6" points="207.5,-327.5 549.5,-327.5 "/>
<text text-anchor="middle" x="378.5" y="-312.3" font-family="Times,serif" font-size="14.00">value: africa</text>
<polyline fill="none" stroke="#fee8d6" points="207.5,-304.5 549.5,-304.5 "/>
<text text-anchor="middle" x="378.5" y="-289.3" font-family="Times,serif" font-size="14.00">parent: 0x5f26a8af4680</text>
<polyline fill="none" stroke="#fee8d6" points="207.5,-281.5 549.5,-281.5 "/>
<text text-anchor="middle" x="290.5" y="-266.3" font-family="Times,serif" font-size="14.00">left: 0x5f26a8af4710</text>
<polyline fill="none" stroke="#fee8d6" points="373.5,-258.5 373.5,-281.5 "/>
<text text-anchor="middle" x="461.5" y="-266.3" font-family="Times,serif" font-size="14.00">right: 0x5f26a8af47a0</text>
</g>
<!-- node0x5f26a8af4680&#45;&gt;node0x5f26a8af46e0 -->
<g id="edge5" class="edge">
<title>node0x5f26a8af4680&#45;&gt;node0x5f26a8af46e0</title>
<path fill="none" stroke="#fee8d6" d="M332.73,-387.37C337.75,-378.4 343.06,-368.89 348.22,-359.66"/>
<polygon fill="#fee8d6" stroke="#fee8d6" points="351.29,-361.35 353.11,-350.92 345.18,-357.94 351.29,-361.35"/>
</g>
<!-- node0x5f26a8af4710 -->
<g id="node7" class="node">
<title>node0x5f26a8af4710</title>
<path fill="#ec9594" stroke="#fee8d6" d="M77,-129.5C77,-129.5 396,-129.5 396,-129.5 402,-129.5 408,-135.5 408,-141.5 408,-141.5 408,-209.5 408,-209.5 408,-215.5 402,-221.5 396,-221.5 396,-221.5 77,-221.5 77,-221.5 71,-221.5 65,-215.5 65,-209.5 65,-209.5 65,-141.5 65,-141.5 65,-135.5 71,-129.5 77,-129.5"/>
<text text-anchor="middle" x="236.5" y="-206.3" font-family="Times,serif" font-size="14.00">indx: 0x5f26a8af4710</text>
<polyline fill="none" stroke="#fee8d6" points="65,-198.5 408,-198.5 "/>
<text text-anchor="middle" x="236.5" y="-183.3" font-family="Times,serif" font-size="14.00">value: nechelovek</text>
<polyline fill="none" stroke="#fee8d6" points="65,-175.5 408,-175.5 "/>
<text text-anchor="middle" x="236.5" y="-160.3" font-family="Times,serif" font-size="14.00">parent: 0x5f26a8af46e0</text>
<polyline fill="none" stroke="#fee8d6" points="65,-152.5 408,-152.5 "/>
<text text-anchor="middle" x="148" y="-137.3" font-family="Times,serif" font-size="14.00">left: 0x5f26a8af4740</text>
<polyline fill="none" stroke="#fee8d6" points="231,-129.5 231,-152.5 "/>
<text text-anchor="middle" x="319.5" y="-137.3" font-family="Times,serif" font-size="14.00">right: 0x5f26a8af4770</text>
</g>
<!-- node0x5f26a8af46e0&#45;&gt;node0x5f26a8af4710 -->
<g id="edge6" class="edge">
<title>node0x5f26a8af46e0&#45;&gt;node0x5f26a8af4710</title>
<path fill="none" stroke="#fee8d6" d="M328.04,-258.37C317.28,-248.75 305.85,-238.52 294.83,-228.67"/>
<polygon fill="#fee8d6" stroke="#fee8d6" points="297.07,-225.97 287.28,-221.92 292.4,-231.19 297.07,-225.97"/>
</g>
<!-- node0x5f26a8af47a0 -->
<g id="node10" class="node">
<title>node0x5f26a8af47a0</title>
<path fill="#ec9594" stroke="#fee8d6" d="M438.5,-129.5C438.5,-129.5 602.5,-129.5 602.5,-129.5 608.5,-129.5 614.5,-135.5 614.5,-141.5 614.5,-141.5 614.5,-209.5 614.5,-209.5 614.5,-215.5 608.5,-221.5 602.5,-221.5 602.5,-221.5 438.5,-221.5 438.5,-221.5 432.5,-221.5 426.5,-215.5 426.5,-209.5 426.5,-209.5 426.5,-141.5 426.5,-141.5 426.5,-135.5 432.5,-129.5 438.5,-129.5"/>
<text text-anchor="middle" x="520.5" y="-206.3" font-family="Times,serif" font-size="14.00">indx: 0x5f26a8af47a0</text>
<polyline fill="none" stroke="#fee8d6" points="426.5,-198.5 614.5,-198.5 "/>
<text text-anchor="middle" x="520.5" y="-183.3" font-family="Times,serif" font-size="14.00">value: nigger</text>
<polyline fill="none" stroke="#fee8d6" points="426.5,-175.5 614.5,-175.5 "/>
<text text-anchor="middle" x="520.5" y="-160.3" font-family="Times,serif" font-size="14.00">parent: 0x5f26a8af46e0</text>
<polyline fill="none" stroke="#fee8d6" points="426.5,-152.5 614.5,-152.5 "/>
<text text-anchor="middle" x="470.5" y="-137.3" font-family="Times,serif" font-size="14.00">left: (nil)</text>
<polyline fill="none" stroke="#fee8d6" points="514.5,-129.5 514.5,-152.5 "/>
<text text-anchor="middle" x="564.5" y="-137.3" font-family="Times,serif" font-size="14.00">right: (nil)</text>
</g>
<!-- node0x5f26a8af46e0&#45;&gt;node0x5f26a8af47a0 -->
<g id="edge9" class="edge">
<title>node0x5f26a8af46e0&#45;&gt;node0x5f26a8af47a0</title>
<path fill="none" stroke="#fee8d6" d="M428.96,-258.37C439.72,-248.75 451.15,-238.52 462.17,-228.67"/>
<polygon fill="#fee8d6" stroke="#fee8d6" points="464.6,-231.19 469.72,-221.92 459.93,-225.97 464.6,-231.19"/>
</g>
<!-- node0x5f26a8af4740 -->
<g id="node8" class="node">
<title>node0x5f26a8af4740</title>
<path fill="#ec9594" stroke="#fee8d6" d="M51,-0.5C51,-0.5 216,-0.5 216,-0.5 222,-0.5 228,-6.5 228,-12.5 228,-12.5 228,-80.5 228,-80.5 228,-86.5 222,-92.5 216,-92.5 216,-92.5 51,-92.5 51,-92.5 45,-92.5 39,-86.5 39,-80.5 39,-80.5 39,-12.5 39,-12.5 39,-6.5 45,-0.5 51,-0.5"/>
<text text-anchor="middle" x="133.5" y="-77.3" font-family="Times,serif" font-size="14.00">indx: 0x5f26a8af4740</text>
<polyline fill="none" stroke="#fee8d6" points="39,-69.5 228,-69.5 "/>
<text text-anchor="middle" x="133.5" y="-54.3" font-family="Times,serif" font-size="14.00">value: rinat</text>
<polyline fill="none" stroke="#fee8d6" points="39,-46.5 228,-46.5 "/>
<text text-anchor="middle" x="133.5" y="-31.3" font-family="Times,serif" font-size="14.00">parent: 0x5f26a8af4710</text>
<polyline fill="none" stroke="#fee8d6" points="39,-23.5 228,-23.5 "/>
<text text-anchor="middle" x="83.5" y="-8.3" font-family="Times,serif" font-size="14.00">left: (nil)</text>
<polyline fill="none" stroke="#fee8d6" points="128,-0.5 128,-23.5 "/>
<text text-anchor="middle" x="178" y="-8.3" font-family="Times,serif" font-size="14.00">right: (nil)</text>
</g>
<!-- node0x5f26a8af4710&#45;&gt;node0x5f26a8af4740 -->
<g id="edge7" class="edge">
<title>node0x5f26a8af4710&#45;&gt;node0x5f26a8af4740</title>
<path fill="none" stroke="#fee8d6" d="M199.9,-129.37C192.4,-120.12 184.44,-110.31 176.73,-100.8"/>
<polygon fill="#fee8d6" stroke="#fee8d6" points="179.35,-98.48 170.33,-92.92 173.91,-102.89 179.35,-98.48"/>
</g>
<!-- node0x5f26a8af4770 -->
<g id="node9" class="node">
<title>node0x5f26a8af4770</title>
<path fill="#ec9594" stroke="#fee8d6" d="M258,-0.5C258,-0.5 423,-0.5 423,-0.5 429,-0.5 435,-6.5 435,-12.5 435,-12.5 435,-80.5 435,-80.5 435,-86.5 429,-92.5 423,-92.5 423,-92.5 258,-92.5 258,-92.5 252,-92.5 246,-86.5 246,-80.5 246,-80.5 246,-12.5 246,-12.5 246,-6.5 252,-0.5 258,-0.5"/>
<text text-anchor="middle" x="340.5" y="-77.3" font-family="Times,serif" font-size="14.00">indx: 0x5f26a8af4770</text>
<polyline fill="none" stroke="#fee8d6" points="246,-69.5 435,-69.5 "/>
<text text-anchor="middle" x="340.5" y="-54.3" font-family="Times,serif" font-size="14.00">value: night</text>
<polyline fill="none" stroke="#fee8d6" points="246,-46.5 435,-46.5 "/>
<text text-anchor="middle" x="340.5" y="-31.3" font-family="Times,serif" font-size="14.00">parent: 0x5f26a8af4710</text>
<polyline fill="none" stroke="#fee8d6" points="246,-23.5 435,-23.5 "/>
<text text-anchor="middle" x="290.5" y="-8.3" font-family="Times,serif" font-size="14.00">left: (nil)</text>
<polyline fill="none" stroke="#fee8d6" points="335,-0.5 335,-23.5 "/>
<text text-anchor="middle" x="385" y="-8.3" font-family="Times,serif" font-size="14.00">right: (nil)</text>
</g>
<!-- node0x5f26a8af4710&#45;&gt;node0x5f26a8af4770 -->
<g id="edge8" class="edge">
<title>node0x5f26a8af4710&#45;&gt;node0x5f26a8af4770</title>
<path fill="none" stroke="#fee8d6" d="M273.46,-129.37C281.03,-120.12 289.07,-110.31 296.85,-100.8"/>
<polygon fill="#fee8d6" stroke="#fee8d6" points="299.68,-102.87 303.31,-92.92 294.27,-98.43 299.68,-102.87"/>
</g>
<!-- node0x5f26a8af4830 -->
<g id="node13" class="node">
<title>node0x5f26a8af4830</title>
<path fill="#ec9594" stroke="#fee8d6" d="M716,-387.5C716,-387.5 1035,-387.5 1035,-387.5 1041,-387.5 1047,-393.5 1047,-399.5 1047,-399.5 1047,-467.5 1047,-467.5 1047,-473.5 1041,-479.5 1035,-479.5 1035,-479.5 716,-479.5 716,-479.5 710,-479.5 704,-473.5 704,-467.5 704,-467.5 704,-399.5 704,-399.5 704,-393.5 710,-387.5 716,-387.5"/>
<text text-anchor="middle" x="875.5" y="-464.3" font-family="Times,serif" font-size="14.00">indx: 0x5f26a8af4830</text>
<polyline fill="none" stroke="#fee8d6" points="704,-456.5 1047,-456.5 "/>
<text text-anchor="middle" x="875.5" y="-441.3" font-family="Times,serif" font-size="14.00">value: ppp</text>
<polyline fill="none" stroke="#fee8d6" points="704,-433.5 1047,-433.5 "/>
<text text-anchor="middle" x="875.5" y="-418.3" font-family="Times,serif" font-size="14.00">parent: 0x5f26a8af4800</text>
<polyline fill="none" stroke="#fee8d6" points="704,-410.5 1047,-410.5 "/>
<text text-anchor="middle" x="787" y="-395.3" font-family="Times,serif" font-size="14.00">left: 0x5f26a8af4860</text>
<polyline fill="none" stroke="#fee8d6" points="870,-387.5 870,-410.5 "/>
<text text-anchor="middle" x="958.5" y="-395.3" font-family="Times,serif" font-size="14.00">right: 0x5f26a8af4890</text>
</g>
<!-- node0x5f26a8af4800&#45;&gt;node0x5f26a8af4830 -->
<g id="edge12" class="edge">
<title>node0x5f26a8af4800&#45;&gt;node0x5f26a8af4830</title>
<path fill="none" stroke="#fee8d6" d="M967.04,-516.37C956.28,-506.75 944.85,-496.52 933.83,-486.67"/>
<polygon fill="#fee8d6" stroke="#fee8d6" points="936.07,-483.97 926.28,-479.92 931.4,-489.19 936.07,-483.97"/>
</g>
<!-- node0x5f26a8af48c0 -->
<g id="node16" class="node">
<title>node0x5f26a8af48c0</title>
<path fill="#ec9594" stroke="#fee8d6" d="M1077,-387.5C1077,-387.5 1242,-387.5 1242,-387.5 1248,-387.5 1254,-393.5 1254,-399.5 1254,-399.5 1254,-467.5 1254,-467.5 1254,-473.5 1248,-479.5 1242,-479.5 1242,-479.5 1077,-479.5 1077,-479.5 1071,-479.5 1065,-473.5 1065,-467.5 1065,-467.5 1065,-399.5 1065,-399.5 1065,-393.5 1071,-387.5 1077,-387.5"/>
<text text-anchor="middle" x="1159.5" y="-464.3" font-family="Times,serif" font-size="14.00">indx: 0x5f26a8af48c0</text>
<polyline fill="none" stroke="#fee8d6" points="1065,-456.5 1254,-456.5 "/>
<text text-anchor="middle" x="1159.5" y="-441.3" font-family="Times,serif" font-size="14.00">value: ya hz</text>
<polyline fill="none" stroke="#fee8d6" points="1065,-433.5 1254,-433.5 "/>
<text text-anchor="middle" x="1159.5" y="-418.3" font-family="Times,serif" font-size="14.00">parent: 0x5f26a8af4800</text>
<polyline fill="none" stroke="#fee8d6" points="1065,-410.5 1254,-410.5 "/>
<text text-anchor="middle" x="1109.5" y="-395.3" font-family="Times,serif" font-size="14.00">left: (nil)</text>
<polyline fill="none" stroke="#fee8d6" points="1154,-387.5 1154,-410.5 "/>
<text text-anchor="middle" x="1204" y="-395.3" font-family="Times,serif" font-size="14.00">right: (nil)</text>
</g>
<!-- node0x5f26a8af4800&#45;&gt;node0x5f26a8af48c0 -->
<g id="edge15" class="edge">
<title>node0x5f26a8af4800&#45;&gt;node0x5f26a8af48c0</title>
<path fill="none" stroke="#fee8d6" d="M1067.96,-516.37C1078.72,-506.75 1090.15,-496.52 1101.17,-486.67"/>
<polygon fill="#fee8d6" stroke="#fee8d6" points="1103.6,-489.19 1108.72,-479.92 1098.93,-483.97 1103.6,-489.19"/>
</g>
<!-- node0x5f26a8af4860 -->
<g id="node14" class="node">
<title>node0x5f26a8af4860</title>
<path fill="#ec9594" stroke="#fee8d6" d="M722,-258.5C722,-258.5 887,-258.5 887,-258.5 893,-258.5 899,-264.5 899,-270.5 899,-270.5 899,-338.5 899,-338.5 899,-344.5 893,-350.5 887,-350.5 887,-350.5 722,-350.5 722,-350.5 716,-350.5 710,-344.5 710,-338.5 710,-338.5 710,-270.5 710,-270.5 710,-264.5 716,-258.5 722,-258.5"/>
<text text-anchor="middle" x="804.5" y="-335.3" font-family="Times,serif" font-size="14.00">indx: 0x5f26a8af4860</text>
<polyline fill="none" stroke="#fee8d6" points="710,-327.5 899,-327.5 "/>
<text text-anchor="middle" x="804.5" y="-312.3" font-family="Times,serif" font-size="14.00">value: yes</text>
<polyline fill="none" stroke="#fee8d6" points="710,-304.5 899,-304.5 "/>
<text text-anchor="middle" x="804.5" y="-289.3" font-family="Times,serif" font-size="14.00">parent: 0x5f26a8af4830</text>
<polyline fill="none" stroke="#fee8d6" points="710,-281.5 899,-281.5 "/>
<text text-anchor="middle" x="754.5" y="-266.3" font-family="Times,serif" font-size="14.00">left: (nil)</text>
<polyline fill="none" stroke="#fee8d6" points="799,-258.5 799,-281.5 "/>
<text text-anchor="middle" x="849" y="-266.3" font-family="Times,serif" font-size="14.00">right: (nil)</text>
</g>
<!-- node0x5f26a8af4830&#45;&gt;node0x5f26a8af4860 -->
<g id="edge13" class="edge">
<title>node0x5f26a8af4830&#45;&gt;node0x5f26a8af4860</title>
<path fill="none" stroke="#fee8d6" d="M850.27,-387.37C845.25,-378.4 839.94,-368.89 834.78,-359.66"/>
<polygon fill="#fee8d6" stroke="#fee8d6" points="837.82,-357.94 829.89,-350.92 831.71,-361.35 837.82,-357.94"/>
</g>
<!-- node0x5f26a8af4890 -->
<g id="node15" class="node">
<title>node0x5f26a8af4890</title>
<path fill="#ec9594" stroke="#fee8d6" d="M929,-258.5C929,-258.5 1094,-258.5 1094,-258.5 1100,-258.5 1106,-264.5 1106,-270.5 1106,-270.5 1106,-338.5 1106,-338.5 1106,-344.5 1100,-350.5 1094,-350.5 1094,-350.5 929,-350.5 929,-350.5 923,-350.5 917,-344.5 917,-338.5 917,-338.5 917,-270.5 917,-270.5 917,-264.5 923,-258.5 929,-258.5"/>
<text text-anchor="middle" x="1011.5" y="-335.3" font-family="Times,serif" font-size="14.00">indx: 0x5f26a8af4890</text>
<polyline fill="none" stroke="#fee8d6" points="917,-327.5 1106,-327.5 "/>
<text text-anchor="middle" x="1011.5" y="-312.3" font-family="Times,serif" font-size="14.00">value: ll</text>
<polyline fill="none" stroke="#fee8d6" points="917,-304.5 1106,-304.5 "/>
<text text-anchor="middle" x="1011.5" y="-289.3" font-family="Times,serif" font-size="14.00">parent: 0x5f26a8af4830</text>
<polyline fill="none" stroke="#fee8d6" points="917,-281.5 1106,-281.5 "/>
<text text-anchor="middle" x="961.5" y="-266.3" font-family="Times,serif" font-size="14.00">left: (nil)</text>
<polyline fill="none" stroke="#fee8d6" points="1006,-258.5 1006,-281.5 "/>
<text text-anchor="middle" x="1056" y="-266.3" font-family="Times,serif" font-size="14.00">right: (nil)</text>
</g>
<!-- node0x5f26a8af4830&#45;&gt;node0x5f26a8af4890 -->
<g id="edge14" class="edge">
<title>node0x5f26a8af4830&#45;&gt;node0x5f26a8af4890</title>
<path fill="none" stroke="#fee8d6" d="M923.83,-387.37C934.03,-377.84 944.87,-367.72 955.33,-357.95"/>
<polygon fill="#fee8d6" stroke="#fee8d6" points="957.95,-360.3 962.87,-350.92 953.17,-355.18 957.95,-360.3"/>
</g>
<!-- node0x5f26a8af4920 -->
<g id="node18" class="node">
<title>node0x5f26a8af4920</title>
<path fill="#ec9594" stroke="#fee8d6" d="M1387.5,-516.5C1387.5,-516.5 1705.5,-516.5 1705.5,-516.5 1711.5,-516.5 1717.5,-522.5 1717.5,-528.5 1717.5,-528.5 1717.5,-596.5 1717.5,-596.5 1717.5,-602.5 1711.5,-608.5 1705.5,-608.5 1705.5,-608.5 1387.5,-608.5 1387.5,-608.5 1381.5,-608.5 1375.5,-602.5 1375.5,-596.5 1375.5,-596.5 1375.5,-528.5 1375.5,-528.5 1375.5,-522.5 1381.5,-516.5 1387.5,-516.5"/>
<text text-anchor="middle" x="1546.5" y="-593.3" font-family="Times,serif" font-size="14.00">indx: 0x5f26a8af4920</text>
<polyline fill="none" stroke="#fee8d6" points="1375.5,-585.5 1717.5,-585.5 "/>
<text text-anchor="middle" x="1546.5" y="-570.3" font-family="Times,serif" font-size="14.00">value: no</text>
<polyline fill="none" stroke="#fee8d6" points="1375.5,-562.5 1717.5,-562.5 "/>
<text text-anchor="middle" x="1546.5" y="-547.3" font-family="Times,serif" font-size="14.00">parent: 0x5f26a8af48f0</text>
<polyline fill="none" stroke="#fee8d6" points="1375.5,-539.5 1717.5,-539.5 "/>
<text text-anchor="middle" x="1458.5" y="-524.3" font-family="Times,serif" font-size="14.00">left: 0x5f26a8af4950</text>
<polyline fill="none" stroke="#fee8d6" points="1541.5,-516.5 1541.5,-539.5 "/>
<text text-anchor="middle" x="1629.5" y="-524.3" font-family="Times,serif" font-size="14.00">right: 0x5f26a8af49e0</text>
</g>
<!-- node0x5f26a8af48f0&#45;&gt;node0x5f26a8af4920 -->
<g id="edge17" class="edge">
<title>node0x5f26a8af48f0&#45;&gt;node0x5f26a8af4920</title>
<path fill="none" stroke="#fee8d6" d="M1546.5,-645.37C1546.5,-636.86 1546.5,-627.87 1546.5,-619.09"/>
<polygon fill="#fee8d6" stroke="#fee8d6" points="1550,-618.92 1546.5,-608.92 1543,-618.92 1550,-618.92"/>
</g>
<!-- node0x5f26a8af4a10 -->
<g id="node23" class="node">
<title>node0x5f26a8af4a10</title>
<path fill="#ec9594" stroke="#fee8d6" d="M1852,-516.5C1852,-516.5 2169,-516.5 2169,-516.5 2175,-516.5 2181,-522.5 2181,-528.5 2181,-528.5 2181,-596.5 2181,-596.5 2181,-602.5 2175,-608.5 2169,-608.5 2169,-608.5 1852,-608.5 1852,-608.5 1846,-608.5 1840,-602.5 1840,-596.5 1840,-596.5 1840,-528.5 1840,-528.5 1840,-522.5 1846,-516.5 1852,-516.5"/>
<text text-anchor="middle" x="2010.5" y="-593.3" font-family="Times,serif" font-size="14.00">indx: 0x5f26a8af4a10</text>
<polyline fill="none" stroke="#fee8d6" points="1840,-585.5 2181,-585.5 "/>
<text text-anchor="middle" x="2010.5" y="-570.3" font-family="Times,serif" font-size="14.00">value: proga</text>
<polyline fill="none" stroke="#fee8d6" points="1840,-562.5 2181,-562.5 "/>
<text text-anchor="middle" x="2010.5" y="-547.3" font-family="Times,serif" font-size="14.00">parent: 0x5f26a8af48f0</text>
<polyline fill="none" stroke="#fee8d6" points="1840,-539.5 2181,-539.5 "/>
<text text-anchor="middle" x="1922.5" y="-524.3" font-family="Times,serif" font-size="14.00">left: 0x5f26a8af4a40</text>
<polyline fill="none" stroke="#fee8d6" points="2005,-516.5 2005,-539.5 "/>
<text text-anchor="middle" x="2093" y="-524.3" font-family="Times,serif" font-size="14.00">right: 0x5f26a8af4ad0</text>
</g>
<!-- node0x5f26a8af48f0&#45;&gt;node0x5f26a8af4a10 -->
<g id="edge22" class="edge">
<title>node0x5f26a8af48f0&#45;&gt;node0x5f26a8af4a10</title>
<path fill="none" stroke="#fee8d6" d="M1711.07,-645.46C1751.6,-634.36 1795.14,-622.45 1836.11,-611.23"/>
<polygon fill="#fee8d6" stroke="#fee8d6" points="1837.19,-614.56 1845.92,-608.55 1835.35,-607.81 1837.19,-614.56"/>
</g>
<!-- node0x5f26a8af4950 -->
<g id="node19" class="node">
<title>node0x5f26a8af4950</title>
<path fill="#ec9594" stroke="#fee8d6" d="M1284,-387.5C1284,-387.5 1603,-387.5 1603,-387.5 1609,-387.5 1615,-393.5 1615,-399.5 1615,-399.5 1615,-467.5 1615,-467.5 1615,-473.5 1609,-479.5 1603,-479.5 1603,-479.5 1284,-479.5 1284,-479.5 1278,-479.5 1272,-473.5 1272,-467.5 1272,-467.5 1272,-399.5 1272,-399.5 1272,-393.5 1278,-387.5 1284,-387.5"/>
<text text-anchor="middle" x="1443.5" y="-464.3" font-family="Times,serif" font-size="14.00">indx: 0x5f26a8af4950</text>
<polyline fill="none" stroke="#fee8d6" points="1272,-456.5 1615,-456.5 "/>
<text text-anchor="middle" x="1443.5" y="-441.3" font-family="Times,serif" font-size="14.00">value: lolol</text>
<polyline fill="none" stroke="#fee8d6" points="1272,-433.5 1615,-433.5 "/>
<text text-anchor="middle" x="1443.5" y="-418.3" font-family="Times,serif" font-size="14.00">parent: 0x5f26a8af4920</text>
<polyline fill="none" stroke="#fee8d6" points="1272,-410.5 1615,-410.5 "/>
<text text-anchor="middle" x="1355" y="-395.3" font-family="Times,serif" font-size="14.00">left: 0x5f26a8af4980</text>
<polyline fill="none" stroke="#fee8d6" points="1438,-387.5 1438,-410.5 "/>
<text text-anchor="middle" x="1526.5" y="-395.3" font-family="Times,serif" font-size="14.00">right: 0x5f26a8af49b0</text>
</g>
<!-- node0x5f26a8af4920&#45;&gt;node0x5f26a8af4950 -->
<g id="edge18" class="edge">
<title>node0x5f26a8af4920&#45;&gt;node0x5f26a8af4950</title>
<path fill="none" stroke="#fee8d6" d="M1509.9,-516.37C1502.4,-507.12 1494.44,-497.31 1486.73,-487.8"/>
<polygon fill="#fee8d6" stroke="#fee8d6" points="1489.35,-485.48 1480.33,-479.92 1483.91,-489.89 1489.35,-485.48"/>
</g>
<!-- node0x5f26a8af49e0 -->
<g id="node22" class="node">
<title>node0x5f26a8af49e0</title>
<path fill="#ec9594" stroke="#fee8d6" d="M1645,-387.5C1645,-387.5 1810,-387.5 1810,-387.5 1816,-387.5 1822,-393.5 1822,-399.5 1822,-399.5 1822,-467.5 1822,-467.5 1822,-473.5 1816,-479.5 1810,-479.5 1810,-479.5 1645,-479.5 1645,-479.5 1639,-479.5 1633,-473.5 1633,-467.5 1633,-467.5 1633,-399.5 1633,-399.5 1633,-393.5 1639,-387.5 1645,-387.5"/>
<text text-anchor="middle" x="1727.5" y="-464.3" font-family="Times,serif" font-size="14.00">indx: 0x5f26a8af49e0</text>
<polyline fill="none" stroke="#fee8d6" points="1633,-456.5 1822,-456.5 "/>
<text text-anchor="middle" x="1727.5" y="-441.3" font-family="Times,serif" font-size="14.00">value: yes</text>
<polyline fill="none" stroke="#fee8d6" points="1633,-433.5 1822,-433.5 "/>
<text text-anchor="middle" x="1727.5" y="-418.3" font-family="Times,serif" font-size="14.00">parent: 0x5f26a8af4920</text>
<polyline fill="none" stroke="#fee8d6" points="1633,-410.5 1822,-410.5 "/>
<text text-anchor="middle" x="1677.5" y="-395.3" font-family="Times,serif" font-size="14.00">left: (nil)</text>
<polyline fill="none" stroke="#fee8d6" points="1722,-387.5 1722,-410.5 "/>
<text text-anchor="middle" x="1772" y="-395.3" font-family="Times,serif" font-size="14.00">right: (nil)</text>
</g>
<!-- node0x5f26a8af4920&#45;&gt;node0x5f26a8af49e0 -->
<g id="edge21" class="edge">
<title>node0x5f26a8af4920&#45;&gt;node0x5f26a8af49e0</title>
<path fill="none" stroke="#fee8d6" d="M1610.82,-516.37C1625.01,-506.41 1640.13,-495.8 1654.63,-485.63"/>
<polygon fill="#fee8d6" stroke="#fee8d6" points="1656.9,-488.31 1663.08,-479.7 1652.88,-482.58 1656.9,-488.31"/>
</g>
<!-- node0x5f26a8af4980 -->
<g id="node20" class="node">
<title>node0x5f26a8af4980</title>
<path fill="#ec9594" stroke="#fee8d6" d="M1309,-258.5C1309,-258.5 1474,-258.5 1474,-258.5 1480,-258.5 1486,-264.5 1486,-270.5 1486,-270.5 1486,-338.5 1486,-338.5 1486,-344.5 1480,-350.5 1474,-350.5 1474,-350.5 1309,-350.5 1309,-350.5 1303,-350.5 1297,-344.5 1297,-338.5 1297,-338.5 1297,-270.5 1297,-270.5 1297,-264.5 1303,-258.5 1309,-258.5"/>
<text text-anchor="middle" x="1391.5" y="-335.3" font-family="Times,serif" font-size="14.00">indx: 0x5f26a8af4980</text>
<polyline fill="none" stroke="#fee8d6" points="1297,-327.5 1486,-327.5 "/>
<text text-anchor="middle" x="1391.5" y="-312.3" font-family="Times,serif" font-size="14.00">value: rt</text>
<polyline fill="none" stroke="#fee8d6" points="1297,-304.5 1486,-304.5 "/>
<text text-anchor="middle" x="1391.5" y="-289.3" font-family="Times,serif" font-size="14.00">parent: 0x5f26a8af4950</text>
<polyline fill="none" stroke="#fee8d6" points="1297,-281.5 1486,-281.5 "/>
<text text-anchor="middle" x="1341.5" y="-266.3" font-family="Times,serif" font-size="14.00">left: (nil)</text>
<polyline fill="none" stroke="#fee8d6" points="1386,-258.5 1386,-281.5 "/>
<text text-anchor="middle" x="1436" y="-266.3" font-family="Times,serif" font-size="14.00">right: (nil)</text>
</g>
<!-- node0x5f26a8af4950&#45;&gt;node0x5f26a8af4980 -->
<g id="edge19" class="edge">
<title>node0x5f26a8af4950&#45;&gt;node0x5f26a8af4980</title>
<path fill="none" stroke="#fee8d6" d="M1425.02,-387.37C1421.42,-378.58 1417.62,-369.29 1413.91,-360.23"/>
<polygon fill="#fee8d6" stroke="#fee8d6" points="1417.12,-358.84 1410.1,-350.92 1410.65,-361.5 1417.12,-358.84"/>
</g>
<!-- node0x5f26a8af49b0 -->
<g id="node21" class="node">
<title>node0x5f26a8af49b0</title>
<path fill="#ec9594" stroke="#fee8d6" d="M1516,-258.5C1516,-258.5 1681,-258.5 1681,-258.5 1687,-258.5 1693,-264.5 1693,-270.5 1693,-270.5 1693,-338.5 1693,-338.5 1693,-344.5 1687,-350.5 1681,-350.5 1681,-350.5 1516,-350.5 1516,-350.5 1510,-350.5 1504,-344.5 1504,-338.5 1504,-338.5 1504,-270.5 1504,-270.5 1504,-264.5 1510,-258.5 1516,-258.5"/>
<text text-anchor="middle" x="1598.5" y="-335.3" font-family="Times,serif" font-size="14.00">indx: 0x5f26a8af49b0</text>
<polyline fill="none" stroke="#fee8d6" points="1504,-327.5 1693,-327.5 "/>
<text text-anchor="middle" x="1598.5" y="-312.3" font-family="Times,serif" font-size="14.00">value: lol</text>
<polyline fill="none" stroke="#fee8d6" points="1504,-304.5 1693,-304.5 "/>
<text text-anchor="middle" x="1598.5" y="-289.3" font-family="Times,serif" font-size="14.00">parent: 0x5f26a8af4950</text>
<polyline fill="none" stroke="#fee8d6" points="1504,-281.5 1693,-281.5 "/>
<text text-anchor="middle" x="1548.5" y="-266.3" font-family="Times,serif" font-size="14.00">left: (nil)</text>
<polyline fill="none" stroke="#fee8d6" points="1593,-258.5 1593,-281.5 "/>
<text text-anchor="middle" x="1643" y="-266.3" font-family="Times,serif" font-size="14.00">right: (nil)</text>
</g>
<!-- node0x5f26a8af4950&#45;&gt;node0x5f26a8af49b0 -->
<g id="edge20" class="edge">
<title>node0x5f26a8af4950&#45;&gt;node0x5f26a8af49b0</title>
<path fill="none" stroke="#fee8d6" d="M1498.58,-387.37C1510.5,-377.6 1523.2,-367.2 1535.4,-357.2"/>
<polygon fill="#fee8d6" stroke="#fee8d6" points="1537.82,-359.75 1543.33,-350.7 1533.38,-354.33 1537.82,-359.75"/>
</g>
<!-- node0x5f26a8af4a40 -->
<g id="node24" class="node">
<title>node0x5f26a8af4a40</title>
<path fill="#ec9594" stroke="#fee8d6" d="M1852,-387.5C1852,-387.5 2169,-387.5 2169,-387.5 2175,-387.5 2181,-393.5 2181,-399.5 2181,-399.5 2181,-467.5 2181,-467.5 2181,-473.5 2175,-479.5 2169,-479.5 2169,-479.5 1852,-479.5 1852,-479.5 1846,-479.5 1840,-473.5 1840,-467.5 1840,-467.5 1840,-399.5 1840,-399.5 1840,-393.5 1846,-387.5 1852,-387.5"/>
<text text-anchor="middle" x="2010.5" y="-464.3" font-family="Times,serif" font-size="14.00">indx: 0x5f26a8af4a40</text>
<polyline fill="none" stroke="#fee8d6" points="1840,-456.5 2181,-456.5 "/>
<text text-anchor="middle" x="2010.5" y="-441.3" font-family="Times,serif" font-size="14.00">value: j</text>
<polyline fill="none" stroke="#fee8d6" points="1840,-433.5 2181,-433.5 "/>
<text text-anchor="middle" x="2010.5" y="-418.3" font-family="Times,serif" font-size="14.00">parent: 0x5f26a8af4a10</text>
<polyline fill="none" stroke="#fee8d6" points="1840,-410.5 2181,-410.5 "/>
<text text-anchor="middle" x="1922.5" y="-395.3" font-family="Times,serif" font-size="14.00">left: 0x5f26a8af4a70</text>
<polyline fill="none" stroke="#fee8d6" points="2005,-387.5 2005,-410.5 "/>
<text text-anchor="middle" x="2093" y="-395.3" font-family="Times,serif" font-size="14.00">right: 0x5f26a8af4aa0</text>
</g>
<!-- node0x5f26a8af4a10&#45;&gt;node0x5f26a8af4a40 -->
<g id="edge23" class="edge">
<title>node0x5f26a8af4a10&#45;&gt;node0x5f26a8af4a40</title>
<path fill="none" stroke="#fee8d6" d="M2010.5,-516.37C2010.5,-507.86 2010.5,-498.87 2010.5,-490.09"/>
<polygon fill="#fee8d6" stroke="#fee8d6" points="2014,-489.92 2010.5,-479.92 2007,-489.92 2014,-489.92"/>
</g>
<!-- node0x5f26a8af4ad0 -->
<g id="node27" class="node">
<title>node0x5f26a8af4ad0</title>
<path fill="#ec9594" stroke="#fee8d6" d="M2211.5,-387.5C2211.5,-387.5 2375.5,-387.5 2375.5,-387.5 2381.5,-387.5 2387.5,-393.5 2387.5,-399.5 2387.5,-399.5 2387.5,-467.5 2387.5,-467.5 2387.5,-473.5 2381.5,-479.5 2375.5,-479.5 2375.5,-479.5 2211.5,-479.5 2211.5,-479.5 2205.5,-479.5 2199.5,-473.5 2199.5,-467.5 2199.5,-467.5 2199.5,-399.5 2199.5,-399.5 2199.5,-393.5 2205.5,-387.5 2211.5,-387.5"/>
<text text-anchor="middle" x="2293.5" y="-464.3" font-family="Times,serif" font-size="14.00">indx: 0x5f26a8af4ad0</text>
<polyline fill="none" stroke="#fee8d6" points="2199.5,-456.5 2387.5,-456.5 "/>
<text text-anchor="middle" x="2293.5" y="-441.3" font-family="Times,serif" font-size="14.00">value: fupm</text>
<polyline fill="none" stroke="#fee8d6" points="2199.5,-433.5 2387.5,-433.5 "/>
<text text-anchor="middle" x="2293.5" y="-418.3" font-family="Times,serif" font-size="14.00">parent: 0x5f26a8af4a10</text>
<polyline fill="none" stroke="#fee8d6" points="2199.5,-410.5 2387.5,-410.5 "/>
<text text-anchor="middle" x="2243.5" y="-395.3" font-family="Times,serif" font-size="14.00">left: (nil)</text>
<polyline fill="none" stroke="#fee8d6" points="2287.5,-387.5 2287.5,-410.5 "/>
<text text-anchor="middle" x="2337.5" y="-395.3" font-family="Times,serif" font-size="14.00">right: (nil)</text>
</g>
<!-- node0x5f26a8af4a10&#45;&gt;node0x5f26a8af4ad0 -->
<g id="edge26" class="edge">
<title>node0x5f26a8af4a10&#45;&gt;node0x5f26a8af4ad0</title>
<path fill="none" stroke="#fee8d6" d="M2111.07,-516.37C2136.68,-504.87 2164.25,-492.5 2190,-480.95"/>
<polygon fill="#fee8d6" stroke="#fee8d6" points="2191.71,-484.01 2199.4,-476.73 2188.85,-477.63 2191.71,-484.01"/>
</g>
<!-- node0x5f26a8af4a70 -->
<g id="node25" class="node">
<title>node0x5f26a8af4a70</title>
<path fill="#ec9594" stroke="#fee8d6" d="M1773.5,-258.5C1773.5,-258.5 1937.5,-258.5 1937.5,-258.5 1943.5,-258.5 1949.5,-264.5 1949.5,-270.5 1949.5,-270.5 1949.5,-338.5 1949.5,-338.5 1949.5,-344.5 1943.5,-350.5 1937.5,-350.5 1937.5,-350.5 1773.5,-350.5 1773.5,-350.5 1767.5,-350.5 1761.5,-344.5 1761.5,-338.5 1761.5,-338.5 1761.5,-270.5 1761.5,-270.5 1761.5,-264.5 1767.5,-258.5 1773.5,-258.5"/>
<text text-anchor="middle" x="1855.5" y="-335.3" font-family="Times,serif" font-size="14.00">indx: 0x5f26a8af4a70</text>
<polyline fill="none" stroke="#fee8d6" points="1761.5,-327.5 1949.5,-327.5 "/>
<text text-anchor="middle" x="1855.5" y="-312.3" font-family="Times,serif" font-size="14.00">value: fopf</text>
<polyline fill="none" stroke="#fee8d6" points="1761.5,-304.5 1949.5,-304.5 "/>
<text text-anchor="middle" x="1855.5" y="-289.3" font-family="Times,serif" font-size="14.00">parent: 0x5f26a8af4a40</text>
<polyline fill="none" stroke="#fee8d6" points="1761.5,-281.5 1949.5,-281.5 "/>
<text text-anchor="middle" x="1805.5" y="-266.3" font-family="Times,serif" font-size="14.00">left: (nil)</text>
<polyline fill="none" stroke="#fee8d6" points="1849.5,-258.5 1849.5,-281.5 "/>
<text text-anchor="middle" x="1899.5" y="-266.3" font-family="Times,serif" font-size="14.00">right: (nil)</text>
</g>
<!-- node0x5f26a8af4a40&#45;&gt;node0x5f26a8af4a70 -->
<g id="edge24" class="edge">
<title>node0x5f26a8af4a40&#45;&gt;node0x5f26a8af4a70</title>
<path fill="none" stroke="#fee8d6" d="M1955.42,-387.37C1943.5,-377.6 1930.8,-367.2 1918.6,-357.2"/>
<polygon fill="#fee8d6" stroke="#fee8d6" points="1920.62,-354.33 1910.67,-350.7 1916.18,-359.75 1920.62,-354.33"/>
</g>
<!-- node0x5f26a8af4aa0 -->
<g id="node26" class="node">
<title>node0x5f26a8af4aa0</title>
<path fill="#ec9594" stroke="#fee8d6" d="M1979.5,-258.5C1979.5,-258.5 2143.5,-258.5 2143.5,-258.5 2149.5,-258.5 2155.5,-264.5 2155.5,-270.5 2155.5,-270.5 2155.5,-338.5 2155.5,-338.5 2155.5,-344.5 2149.5,-350.5 2143.5,-350.5 2143.5,-350.5 1979.5,-350.5 1979.5,-350.5 1973.5,-350.5 1967.5,-344.5 1967.5,-338.5 1967.5,-338.5 1967.5,-270.5 1967.5,-270.5 1967.5,-264.5 1973.5,-258.5 1979.5,-258.5"/>
<text text-anchor="middle" x="2061.5" y="-335.3" font-family="Times,serif" font-size="14.00">indx: 0x5f26a8af4aa0</text>
<polyline fill="none" stroke="#fee8d6" points="1967.5,-327.5 2155.5,-327.5 "/>
<text text-anchor="middle" x="2061.5" y="-312.3" font-family="Times,serif" font-size="14.00">value: q</text>
<polyline fill="none" stroke="#fee8d6" points="1967.5,-304.5 2155.5,-304.5 "/>
<text text-anchor="middle" x="2061.5" y="-289.3" font-family="Times,serif" font-size="14.00">parent: 0x5f26a8af4a40</text>
<polyline fill="none" stroke="#fee8d6" points="1967.5,-281.5 2155.5,-281.5 "/>
<text text-anchor="middle" x="2011.5" y="-266.3" font-family="Times,serif" font-size="14.00">left: (nil)</text>
<polyline fill="none" stroke="#fee8d6" points="2055.5,-258.5 2055.5,-281.5 "/>
<text text-anchor="middle" x="2105.5" y="-266.3" font-family="Times,serif" font-size="14.00">right: (nil)</text>
</g>
<!-- node0x5f26a8af4a40&#45;&gt;node0x5f26a8af4aa0 -->
<g id="edge25" class="edge">
<title>node0x5f26a8af4a40&#45;&gt;node0x5f26a8af4aa0</title>
<path fill="none" stroke="#fee8d6" d="M2028.62,-387.37C2032.15,-378.58 2035.89,-369.29 2039.52,-360.23"/>
<polygon fill="#fee8d6" stroke="#fee8d6" points="2042.78,-361.5 2043.26,-350.92 2036.29,-358.89 2042.78,-361.5"/>
</g>
</g>
</svg>
