<?xml version="1.0" encoding="UTF-8" standalone="no"?>
<!DOCTYPE svg PUBLIC "-//W3C//DTD SVG 1.1//EN"
 "http://www.w3.org/Graphics/SVG/1.1/DTD/svg11.dtd">
<!-- Generated by graphviz version 2.43.0 (0)
 -->
<!-- Title: Tree Pages: 1 -->
<svg width="1049pt" height="617pt"
 viewBox="0.00 0.00 1049.00 617.00" xmlns="http://www.w3.org/2000/svg" xmlns:xlink="http://www.w3.org/1999/xlink">
<g id="graph0" class="graph" transform="scale(1 1) rotate(0) translate(4 613)">
<title>Tree</title>
<polygon fill="#4984f9" stroke="transparent" points="-4,4 -4,-613 1045,-613 1045,4 -4,4"/>
<!-- node0x623be9072530 -->
<g id="node1" class="node">
<title>node0x623be9072530</title>
<path fill="#c0261c" stroke="#ffbe20" d="M392,-516.5C392,-516.5 727,-516.5 727,-516.5 733,-516.5 739,-522.5 739,-528.5 739,-528.5 739,-596.5 739,-596.5 739,-602.5 733,-608.5 727,-608.5 727,-608.5 392,-608.5 392,-608.5 386,-608.5 380,-602.5 380,-596.5 380,-596.5 380,-528.5 380,-528.5 380,-522.5 386,-516.5 392,-516.5"/>
<text text-anchor="middle" x="559.5" y="-593.3" font-family="Times,serif" font-size="14.00">indx: 0x623be9072530</text>
<polyline fill="none" stroke="#ffbe20" points="380,-585.5 739,-585.5 "/>
<text text-anchor="middle" x="559.5" y="-570.3" font-family="Times,serif" font-size="14.00">value: lega</text>
<polyline fill="none" stroke="#ffbe20" points="380,-562.5 739,-562.5 "/>
<text text-anchor="middle" x="559.5" y="-547.3" font-family="Times,serif" font-size="14.00">parent: (nil)</text>
<polyline fill="none" stroke="#ffbe20" points="380,-539.5 739,-539.5 "/>
<text text-anchor="middle" x="467" y="-524.3" font-family="Times,serif" font-size="14.00">left: 0x623be9072560</text>
<polyline fill="none" stroke="#ffbe20" points="554,-516.5 554,-539.5 "/>
<text text-anchor="middle" x="646.5" y="-524.3" font-family="Times,serif" font-size="14.00">right: 0x623be90726b0</text>
</g>
<!-- node0x623be9072560 -->
<g id="node2" class="node">
<title>node0x623be9072560</title>
<path fill="#c0261c" stroke="#ffbe20" d="M204.5,-387.5C204.5,-387.5 538.5,-387.5 538.5,-387.5 544.5,-387.5 550.5,-393.5 550.5,-399.5 550.5,-399.5 550.5,-467.5 550.5,-467.5 550.5,-473.5 544.5,-479.5 538.5,-479.5 538.5,-479.5 204.5,-479.5 204.5,-479.5 198.5,-479.5 192.5,-473.5 192.5,-467.5 192.5,-467.5 192.5,-399.5 192.5,-399.5 192.5,-393.5 198.5,-387.5 204.5,-387.5"/>
<text text-anchor="middle" x="371.5" y="-464.3" font-family="Times,serif" font-size="14.00">indx: 0x623be9072560</text>
<polyline fill="none" stroke="#ffbe20" points="192.5,-456.5 550.5,-456.5 "/>
<text text-anchor="middle" x="371.5" y="-441.3" font-family="Times,serif" font-size="14.00">value: dal&#39;nik</text>
<polyline fill="none" stroke="#ffbe20" points="192.5,-433.5 550.5,-433.5 "/>
<text text-anchor="middle" x="371.5" y="-418.3" font-family="Times,serif" font-size="14.00">parent: 0x623be9072530</text>
<polyline fill="none" stroke="#ffbe20" points="192.5,-410.5 550.5,-410.5 "/>
<text text-anchor="middle" x="279.5" y="-395.3" font-family="Times,serif" font-size="14.00">left: 0x623be9072590</text>
<polyline fill="none" stroke="#ffbe20" points="366.5,-387.5 366.5,-410.5 "/>
<text text-anchor="middle" x="458.5" y="-395.3" font-family="Times,serif" font-size="14.00">right: 0x623be90725c0</text>
</g>
<!-- node0x623be9072530&#45;&gt;node0x623be9072560 -->
<g id="edge1" class="edge">
<title>node0x623be9072530&#45;&gt;node0x623be9072560</title>
<path fill="none" stroke="#ffbe20" d="M492.69,-516.37C477.82,-506.32 461.95,-495.6 446.77,-485.35"/>
<polygon fill="#ffbe20" stroke="#ffbe20" points="448.66,-482.4 438.41,-479.7 444.74,-488.2 448.66,-482.4"/>
</g>
<!-- node0x623be90726b0 -->
<g id="node9" class="node">
<title>node0x623be90726b0</title>
<path fill="#c0261c" stroke="#ffbe20" d="M580.5,-387.5C580.5,-387.5 914.5,-387.5 914.5,-387.5 920.5,-387.5 926.5,-393.5 926.5,-399.5 926.5,-399.5 926.5,-467.5 926.5,-467.5 926.5,-473.5 920.5,-479.5 914.5,-479.5 914.5,-479.5 580.5,-479.5 580.5,-479.5 574.5,-479.5 568.5,-473.5 568.5,-467.5 568.5,-467.5 568.5,-399.5 568.5,-399.5 568.5,-393.5 574.5,-387.5 580.5,-387.5"/>
<text text-anchor="middle" x="747.5" y="-464.3" font-family="Times,serif" font-size="14.00">indx: 0x623be90726b0</text>
<polyline fill="none" stroke="#ffbe20" points="568.5,-456.5 926.5,-456.5 "/>
<text text-anchor="middle" x="747.5" y="-441.3" font-family="Times,serif" font-size="14.00">value: cactus</text>
<polyline fill="none" stroke="#ffbe20" points="568.5,-433.5 926.5,-433.5 "/>
<text text-anchor="middle" x="747.5" y="-418.3" font-family="Times,serif" font-size="14.00">parent: 0x623be9072530</text>
<polyline fill="none" stroke="#ffbe20" points="568.5,-410.5 926.5,-410.5 "/>
<text text-anchor="middle" x="655" y="-395.3" font-family="Times,serif" font-size="14.00">left: 0x623be90726e0</text>
<polyline fill="none" stroke="#ffbe20" points="741.5,-387.5 741.5,-410.5 "/>
<text text-anchor="middle" x="834" y="-395.3" font-family="Times,serif" font-size="14.00">right: 0x623be9072710</text>
</g>
<!-- node0x623be9072530&#45;&gt;node0x623be90726b0 -->
<g id="edge8" class="edge">
<title>node0x623be9072530&#45;&gt;node0x623be90726b0</title>
<path fill="none" stroke="#ffbe20" d="M626.31,-516.37C641.18,-506.32 657.05,-495.6 672.23,-485.35"/>
<polygon fill="#ffbe20" stroke="#ffbe20" points="674.26,-488.2 680.59,-479.7 670.34,-482.4 674.26,-488.2"/>
</g>
<!-- node0x623be9072590 -->
<g id="node3" class="node">
<title>node0x623be9072590</title>
<path fill="#c0261c" stroke="#ffbe20" d="M12,-258.5C12,-258.5 185,-258.5 185,-258.5 191,-258.5 197,-264.5 197,-270.5 197,-270.5 197,-338.5 197,-338.5 197,-344.5 191,-350.5 185,-350.5 185,-350.5 12,-350.5 12,-350.5 6,-350.5 0,-344.5 0,-338.5 0,-338.5 0,-270.5 0,-270.5 0,-264.5 6,-258.5 12,-258.5"/>
<text text-anchor="middle" x="98.5" y="-335.3" font-family="Times,serif" font-size="14.00">indx: 0x623be9072590</text>
<polyline fill="none" stroke="#ffbe20" points="0,-327.5 197,-327.5 "/>
<text text-anchor="middle" x="98.5" y="-312.3" font-family="Times,serif" font-size="14.00">value: shelly</text>
<polyline fill="none" stroke="#ffbe20" points="0,-304.5 197,-304.5 "/>
<text text-anchor="middle" x="98.5" y="-289.3" font-family="Times,serif" font-size="14.00">parent: 0x623be9072560</text>
<polyline fill="none" stroke="#ffbe20" points="0,-281.5 197,-281.5 "/>
<text text-anchor="middle" x="46.5" y="-266.3" font-family="Times,serif" font-size="14.00">left: (nil)</text>
<polyline fill="none" stroke="#ffbe20" points="93,-258.5 93,-281.5 "/>
<text text-anchor="middle" x="145" y="-266.3" font-family="Times,serif" font-size="14.00">right: (nil)</text>
</g>
<!-- node0x623be9072560&#45;&gt;node0x623be9072590 -->
<g id="edge2" class="edge">
<title>node0x623be9072560&#45;&gt;node0x623be9072590</title>
<path fill="none" stroke="#ffbe20" d="M274.48,-387.37C251.89,-376.86 227.71,-365.61 204.74,-354.92"/>
<polygon fill="#ffbe20" stroke="#ffbe20" points="206.21,-351.75 195.67,-350.7 203.26,-358.09 206.21,-351.75"/>
</g>
<!-- node0x623be90725c0 -->
<g id="node4" class="node">
<title>node0x623be90725c0</title>
<path fill="#c0261c" stroke="#ffbe20" d="M227,-258.5C227,-258.5 558,-258.5 558,-258.5 564,-258.5 570,-264.5 570,-270.5 570,-270.5 570,-338.5 570,-338.5 570,-344.5 564,-350.5 558,-350.5 558,-350.5 227,-350.5 227,-350.5 221,-350.5 215,-344.5 215,-338.5 215,-338.5 215,-270.5 215,-270.5 215,-264.5 221,-258.5 227,-258.5"/>
<text text-anchor="middle" x="392.5" y="-335.3" font-family="Times,serif" font-size="14.00">indx: 0x623be90725c0</text>
<polyline fill="none" stroke="#ffbe20" points="215,-327.5 570,-327.5 "/>
<text text-anchor="middle" x="392.5" y="-312.3" font-family="Times,serif" font-size="14.00">value: woman</text>
<polyline fill="none" stroke="#ffbe20" points="215,-304.5 570,-304.5 "/>
<text text-anchor="middle" x="392.5" y="-289.3" font-family="Times,serif" font-size="14.00">parent: 0x623be9072560</text>
<polyline fill="none" stroke="#ffbe20" points="215,-281.5 570,-281.5 "/>
<text text-anchor="middle" x="300" y="-266.3" font-family="Times,serif" font-size="14.00">left: 0x623be90725f0</text>
<polyline fill="none" stroke="#ffbe20" points="385,-258.5 385,-281.5 "/>
<text text-anchor="middle" x="477.5" y="-266.3" font-family="Times,serif" font-size="14.00">right: 0x623be9072620</text>
</g>
<!-- node0x623be9072560&#45;&gt;node0x623be90725c0 -->
<g id="edge3" class="edge">
<title>node0x623be9072560&#45;&gt;node0x623be90725c0</title>
<path fill="none" stroke="#ffbe20" d="M378.96,-387.37C380.38,-378.77 381.89,-369.68 383.36,-360.8"/>
<polygon fill="#ffbe20" stroke="#ffbe20" points="386.81,-361.35 384.99,-350.92 379.91,-360.21 386.81,-361.35"/>
</g>
<!-- node0x623be90725f0 -->
<g id="node5" class="node">
<title>node0x623be90725f0</title>
<path fill="#c0261c" stroke="#ffbe20" d="M158.5,-129.5C158.5,-129.5 330.5,-129.5 330.5,-129.5 336.5,-129.5 342.5,-135.5 342.5,-141.5 342.5,-141.5 342.5,-209.5 342.5,-209.5 342.5,-215.5 336.5,-221.5 330.5,-221.5 330.5,-221.5 158.5,-221.5 158.5,-221.5 152.5,-221.5 146.5,-215.5 146.5,-209.5 146.5,-209.5 146.5,-141.5 146.5,-141.5 146.5,-135.5 152.5,-129.5 158.5,-129.5"/>
<text text-anchor="middle" x="244.5" y="-206.3" font-family="Times,serif" font-size="14.00">indx: 0x623be90725f0</text>
<polyline fill="none" stroke="#ffbe20" points="146.5,-198.5 342.5,-198.5 "/>
<text text-anchor="middle" x="244.5" y="-183.3" font-family="Times,serif" font-size="14.00">value: kolt</text>
<polyline fill="none" stroke="#ffbe20" points="146.5,-175.5 342.5,-175.5 "/>
<text text-anchor="middle" x="244.5" y="-160.3" font-family="Times,serif" font-size="14.00">parent: 0x623be90725c0</text>
<polyline fill="none" stroke="#ffbe20" points="146.5,-152.5 342.5,-152.5 "/>
<text text-anchor="middle" x="192.5" y="-137.3" font-family="Times,serif" font-size="14.00">left: (nil)</text>
<polyline fill="none" stroke="#ffbe20" points="238.5,-129.5 238.5,-152.5 "/>
<text text-anchor="middle" x="290.5" y="-137.3" font-family="Times,serif" font-size="14.00">right: (nil)</text>
</g>
<!-- node0x623be90725c0&#45;&gt;node0x623be90725f0 -->
<g id="edge4" class="edge">
<title>node0x623be90725c0&#45;&gt;node0x623be90725f0</title>
<path fill="none" stroke="#ffbe20" d="M339.9,-258.37C328.7,-248.75 316.78,-238.52 305.29,-228.67"/>
<polygon fill="#ffbe20" stroke="#ffbe20" points="307.29,-225.77 297.43,-221.92 302.73,-231.08 307.29,-225.77"/>
</g>
<!-- node0x623be9072620 -->
<g id="node6" class="node">
<title>node0x623be9072620</title>
<path fill="#c0261c" stroke="#ffbe20" d="M373,-129.5C373,-129.5 708,-129.5 708,-129.5 714,-129.5 720,-135.5 720,-141.5 720,-141.5 720,-209.5 720,-209.5 720,-215.5 714,-221.5 708,-221.5 708,-221.5 373,-221.5 373,-221.5 367,-221.5 361,-215.5 361,-209.5 361,-209.5 361,-141.5 361,-141.5 361,-135.5 367,-129.5 373,-129.5"/>
<text text-anchor="middle" x="540.5" y="-206.3" font-family="Times,serif" font-size="14.00">indx: 0x623be9072620</text>
<polyline fill="none" stroke="#ffbe20" points="361,-198.5 720,-198.5 "/>
<text text-anchor="middle" x="540.5" y="-183.3" font-family="Times,serif" font-size="14.00">value: electricity</text>
<polyline fill="none" stroke="#ffbe20" points="361,-175.5 720,-175.5 "/>
<text text-anchor="middle" x="540.5" y="-160.3" font-family="Times,serif" font-size="14.00">parent: 0x623be90725c0</text>
<polyline fill="none" stroke="#ffbe20" points="361,-152.5 720,-152.5 "/>
<text text-anchor="middle" x="448" y="-137.3" font-family="Times,serif" font-size="14.00">left: 0x623be9072650</text>
<polyline fill="none" stroke="#ffbe20" points="535,-129.5 535,-152.5 "/>
<text text-anchor="middle" x="627.5" y="-137.3" font-family="Times,serif" font-size="14.00">right: 0x623be9072680</text>
</g>
<!-- node0x623be90725c0&#45;&gt;node0x623be9072620 -->
<g id="edge5" class="edge">
<title>node0x623be90725c0&#45;&gt;node0x623be9072620</title>
<path fill="none" stroke="#ffbe20" d="M445.1,-258.37C456.3,-248.75 468.22,-238.52 479.71,-228.67"/>
<polygon fill="#ffbe20" stroke="#ffbe20" points="482.27,-231.08 487.57,-221.92 477.71,-225.77 482.27,-231.08"/>
</g>
<!-- node0x623be9072650 -->
<g id="node7" class="node">
<title>node0x623be9072650</title>
<path fill="#c0261c" stroke="#ffbe20" d="M347,-0.5C347,-0.5 520,-0.5 520,-0.5 526,-0.5 532,-6.5 532,-12.5 532,-12.5 532,-80.5 532,-80.5 532,-86.5 526,-92.5 520,-92.5 520,-92.5 347,-92.5 347,-92.5 341,-92.5 335,-86.5 335,-80.5 335,-80.5 335,-12.5 335,-12.5 335,-6.5 341,-0.5 347,-0.5"/>
<text text-anchor="middle" x="433.5" y="-77.3" font-family="Times,serif" font-size="14.00">indx: 0x623be9072650</text>
<polyline fill="none" stroke="#ffbe20" points="335,-69.5 532,-69.5 "/>
<text text-anchor="middle" x="433.5" y="-54.3" font-family="Times,serif" font-size="14.00">value: piper</text>
<polyline fill="none" stroke="#ffbe20" points="335,-46.5 532,-46.5 "/>
<text text-anchor="middle" x="433.5" y="-31.3" font-family="Times,serif" font-size="14.00">parent: 0x623be9072620</text>
<polyline fill="none" stroke="#ffbe20" points="335,-23.5 532,-23.5 "/>
<text text-anchor="middle" x="381.5" y="-8.3" font-family="Times,serif" font-size="14.00">left: (nil)</text>
<polyline fill="none" stroke="#ffbe20" points="428,-0.5 428,-23.5 "/>
<text text-anchor="middle" x="480" y="-8.3" font-family="Times,serif" font-size="14.00">right: (nil)</text>
</g>
<!-- node0x623be9072620&#45;&gt;node0x623be9072650 -->
<g id="edge6" class="edge">
<title>node0x623be9072620&#45;&gt;node0x623be9072650</title>
<path fill="none" stroke="#ffbe20" d="M502.47,-129.37C494.68,-120.12 486.42,-110.31 478.41,-100.8"/>
<polygon fill="#ffbe20" stroke="#ffbe20" points="480.88,-98.31 471.76,-92.92 475.53,-102.82 480.88,-98.31"/>
</g>
<!-- node0x623be9072680 -->
<g id="node8" class="node">
<title>node0x623be9072680</title>
<path fill="#c0261c" stroke="#ffbe20" d="M562,-0.5C562,-0.5 735,-0.5 735,-0.5 741,-0.5 747,-6.5 747,-12.5 747,-12.5 747,-80.5 747,-80.5 747,-86.5 741,-92.5 735,-92.5 735,-92.5 562,-92.5 562,-92.5 556,-92.5 550,-86.5 550,-80.5 550,-80.5 550,-12.5 550,-12.5 550,-6.5 556,-0.5 562,-0.5"/>
<text text-anchor="middle" x="648.5" y="-77.3" font-family="Times,serif" font-size="14.00">indx: 0x623be9072680</text>
<polyline fill="none" stroke="#ffbe20" points="550,-69.5 747,-69.5 "/>
<text text-anchor="middle" x="648.5" y="-54.3" font-family="Times,serif" font-size="14.00">value: bell&#39;</text>
<polyline fill="none" stroke="#ffbe20" points="550,-46.5 747,-46.5 "/>
<text text-anchor="middle" x="648.5" y="-31.3" font-family="Times,serif" font-size="14.00">parent: 0x623be9072620</text>
<polyline fill="none" stroke="#ffbe20" points="550,-23.5 747,-23.5 "/>
<text text-anchor="middle" x="596.5" y="-8.3" font-family="Times,serif" font-size="14.00">left: (nil)</text>
<polyline fill="none" stroke="#ffbe20" points="643,-0.5 643,-23.5 "/>
<text text-anchor="middle" x="695" y="-8.3" font-family="Times,serif" font-size="14.00">right: (nil)</text>
</g>
<!-- node0x623be9072620&#45;&gt;node0x623be9072680 -->
<g id="edge7" class="edge">
<title>node0x623be9072620&#45;&gt;node0x623be9072680</title>
<path fill="none" stroke="#ffbe20" d="M578.88,-129.37C586.74,-120.12 595.09,-110.31 603.17,-100.8"/>
<polygon fill="#ffbe20" stroke="#ffbe20" points="606.07,-102.8 609.88,-92.92 600.73,-98.27 606.07,-102.8"/>
</g>
<!-- node0x623be90726e0 -->
<g id="node10" class="node">
<title>node0x623be90726e0</title>
<path fill="#c0261c" stroke="#ffbe20" d="M641,-258.5C641,-258.5 814,-258.5 814,-258.5 820,-258.5 826,-264.5 826,-270.5 826,-270.5 826,-338.5 826,-338.5 826,-344.5 820,-350.5 814,-350.5 814,-350.5 641,-350.5 641,-350.5 635,-350.5 629,-344.5 629,-338.5 629,-338.5 629,-270.5 629,-270.5 629,-264.5 635,-258.5 641,-258.5"/>
<text text-anchor="middle" x="727.5" y="-335.3" font-family="Times,serif" font-size="14.00">indx: 0x623be90726e0</text>
<polyline fill="none" stroke="#ffbe20" points="629,-327.5 826,-327.5 "/>
<text text-anchor="middle" x="727.5" y="-312.3" font-family="Times,serif" font-size="14.00">value: leon</text>
<polyline fill="none" stroke="#ffbe20" points="629,-304.5 826,-304.5 "/>
<text text-anchor="middle" x="727.5" y="-289.3" font-family="Times,serif" font-size="14.00">parent: 0x623be90726b0</text>
<polyline fill="none" stroke="#ffbe20" points="629,-281.5 826,-281.5 "/>
<text text-anchor="middle" x="675.5" y="-266.3" font-family="Times,serif" font-size="14.00">left: (nil)</text>
<polyline fill="none" stroke="#ffbe20" points="722,-258.5 722,-281.5 "/>
<text text-anchor="middle" x="774" y="-266.3" font-family="Times,serif" font-size="14.00">right: (nil)</text>
</g>
<!-- node0x623be90726b0&#45;&gt;node0x623be90726e0 -->
<g id="edge9" class="edge">
<title>node0x623be90726b0&#45;&gt;node0x623be90726e0</title>
<path fill="none" stroke="#ffbe20" d="M740.39,-387.37C739.04,-378.77 737.61,-369.68 736.21,-360.8"/>
<polygon fill="#ffbe20" stroke="#ffbe20" points="739.67,-360.25 734.65,-350.92 732.75,-361.34 739.67,-360.25"/>
</g>
<!-- node0x623be9072710 -->
<g id="node11" class="node">
<title>node0x623be9072710</title>
<path fill="#c0261c" stroke="#ffbe20" d="M856,-258.5C856,-258.5 1029,-258.5 1029,-258.5 1035,-258.5 1041,-264.5 1041,-270.5 1041,-270.5 1041,-338.5 1041,-338.5 1041,-344.5 1035,-350.5 1029,-350.5 1029,-350.5 856,-350.5 856,-350.5 850,-350.5 844,-344.5 844,-338.5 844,-338.5 844,-270.5 844,-270.5 844,-264.5 850,-258.5 856,-258.5"/>
<text text-anchor="middle" x="942.5" y="-335.3" font-family="Times,serif" font-size="14.00">indx: 0x623be9072710</text>
<polyline fill="none" stroke="#ffbe20" points="844,-327.5 1041,-327.5 "/>
<text text-anchor="middle" x="942.5" y="-312.3" font-family="Times,serif" font-size="14.00">value: spike</text>
<polyline fill="none" stroke="#ffbe20" points="844,-304.5 1041,-304.5 "/>
<text text-anchor="middle" x="942.5" y="-289.3" font-family="Times,serif" font-size="14.00">parent: 0x623be90726b0</text>
<polyline fill="none" stroke="#ffbe20" points="844,-281.5 1041,-281.5 "/>
<text text-anchor="middle" x="890.5" y="-266.3" font-family="Times,serif" font-size="14.00">left: (nil)</text>
<polyline fill="none" stroke="#ffbe20" points="937,-258.5 937,-281.5 "/>
<text text-anchor="middle" x="989" y="-266.3" font-family="Times,serif" font-size="14.00">right: (nil)</text>
</g>
<!-- node0x623be90726b0&#45;&gt;node0x623be9072710 -->
<g id="edge10" class="edge">
<title>node0x623be90726b0&#45;&gt;node0x623be9072710</title>
<path fill="none" stroke="#ffbe20" d="M816.8,-387.37C832.22,-377.32 848.68,-366.6 864.43,-356.35"/>
<polygon fill="#ffbe20" stroke="#ffbe20" points="866.63,-359.09 873.1,-350.7 862.81,-353.23 866.63,-359.09"/>
</g>
</g>
</svg>
