<?xml version="1.0" encoding="UTF-8" standalone="no"?>
<!DOCTYPE svg PUBLIC "-//W3C//DTD SVG 1.1//EN"
 "http://www.w3.org/Graphics/SVG/1.1/DTD/svg11.dtd">
<!-- Generated by graphviz version 2.43.0 (0)
 -->
<!-- Title: Tree Pages: 1 -->
<svg width="384pt" height="184pt"
 viewBox="0.00 0.00 384.00 184.00" xmlns="http://www.w3.org/2000/svg" xmlns:xlink="http://www.w3.org/1999/xlink">
<g id="graph0" class="graph" transform="scale(1 1) rotate(0) translate(4 180)">
<title>Tree</title>
<polygon fill="#0f0000" stroke="transparent" points="-4,4 -4,-180 380,-180 380,4 -4,4"/>
<!-- node0x55a4364972a0 -->
<g id="node1" class="node">
<title>node0x55a4364972a0</title>
<path fill="#ec9594" stroke="#fee8d6" d="M21,-106.5C21,-106.5 352,-106.5 352,-106.5 358,-106.5 364,-112.5 364,-118.5 364,-118.5 364,-163.5 364,-163.5 364,-169.5 358,-175.5 352,-175.5 352,-175.5 21,-175.5 21,-175.5 15,-175.5 9,-169.5 9,-163.5 9,-163.5 9,-118.5 9,-118.5 9,-112.5 15,-106.5 21,-106.5"/>
<text text-anchor="middle" x="186.5" y="-160.3" font-family="Times,serif" font-size="14.00">indx: 0x55a4364972a0</text>
<polyline fill="none" stroke="#fee8d6" points="9,-152.5 364,-152.5 "/>
<text text-anchor="middle" x="186.5" y="-137.3" font-family="Times,serif" font-size="14.00">value: mipt</text>
<polyline fill="none" stroke="#fee8d6" points="9,-129.5 364,-129.5 "/>
<text text-anchor="middle" x="94" y="-114.3" font-family="Times,serif" font-size="14.00">left: 0x55a4364976f0</text>
<polyline fill="none" stroke="#fee8d6" points="179,-106.5 179,-129.5 "/>
<text text-anchor="middle" x="271.5" y="-114.3" font-family="Times,serif" font-size="14.00">right: 0x55a4364976d0</text>
</g>
<!-- node0x55a4364976f0 -->
<g id="node2" class="node">
<title>node0x55a4364976f0</title>
<path fill="#ec9594" stroke="#fee8d6" d="M12,-0.5C12,-0.5 165,-0.5 165,-0.5 171,-0.5 177,-6.5 177,-12.5 177,-12.5 177,-57.5 177,-57.5 177,-63.5 171,-69.5 165,-69.5 165,-69.5 12,-69.5 12,-69.5 6,-69.5 0,-63.5 0,-57.5 0,-57.5 0,-12.5 0,-12.5 0,-6.5 6,-0.5 12,-0.5"/>
<text text-anchor="middle" x="88.5" y="-54.3" font-family="Times,serif" font-size="14.00">indx: 0x55a4364976f0</text>
<polyline fill="none" stroke="#fee8d6" points="0,-46.5 177,-46.5 "/>
<text text-anchor="middle" x="88.5" y="-31.3" font-family="Times,serif" font-size="14.00">value: hz</text>
<polyline fill="none" stroke="#fee8d6" points="0,-23.5 177,-23.5 "/>
<text text-anchor="middle" x="41.5" y="-8.3" font-family="Times,serif" font-size="14.00">left: (nil)</text>
<polyline fill="none" stroke="#fee8d6" points="83,-0.5 83,-23.5 "/>
<text text-anchor="middle" x="130" y="-8.3" font-family="Times,serif" font-size="14.00">right: (nil)</text>
</g>
<!-- node0x55a4364972a0&#45;&gt;node0x55a4364976f0 -->
<g id="edge1" class="edge">
<title>node0x55a4364972a0&#45;&gt;node0x55a4364976f0</title>
<path fill="none" stroke="#fee8d6" d="M154.68,-106.23C145.86,-96.88 136.2,-86.62 127.04,-76.9"/>
<polygon fill="#fee8d6" stroke="#fee8d6" points="129.56,-74.47 120.16,-69.6 124.47,-79.27 129.56,-74.47"/>
</g>
<!-- node0x55a4364976d0 -->
<g id="node3" class="node">
<title>node0x55a4364976d0</title>
<path fill="#ec9594" stroke="#fee8d6" d="M207,-0.5C207,-0.5 364,-0.5 364,-0.5 370,-0.5 376,-6.5 376,-12.5 376,-12.5 376,-57.5 376,-57.5 376,-63.5 370,-69.5 364,-69.5 364,-69.5 207,-69.5 207,-69.5 201,-69.5 195,-63.5 195,-57.5 195,-57.5 195,-12.5 195,-12.5 195,-6.5 201,-0.5 207,-0.5"/>
<text text-anchor="middle" x="285.5" y="-54.3" font-family="Times,serif" font-size="14.00">indx: 0x55a4364976d0</text>
<polyline fill="none" stroke="#fee8d6" points="195,-46.5 376,-46.5 "/>
<text text-anchor="middle" x="285.5" y="-31.3" font-family="Times,serif" font-size="14.00">value: rt</text>
<polyline fill="none" stroke="#fee8d6" points="195,-23.5 376,-23.5 "/>
<text text-anchor="middle" x="237.5" y="-8.3" font-family="Times,serif" font-size="14.00">left: (nil)</text>
<polyline fill="none" stroke="#fee8d6" points="280,-0.5 280,-23.5 "/>
<text text-anchor="middle" x="328" y="-8.3" font-family="Times,serif" font-size="14.00">right: (nil)</text>
</g>
<!-- node0x55a4364972a0&#45;&gt;node0x55a4364976d0 -->
<g id="edge2" class="edge">
<title>node0x55a4364972a0&#45;&gt;node0x55a4364976d0</title>
<path fill="none" stroke="#fee8d6" d="M218.64,-106.23C227.55,-96.88 237.32,-86.62 246.57,-76.9"/>
<polygon fill="#fee8d6" stroke="#fee8d6" points="249.16,-79.25 253.52,-69.6 244.09,-74.43 249.16,-79.25"/>
</g>
</g>
</svg>
