<?xml version="1.0" encoding="UTF-8" standalone="no"?>
<!DOCTYPE svg PUBLIC "-//W3C//DTD SVG 1.1//EN"
 "http://www.w3.org/Graphics/SVG/1.1/DTD/svg11.dtd">
<!-- Generated by graphviz version 2.43.0 (0)
 -->
<!-- Title: Tree Pages: 1 -->
<svg width="1164pt" height="617pt"
 viewBox="0.00 0.00 1164.00 617.00" xmlns="http://www.w3.org/2000/svg" xmlns:xlink="http://www.w3.org/1999/xlink">
<g id="graph0" class="graph" transform="scale(1 1) rotate(0) translate(4 613)">
<title>Tree</title>
<polygon fill="#4984f9" stroke="transparent" points="-4,4 -4,-613 1160,-613 1160,4 -4,4"/>
<!-- node0x5a3dc0121530 -->
<g id="node1" class="node">
<title>node0x5a3dc0121530</title>
<path fill="#c0261c" stroke="#ffbe20" d="M410.5,-516.5C410.5,-516.5 743.5,-516.5 743.5,-516.5 749.5,-516.5 755.5,-522.5 755.5,-528.5 755.5,-528.5 755.5,-596.5 755.5,-596.5 755.5,-602.5 749.5,-608.5 743.5,-608.5 743.5,-608.5 410.5,-608.5 410.5,-608.5 404.5,-608.5 398.5,-602.5 398.5,-596.5 398.5,-596.5 398.5,-528.5 398.5,-528.5 398.5,-522.5 404.5,-516.5 410.5,-516.5"/>
<text text-anchor="middle" x="577" y="-593.3" font-family="Times,serif" font-size="14.00">indx: 0x5a3dc0121530</text>
<polyline fill="none" stroke="#ffbe20" points="398.5,-585.5 755.5,-585.5 "/>
<text text-anchor="middle" x="577" y="-570.3" font-family="Times,serif" font-size="14.00">value: lega</text>
<polyline fill="none" stroke="#ffbe20" points="398.5,-562.5 755.5,-562.5 "/>
<text text-anchor="middle" x="577" y="-547.3" font-family="Times,serif" font-size="14.00">parent: (nil)</text>
<polyline fill="none" stroke="#ffbe20" points="398.5,-539.5 755.5,-539.5 "/>
<text text-anchor="middle" x="485" y="-524.3" font-family="Times,serif" font-size="14.00">left: 0x5a3dc0121560</text>
<polyline fill="none" stroke="#ffbe20" points="571.5,-516.5 571.5,-539.5 "/>
<text text-anchor="middle" x="663.5" y="-524.3" font-family="Times,serif" font-size="14.00">right: 0x5a3dc01216b0</text>
</g>
<!-- node0x5a3dc0121560 -->
<g id="node2" class="node">
<title>node0x5a3dc0121560</title>
<path fill="#c0261c" stroke="#ffbe20" d="M224.5,-387.5C224.5,-387.5 555.5,-387.5 555.5,-387.5 561.5,-387.5 567.5,-393.5 567.5,-399.5 567.5,-399.5 567.5,-467.5 567.5,-467.5 567.5,-473.5 561.5,-479.5 555.5,-479.5 555.5,-479.5 224.5,-479.5 224.5,-479.5 218.5,-479.5 212.5,-473.5 212.5,-467.5 212.5,-467.5 212.5,-399.5 212.5,-399.5 212.5,-393.5 218.5,-387.5 224.5,-387.5"/>
<text text-anchor="middle" x="390" y="-464.3" font-family="Times,serif" font-size="14.00">indx: 0x5a3dc0121560</text>
<polyline fill="none" stroke="#ffbe20" points="212.5,-456.5 567.5,-456.5 "/>
<text text-anchor="middle" x="390" y="-441.3" font-family="Times,serif" font-size="14.00">value: dal&#39;nik</text>
<polyline fill="none" stroke="#ffbe20" points="212.5,-433.5 567.5,-433.5 "/>
<text text-anchor="middle" x="390" y="-418.3" font-family="Times,serif" font-size="14.00">parent: 0x5a3dc0121530</text>
<polyline fill="none" stroke="#ffbe20" points="212.5,-410.5 567.5,-410.5 "/>
<text text-anchor="middle" x="299" y="-395.3" font-family="Times,serif" font-size="14.00">left: 0x5a3dc0121590</text>
<polyline fill="none" stroke="#ffbe20" points="385.5,-387.5 385.5,-410.5 "/>
<text text-anchor="middle" x="476.5" y="-395.3" font-family="Times,serif" font-size="14.00">right: 0x5a3dc01215c0</text>
</g>
<!-- node0x5a3dc0121530&#45;&gt;node0x5a3dc0121560 -->
<g id="edge1" class="edge">
<title>node0x5a3dc0121530&#45;&gt;node0x5a3dc0121560</title>
<path fill="none" stroke="#ffbe20" d="M510.54,-516.37C495.75,-506.32 479.97,-495.6 464.87,-485.35"/>
<polygon fill="#ffbe20" stroke="#ffbe20" points="466.8,-482.42 456.56,-479.7 462.86,-488.22 466.8,-482.42"/>
</g>
<!-- node0x5a3dc01216b0 -->
<g id="node9" class="node">
<title>node0x5a3dc01216b0</title>
<path fill="#c0261c" stroke="#ffbe20" d="M598,-387.5C598,-387.5 930,-387.5 930,-387.5 936,-387.5 942,-393.5 942,-399.5 942,-399.5 942,-467.5 942,-467.5 942,-473.5 936,-479.5 930,-479.5 930,-479.5 598,-479.5 598,-479.5 592,-479.5 586,-473.5 586,-467.5 586,-467.5 586,-399.5 586,-399.5 586,-393.5 592,-387.5 598,-387.5"/>
<text text-anchor="middle" x="764" y="-464.3" font-family="Times,serif" font-size="14.00">indx: 0x5a3dc01216b0</text>
<polyline fill="none" stroke="#ffbe20" points="586,-456.5 942,-456.5 "/>
<text text-anchor="middle" x="764" y="-441.3" font-family="Times,serif" font-size="14.00">value: cactus</text>
<polyline fill="none" stroke="#ffbe20" points="586,-433.5 942,-433.5 "/>
<text text-anchor="middle" x="764" y="-418.3" font-family="Times,serif" font-size="14.00">parent: 0x5a3dc0121530</text>
<polyline fill="none" stroke="#ffbe20" points="586,-410.5 942,-410.5 "/>
<text text-anchor="middle" x="672" y="-395.3" font-family="Times,serif" font-size="14.00">left: 0x5a3dc01216e0</text>
<polyline fill="none" stroke="#ffbe20" points="758,-387.5 758,-410.5 "/>
<text text-anchor="middle" x="850" y="-395.3" font-family="Times,serif" font-size="14.00">right: 0x5a3dc0121710</text>
</g>
<!-- node0x5a3dc0121530&#45;&gt;node0x5a3dc01216b0 -->
<g id="edge8" class="edge">
<title>node0x5a3dc0121530&#45;&gt;node0x5a3dc01216b0</title>
<path fill="none" stroke="#ffbe20" d="M643.46,-516.37C658.25,-506.32 674.03,-495.6 689.13,-485.35"/>
<polygon fill="#ffbe20" stroke="#ffbe20" points="691.14,-488.22 697.44,-479.7 687.2,-482.42 691.14,-488.22"/>
</g>
<!-- node0x5a3dc0121590 -->
<g id="node3" class="node">
<title>node0x5a3dc0121590</title>
<path fill="#c0261c" stroke="#ffbe20" d="M12,-258.5C12,-258.5 184,-258.5 184,-258.5 190,-258.5 196,-264.5 196,-270.5 196,-270.5 196,-338.5 196,-338.5 196,-344.5 190,-350.5 184,-350.5 184,-350.5 12,-350.5 12,-350.5 6,-350.5 0,-344.5 0,-338.5 0,-338.5 0,-270.5 0,-270.5 0,-264.5 6,-258.5 12,-258.5"/>
<text text-anchor="middle" x="98" y="-335.3" font-family="Times,serif" font-size="14.00">indx: 0x5a3dc0121590</text>
<polyline fill="none" stroke="#ffbe20" points="0,-327.5 196,-327.5 "/>
<text text-anchor="middle" x="98" y="-312.3" font-family="Times,serif" font-size="14.00">value: shelly</text>
<polyline fill="none" stroke="#ffbe20" points="0,-304.5 196,-304.5 "/>
<text text-anchor="middle" x="98" y="-289.3" font-family="Times,serif" font-size="14.00">parent: 0x5a3dc0121560</text>
<polyline fill="none" stroke="#ffbe20" points="0,-281.5 196,-281.5 "/>
<text text-anchor="middle" x="46" y="-266.3" font-family="Times,serif" font-size="14.00">left: (nil)</text>
<polyline fill="none" stroke="#ffbe20" points="92,-258.5 92,-281.5 "/>
<text text-anchor="middle" x="144" y="-266.3" font-family="Times,serif" font-size="14.00">right: (nil)</text>
</g>
<!-- node0x5a3dc0121560&#45;&gt;node0x5a3dc0121590 -->
<g id="edge2" class="edge">
<title>node0x5a3dc0121560&#45;&gt;node0x5a3dc0121590</title>
<path fill="none" stroke="#ffbe20" d="M286.23,-387.37C259.98,-375.95 231.74,-363.67 205.32,-352.18"/>
<polygon fill="#ffbe20" stroke="#ffbe20" points="206.63,-348.93 196.06,-348.15 203.83,-355.35 206.63,-348.93"/>
</g>
<!-- node0x5a3dc01215c0 -->
<g id="node4" class="node">
<title>node0x5a3dc01215c0</title>
<path fill="#c0261c" stroke="#ffbe20" d="M226.5,-258.5C226.5,-258.5 555.5,-258.5 555.5,-258.5 561.5,-258.5 567.5,-264.5 567.5,-270.5 567.5,-270.5 567.5,-338.5 567.5,-338.5 567.5,-344.5 561.5,-350.5 555.5,-350.5 555.5,-350.5 226.5,-350.5 226.5,-350.5 220.5,-350.5 214.5,-344.5 214.5,-338.5 214.5,-338.5 214.5,-270.5 214.5,-270.5 214.5,-264.5 220.5,-258.5 226.5,-258.5"/>
<text text-anchor="middle" x="391" y="-335.3" font-family="Times,serif" font-size="14.00">indx: 0x5a3dc01215c0</text>
<polyline fill="none" stroke="#ffbe20" points="214.5,-327.5 567.5,-327.5 "/>
<text text-anchor="middle" x="391" y="-312.3" font-family="Times,serif" font-size="14.00">value: woman</text>
<polyline fill="none" stroke="#ffbe20" points="214.5,-304.5 567.5,-304.5 "/>
<text text-anchor="middle" x="391" y="-289.3" font-family="Times,serif" font-size="14.00">parent: 0x5a3dc0121560</text>
<polyline fill="none" stroke="#ffbe20" points="214.5,-281.5 567.5,-281.5 "/>
<text text-anchor="middle" x="299" y="-266.3" font-family="Times,serif" font-size="14.00">left: 0x5a3dc01215f0</text>
<polyline fill="none" stroke="#ffbe20" points="383.5,-258.5 383.5,-281.5 "/>
<text text-anchor="middle" x="475.5" y="-266.3" font-family="Times,serif" font-size="14.00">right: 0x5a3dc0121620</text>
</g>
<!-- node0x5a3dc0121560&#45;&gt;node0x5a3dc01215c0 -->
<g id="edge3" class="edge">
<title>node0x5a3dc0121560&#45;&gt;node0x5a3dc01215c0</title>
<path fill="none" stroke="#ffbe20" d="M390.36,-387.37C390.42,-378.86 390.49,-369.87 390.56,-361.09"/>
<polygon fill="#ffbe20" stroke="#ffbe20" points="394.06,-360.94 390.64,-350.92 387.06,-360.89 394.06,-360.94"/>
</g>
<!-- node0x5a3dc01215f0 -->
<g id="node5" class="node">
<title>node0x5a3dc01215f0</title>
<path fill="#c0261c" stroke="#ffbe20" d="M31,-129.5C31,-129.5 201,-129.5 201,-129.5 207,-129.5 213,-135.5 213,-141.5 213,-141.5 213,-209.5 213,-209.5 213,-215.5 207,-221.5 201,-221.5 201,-221.5 31,-221.5 31,-221.5 25,-221.5 19,-215.5 19,-209.5 19,-209.5 19,-141.5 19,-141.5 19,-135.5 25,-129.5 31,-129.5"/>
<text text-anchor="middle" x="116" y="-206.3" font-family="Times,serif" font-size="14.00">indx: 0x5a3dc01215f0</text>
<polyline fill="none" stroke="#ffbe20" points="19,-198.5 213,-198.5 "/>
<text text-anchor="middle" x="116" y="-183.3" font-family="Times,serif" font-size="14.00">value: kolt</text>
<polyline fill="none" stroke="#ffbe20" points="19,-175.5 213,-175.5 "/>
<text text-anchor="middle" x="116" y="-160.3" font-family="Times,serif" font-size="14.00">parent: 0x5a3dc01215c0</text>
<polyline fill="none" stroke="#ffbe20" points="19,-152.5 213,-152.5 "/>
<text text-anchor="middle" x="64.5" y="-137.3" font-family="Times,serif" font-size="14.00">left: (nil)</text>
<polyline fill="none" stroke="#ffbe20" points="110,-129.5 110,-152.5 "/>
<text text-anchor="middle" x="161.5" y="-137.3" font-family="Times,serif" font-size="14.00">right: (nil)</text>
</g>
<!-- node0x5a3dc01215c0&#45;&gt;node0x5a3dc01215f0 -->
<g id="edge4" class="edge">
<title>node0x5a3dc01215c0&#45;&gt;node0x5a3dc01215f0</title>
<path fill="none" stroke="#ffbe20" d="M293.27,-258.37C270.37,-247.79 245.87,-236.48 222.61,-225.73"/>
<polygon fill="#ffbe20" stroke="#ffbe20" points="223.96,-222.5 213.41,-221.49 221.03,-228.86 223.96,-222.5"/>
</g>
<!-- node0x5a3dc0121620 -->
<g id="node6" class="node">
<title>node0x5a3dc0121620</title>
<path fill="#c0261c" stroke="#ffbe20" d="M243.5,-129.5C243.5,-129.5 576.5,-129.5 576.5,-129.5 582.5,-129.5 588.5,-135.5 588.5,-141.5 588.5,-141.5 588.5,-209.5 588.5,-209.5 588.5,-215.5 582.5,-221.5 576.5,-221.5 576.5,-221.5 243.5,-221.5 243.5,-221.5 237.5,-221.5 231.5,-215.5 231.5,-209.5 231.5,-209.5 231.5,-141.5 231.5,-141.5 231.5,-135.5 237.5,-129.5 243.5,-129.5"/>
<text text-anchor="middle" x="410" y="-206.3" font-family="Times,serif" font-size="14.00">indx: 0x5a3dc0121620</text>
<polyline fill="none" stroke="#ffbe20" points="231.5,-198.5 588.5,-198.5 "/>
<text text-anchor="middle" x="410" y="-183.3" font-family="Times,serif" font-size="14.00">value: electricity</text>
<polyline fill="none" stroke="#ffbe20" points="231.5,-175.5 588.5,-175.5 "/>
<text text-anchor="middle" x="410" y="-160.3" font-family="Times,serif" font-size="14.00">parent: 0x5a3dc01215c0</text>
<polyline fill="none" stroke="#ffbe20" points="231.5,-152.5 588.5,-152.5 "/>
<text text-anchor="middle" x="318" y="-137.3" font-family="Times,serif" font-size="14.00">left: 0x5a3dc0121650</text>
<polyline fill="none" stroke="#ffbe20" points="404.5,-129.5 404.5,-152.5 "/>
<text text-anchor="middle" x="496.5" y="-137.3" font-family="Times,serif" font-size="14.00">right: 0x5a3dc0121680</text>
</g>
<!-- node0x5a3dc01215c0&#45;&gt;node0x5a3dc0121620 -->
<g id="edge5" class="edge">
<title>node0x5a3dc01215c0&#45;&gt;node0x5a3dc0121620</title>
<path fill="none" stroke="#ffbe20" d="M397.75,-258.37C399.02,-249.86 400.37,-240.87 401.68,-232.09"/>
<polygon fill="#ffbe20" stroke="#ffbe20" points="405.19,-232.32 403.21,-221.92 398.26,-231.29 405.19,-232.32"/>
</g>
<!-- node0x5a3dc0121650 -->
<g id="node7" class="node">
<title>node0x5a3dc0121650</title>
<path fill="#c0261c" stroke="#ffbe20" d="M217,-0.5C217,-0.5 389,-0.5 389,-0.5 395,-0.5 401,-6.5 401,-12.5 401,-12.5 401,-80.5 401,-80.5 401,-86.5 395,-92.5 389,-92.5 389,-92.5 217,-92.5 217,-92.5 211,-92.5 205,-86.5 205,-80.5 205,-80.5 205,-12.5 205,-12.5 205,-6.5 211,-0.5 217,-0.5"/>
<text text-anchor="middle" x="303" y="-77.3" font-family="Times,serif" font-size="14.00">indx: 0x5a3dc0121650</text>
<polyline fill="none" stroke="#ffbe20" points="205,-69.5 401,-69.5 "/>
<text text-anchor="middle" x="303" y="-54.3" font-family="Times,serif" font-size="14.00">value: piper</text>
<polyline fill="none" stroke="#ffbe20" points="205,-46.5 401,-46.5 "/>
<text text-anchor="middle" x="303" y="-31.3" font-family="Times,serif" font-size="14.00">parent: 0x5a3dc0121620</text>
<polyline fill="none" stroke="#ffbe20" points="205,-23.5 401,-23.5 "/>
<text text-anchor="middle" x="251" y="-8.3" font-family="Times,serif" font-size="14.00">left: (nil)</text>
<polyline fill="none" stroke="#ffbe20" points="297,-0.5 297,-23.5 "/>
<text text-anchor="middle" x="349" y="-8.3" font-family="Times,serif" font-size="14.00">right: (nil)</text>
</g>
<!-- node0x5a3dc0121620&#45;&gt;node0x5a3dc0121650 -->
<g id="edge6" class="edge">
<title>node0x5a3dc0121620&#45;&gt;node0x5a3dc0121650</title>
<path fill="none" stroke="#ffbe20" d="M371.97,-129.37C364.18,-120.12 355.92,-110.31 347.91,-100.8"/>
<polygon fill="#ffbe20" stroke="#ffbe20" points="350.38,-98.31 341.26,-92.92 345.03,-102.82 350.38,-98.31"/>
</g>
<!-- node0x5a3dc0121680 -->
<g id="node8" class="node">
<title>node0x5a3dc0121680</title>
<path fill="#c0261c" stroke="#ffbe20" d="M431,-0.5C431,-0.5 603,-0.5 603,-0.5 609,-0.5 615,-6.5 615,-12.5 615,-12.5 615,-80.5 615,-80.5 615,-86.5 609,-92.5 603,-92.5 603,-92.5 431,-92.5 431,-92.5 425,-92.5 419,-86.5 419,-80.5 419,-80.5 419,-12.5 419,-12.5 419,-6.5 425,-0.5 431,-0.5"/>
<text text-anchor="middle" x="517" y="-77.3" font-family="Times,serif" font-size="14.00">indx: 0x5a3dc0121680</text>
<polyline fill="none" stroke="#ffbe20" points="419,-69.5 615,-69.5 "/>
<text text-anchor="middle" x="517" y="-54.3" font-family="Times,serif" font-size="14.00">value: bell&#39;</text>
<polyline fill="none" stroke="#ffbe20" points="419,-46.5 615,-46.5 "/>
<text text-anchor="middle" x="517" y="-31.3" font-family="Times,serif" font-size="14.00">parent: 0x5a3dc0121620</text>
<polyline fill="none" stroke="#ffbe20" points="419,-23.5 615,-23.5 "/>
<text text-anchor="middle" x="465" y="-8.3" font-family="Times,serif" font-size="14.00">left: (nil)</text>
<polyline fill="none" stroke="#ffbe20" points="511,-0.5 511,-23.5 "/>
<text text-anchor="middle" x="563" y="-8.3" font-family="Times,serif" font-size="14.00">right: (nil)</text>
</g>
<!-- node0x5a3dc0121620&#45;&gt;node0x5a3dc0121680 -->
<g id="edge7" class="edge">
<title>node0x5a3dc0121620&#45;&gt;node0x5a3dc0121680</title>
<path fill="none" stroke="#ffbe20" d="M448.03,-129.37C455.82,-120.12 464.08,-110.31 472.09,-100.8"/>
<polygon fill="#ffbe20" stroke="#ffbe20" points="474.97,-102.82 478.74,-92.92 469.62,-98.31 474.97,-102.82"/>
</g>
<!-- node0x5a3dc01216e0 -->
<g id="node10" class="node">
<title>node0x5a3dc01216e0</title>
<path fill="#c0261c" stroke="#ffbe20" d="M598.5,-258.5C598.5,-258.5 929.5,-258.5 929.5,-258.5 935.5,-258.5 941.5,-264.5 941.5,-270.5 941.5,-270.5 941.5,-338.5 941.5,-338.5 941.5,-344.5 935.5,-350.5 929.5,-350.5 929.5,-350.5 598.5,-350.5 598.5,-350.5 592.5,-350.5 586.5,-344.5 586.5,-338.5 586.5,-338.5 586.5,-270.5 586.5,-270.5 586.5,-264.5 592.5,-258.5 598.5,-258.5"/>
<text text-anchor="middle" x="764" y="-335.3" font-family="Times,serif" font-size="14.00">indx: 0x5a3dc01216e0</text>
<polyline fill="none" stroke="#ffbe20" points="586.5,-327.5 941.5,-327.5 "/>
<text text-anchor="middle" x="764" y="-312.3" font-family="Times,serif" font-size="14.00">value: fire</text>
<polyline fill="none" stroke="#ffbe20" points="586.5,-304.5 941.5,-304.5 "/>
<text text-anchor="middle" x="764" y="-289.3" font-family="Times,serif" font-size="14.00">parent: 0x5a3dc01216b0</text>
<polyline fill="none" stroke="#ffbe20" points="586.5,-281.5 941.5,-281.5 "/>
<text text-anchor="middle" x="672.5" y="-266.3" font-family="Times,serif" font-size="14.00">left: 0x5a3dc0126a10</text>
<polyline fill="none" stroke="#ffbe20" points="758.5,-258.5 758.5,-281.5 "/>
<text text-anchor="middle" x="850" y="-266.3" font-family="Times,serif" font-size="14.00">right: 0x5a3dc0126a40</text>
</g>
<!-- node0x5a3dc01216b0&#45;&gt;node0x5a3dc01216e0 -->
<g id="edge9" class="edge">
<title>node0x5a3dc01216b0&#45;&gt;node0x5a3dc01216e0</title>
<path fill="none" stroke="#ffbe20" d="M764,-387.37C764,-378.86 764,-369.87 764,-361.09"/>
<polygon fill="#ffbe20" stroke="#ffbe20" points="767.5,-360.92 764,-350.92 760.5,-360.92 767.5,-360.92"/>
</g>
<!-- node0x5a3dc0121710 -->
<g id="node13" class="node">
<title>node0x5a3dc0121710</title>
<path fill="#c0261c" stroke="#ffbe20" d="M972,-258.5C972,-258.5 1144,-258.5 1144,-258.5 1150,-258.5 1156,-264.5 1156,-270.5 1156,-270.5 1156,-338.5 1156,-338.5 1156,-344.5 1150,-350.5 1144,-350.5 1144,-350.5 972,-350.5 972,-350.5 966,-350.5 960,-344.5 960,-338.5 960,-338.5 960,-270.5 960,-270.5 960,-264.5 966,-258.5 972,-258.5"/>
<text text-anchor="middle" x="1058" y="-335.3" font-family="Times,serif" font-size="14.00">indx: 0x5a3dc0121710</text>
<polyline fill="none" stroke="#ffbe20" points="960,-327.5 1156,-327.5 "/>
<text text-anchor="middle" x="1058" y="-312.3" font-family="Times,serif" font-size="14.00">value: spike</text>
<polyline fill="none" stroke="#ffbe20" points="960,-304.5 1156,-304.5 "/>
<text text-anchor="middle" x="1058" y="-289.3" font-family="Times,serif" font-size="14.00">parent: 0x5a3dc01216b0</text>
<polyline fill="none" stroke="#ffbe20" points="960,-281.5 1156,-281.5 "/>
<text text-anchor="middle" x="1006" y="-266.3" font-family="Times,serif" font-size="14.00">left: (nil)</text>
<polyline fill="none" stroke="#ffbe20" points="1052,-258.5 1052,-281.5 "/>
<text text-anchor="middle" x="1104" y="-266.3" font-family="Times,serif" font-size="14.00">right: (nil)</text>
</g>
<!-- node0x5a3dc01216b0&#45;&gt;node0x5a3dc0121710 -->
<g id="edge12" class="edge">
<title>node0x5a3dc01216b0&#45;&gt;node0x5a3dc0121710</title>
<path fill="none" stroke="#ffbe20" d="M868.48,-387.37C895.06,-375.89 923.66,-363.53 950.39,-351.99"/>
<polygon fill="#ffbe20" stroke="#ffbe20" points="951.97,-355.12 959.76,-347.94 949.19,-348.69 951.97,-355.12"/>
</g>
<!-- node0x5a3dc0126a10 -->
<g id="node11" class="node">
<title>node0x5a3dc0126a10</title>
<path fill="#c0261c" stroke="#ffbe20" d="M658.5,-129.5C658.5,-129.5 829.5,-129.5 829.5,-129.5 835.5,-129.5 841.5,-135.5 841.5,-141.5 841.5,-141.5 841.5,-209.5 841.5,-209.5 841.5,-215.5 835.5,-221.5 829.5,-221.5 829.5,-221.5 658.5,-221.5 658.5,-221.5 652.5,-221.5 646.5,-215.5 646.5,-209.5 646.5,-209.5 646.5,-141.5 646.5,-141.5 646.5,-135.5 652.5,-129.5 658.5,-129.5"/>
<text text-anchor="middle" x="744" y="-206.3" font-family="Times,serif" font-size="14.00">indx: 0x5a3dc0126a10</text>
<polyline fill="none" stroke="#ffbe20" points="646.5,-198.5 841.5,-198.5 "/>
<text text-anchor="middle" x="744" y="-183.3" font-family="Times,serif" font-size="14.00">value: leon</text>
<polyline fill="none" stroke="#ffbe20" points="646.5,-175.5 841.5,-175.5 "/>
<text text-anchor="middle" x="744" y="-160.3" font-family="Times,serif" font-size="14.00">parent: 0x5a3dc01216e0</text>
<polyline fill="none" stroke="#ffbe20" points="646.5,-152.5 841.5,-152.5 "/>
<text text-anchor="middle" x="692.5" y="-137.3" font-family="Times,serif" font-size="14.00">left: (nil)</text>
<polyline fill="none" stroke="#ffbe20" points="738.5,-129.5 738.5,-152.5 "/>
<text text-anchor="middle" x="790" y="-137.3" font-family="Times,serif" font-size="14.00">right: (nil)</text>
</g>
<!-- node0x5a3dc01216e0&#45;&gt;node0x5a3dc0126a10 -->
<g id="edge10" class="edge">
<title>node0x5a3dc01216e0&#45;&gt;node0x5a3dc0126a10</title>
<path fill="none" stroke="#ffbe20" d="M756.89,-258.37C755.54,-249.77 754.11,-240.68 752.71,-231.8"/>
<polygon fill="#ffbe20" stroke="#ffbe20" points="756.17,-231.25 751.15,-221.92 749.25,-232.34 756.17,-231.25"/>
</g>
<!-- node0x5a3dc0126a40 -->
<g id="node12" class="node">
<title>node0x5a3dc0126a40</title>
<path fill="#c0261c" stroke="#ffbe20" d="M871.5,-129.5C871.5,-129.5 1042.5,-129.5 1042.5,-129.5 1048.5,-129.5 1054.5,-135.5 1054.5,-141.5 1054.5,-141.5 1054.5,-209.5 1054.5,-209.5 1054.5,-215.5 1048.5,-221.5 1042.5,-221.5 1042.5,-221.5 871.5,-221.5 871.5,-221.5 865.5,-221.5 859.5,-215.5 859.5,-209.5 859.5,-209.5 859.5,-141.5 859.5,-141.5 859.5,-135.5 865.5,-129.5 871.5,-129.5"/>
<text text-anchor="middle" x="957" y="-206.3" font-family="Times,serif" font-size="14.00">indx: 0x5a3dc0126a40</text>
<polyline fill="none" stroke="#ffbe20" points="859.5,-198.5 1054.5,-198.5 "/>
<text text-anchor="middle" x="957" y="-183.3" font-family="Times,serif" font-size="14.00">value: amber</text>
<polyline fill="none" stroke="#ffbe20" points="859.5,-175.5 1054.5,-175.5 "/>
<text text-anchor="middle" x="957" y="-160.3" font-family="Times,serif" font-size="14.00">parent: 0x5a3dc01216e0</text>
<polyline fill="none" stroke="#ffbe20" points="859.5,-152.5 1054.5,-152.5 "/>
<text text-anchor="middle" x="905.5" y="-137.3" font-family="Times,serif" font-size="14.00">left: (nil)</text>
<polyline fill="none" stroke="#ffbe20" points="951.5,-129.5 951.5,-152.5 "/>
<text text-anchor="middle" x="1003" y="-137.3" font-family="Times,serif" font-size="14.00">right: (nil)</text>
</g>
<!-- node0x5a3dc01216e0&#45;&gt;node0x5a3dc0126a40 -->
<g id="edge11" class="edge">
<title>node0x5a3dc01216e0&#45;&gt;node0x5a3dc0126a40</title>
<path fill="none" stroke="#ffbe20" d="M832.59,-258.37C847.85,-248.32 864.14,-237.6 879.73,-227.35"/>
<polygon fill="#ffbe20" stroke="#ffbe20" points="881.88,-230.12 888.31,-221.7 878.03,-224.27 881.88,-230.12"/>
</g>
</g>
</svg>
